SplineFontDB: 3.2
FontName: CatsPaw-Thin
FullName: CatsPaw Thin
FamilyName: CatsPaw
Weight: Book
Version: 001.005
ItalicAngle: 0
UnderlinePosition: -100
UnderlineWidth: 51
Ascent: 819
Descent: 205
InvalidEm: 0
sfntRevision: 0x00010000
LayerCount: 2
Layer: 0 1 "Back" 1
Layer: 1 1 "Fore" 0
XUID: [1021 519 -785824813 22982]
StyleMap: 0x0040
FSType: 0
OS2Version: 4
OS2_WeightWidthSlopeOnly: 0
OS2_UseTypoMetrics: 0
CreationTime: 1650111813
ModificationTime: 1651099327
PfmFamily: 17
TTFWeight: 400
TTFWidth: 5
LineGap: 92
VLineGap: 0
Panose: 2 0 5 3 0 0 0 0 0 0
OS2TypoAscent: 819
OS2TypoAOffset: 0
OS2TypoDescent: -205
OS2TypoDOffset: 0
OS2TypoLinegap: 92
OS2WinAscent: 958
OS2WinAOffset: 0
OS2WinDescent: 460
OS2WinDOffset: 0
HheadAscent: 958
HheadAOffset: 0
HheadDescent: -460
HheadDOffset: 0
OS2SubXSize: 666
OS2SubYSize: 717
OS2SubXOff: 0
OS2SubYOff: 143
OS2SupXSize: 666
OS2SupYSize: 717
OS2SupXOff: 0
OS2SupYOff: 492
OS2StrikeYSize: 50
OS2StrikeYPos: 264
OS2CapHeight: 823
OS2XHeight: 527
OS2Vendor: 'CLGR'
OS2CodePages: 00000004.00000000
OS2UnicodeRanges: 00000203.00000000.00000000.00000000
MarkAttachClasses: 1
DEI: 91125
TtTable: prep
PUSHW_1
 511
SCANCTRL
PUSHB_1
 4
SCANTYPE
EndTTInstrs
ShortTable: cvt  3
  33
  633
  648
EndShort
ShortTable: maxp 16
  1
  0
  287
  260
  4
  163
  4
  2
  0
  1
  1
  0
  64
  46
  1
  1
EndShort
LangName: 1033 "" "" "" "FontForge : CatsPaw Thin : 21-4-2022" "" "Version 001.005" "" "" "" "" "Created with Calligraphr.com" "" "" "" "" "" "Catspaw" "Regular"
GaspTable: 1 65535 15 1
Encoding: UnicodeBmp
Compacted: 1
UnicodeInterp: none
NameList: AGL For New Fonts
DisplaySize: -48
AntiAlias: 1
FitToEm: 0
WinInfo: 140 20 8
BeginChars: 65564 287

StartChar: .notdef
Encoding: 65536 -1 0
Width: 374
Flags: W
LayerCount: 2
Fore
SplineSet
34 0 m 1,0,-1
 34 682 l 1,1,-1
 306 682 l 1,2,-1
 306 0 l 1,3,-1
 34 0 l 1,0,-1
68 34 m 1,4,-1
 272 34 l 1,5,-1
 272 648 l 1,6,-1
 68 648 l 1,7,-1
 68 34 l 1,4,-1
EndSplineSet
Validated: 1
EndChar

StartChar: exclam
Encoding: 33 33 34
Width: 212
GlyphClass: 2
Flags: W
LayerCount: 2
Fore
SplineSet
134 34 m 0,0,1
 140 1 140 1 100 -10 c 0,2,3
 58 -21 58 -21 54 26 c 0,4,5
 50 65 50 65 89 74 c 0,6,7
 125 83 125 83 134 34 c 0,0,1
145 692 m 2,8,9
 145 692 145 692 123 262 c 0,10,11
 118 187 118 187 113 156 c 0,12,13
 111 145 111 145 98 145 c 0,14,15
 83 144 83 144 82 158 c 0,16,17
 79 189 79 189 82 264 c 0,18,19
 94 681 94 681 94 686 c 0,20,21
 93 722 93 722 116 724 c 0,22,23
 147 727 147 727 145 692 c 2,8,9
EndSplineSet
Validated: 33
EndChar

StartChar: comma
Encoding: 44 44 45
Width: 212
GlyphClass: 2
Flags: W
LayerCount: 2
Fore
SplineSet
130 21 m 0,0,1
 99 -61 99 -61 66 -67 c 0,2,3
 60 -68 60 -68 68 -54 c 0,4,5
 83 -28 83 -28 79 29 c 0,6,7
 79 72 79 72 112 67 c 0,8,9
 145 61 145 61 130 21 c 0,0,1
EndSplineSet
Validated: 33
EndChar

StartChar: hyphen
Encoding: 45 45 46
Width: 333
GlyphClass: 2
Flags: W
LayerCount: 2
Fore
SplineSet
173 388 m 1,0,1
 216 383 216 383 278 393 c 0,2,3
 291 395 291 395 290 379.5 c 128,-1,4
 289 364 289 364 257 355 c 0,5,6
 229 348 229 348 176 348 c 0,7,8
 82 348 82 348 66 338 c 0,9,10
 43 325 43 325 45 347 c 0,11,12
 48 382 48 382 59 383 c 0,13,14
 110 388 110 388 173 388 c 1,0,1
EndSplineSet
Validated: 33
EndChar

StartChar: period
Encoding: 46 46 47
Width: 212
GlyphClass: 2
Flags: W
LayerCount: 2
Fore
SplineSet
134 34 m 0,0,1
 140 5 140 5 110 -5 c 0,2,3
 77 -16 77 -16 74 16 c 0,4,5
 70 54 70 54 99 64 c 0,6,7
 126 73 126 73 134 34 c 0,0,1
EndSplineSet
Validated: 33
EndChar

StartChar: colon
Encoding: 58 58 59
Width: 212
GlyphClass: 2
Flags: W
LayerCount: 2
Fore
SplineSet
134 434 m 0,0,1
 140 401 140 401 100 390 c 0,2,3
 58 379 58 379 54 426 c 0,4,5
 50 465 50 465 89 474 c 0,6,7
 125 483 125 483 134 434 c 0,0,1
134 34 m 0,8,9
 140 1 140 1 100 -10 c 0,10,11
 58 -21 58 -21 54 26 c 0,12,13
 50 65 50 65 89 74 c 0,14,15
 125 83 125 83 134 34 c 0,8,9
EndSplineSet
Validated: 33
EndChar

StartChar: semicolon
Encoding: 59 59 60
Width: 193
GlyphClass: 2
Flags: W
LayerCount: 2
Fore
SplineSet
134 434 m 0,0,1
 140 401 140 401 100 390 c 0,2,3
 58 379 58 379 54 426 c 0,4,5
 50 465 50 465 89 474 c 0,6,7
 125 483 125 483 134 434 c 0,0,1
130 12 m 0,8,9
 88 -95 88 -95 39 -109 c 0,10,11
 31 -111 31 -111 42 -91 c 0,12,13
 64 -56 64 -56 58 23 c 1,14,15
 58 82 58 82 105 74 c 0,16,17
 151 67 151 67 130 12 c 0,8,9
EndSplineSet
Validated: 33
EndChar

StartChar: question
Encoding: 63 63 64
Width: 480
GlyphClass: 2
Flags: W
LayerCount: 2
Fore
SplineSet
254 34 m 0,0,1
 260 1 260 1 220 -10 c 0,2,3
 178 -21 178 -21 174 26 c 0,4,5
 170 65 170 65 209 74 c 0,6,7
 245 83 245 83 254 34 c 0,0,1
83 663 m 2,8,9
 83 663 83 663 103 694 c 0,10,11
 133 736 133 736 213 749 c 0,12,13
 295 763 295 763 354 728 c 0,14,15
 397 702 397 702 427 641 c 0,16,17
 457 579 457 579 442 517 c 0,18,19
 423 442 423 442 330 379 c 1,20,21
 217 324 217 324 224 247 c 0,22,23
 227 214 227 214 261 174 c 0,24,25
 268 165 268 165 254 156 c 0,26,27
 245 151 245 151 234 160 c 0,28,29
 188 192 188 192 185 264 c 0,30,31
 182 325 182 325 304 401 c 0,32,33
 377 446 377 446 395 519 c 0,34,35
 409 574 409 574 386 630 c 0,36,37
 363 689 363 689 337 703 c 0,38,39
 274 737 274 737 218 726 c 0,40,41
 167 716 167 716 146 670 c 0,42,43
 138 657 138 657 130 643 c 0,44,45
 114 616 114 616 92 621 c 0,46,47
 59 630 59 630 83 663 c 2,8,9
EndSplineSet
Validated: 33
EndChar

StartChar: F
Encoding: 70 70 71
Width: 611
GlyphClass: 2
Flags: W
LayerCount: 2
Fore
SplineSet
565 477 m 0,0,1
 520 469 520 469 300 462 c 0,2,3
 256 460 256 460 237 460 c 0,4,5
 165 460 165 460 154 475 c 0,6,7
 150 480 150 480 150 481 c 0,8,9
 149 483 149 483 153 488 c 0,10,11
 158 494 158 494 160 494 c 0,12,13
 168 495 168 495 178 498 c 0,14,15
 201 505 201 505 206 505 c 2,16,17
 206 505 206 505 235 510 c 1,18,19
 231 504 231 504 226 502 c 0,20,21
 217 498 217 498 210 492 c 0,22,23
 203 485 203 485 202 485 c 0,24,25
 200 484 200 484 218 482 c 0,26,27
 228 481 228 481 353 489 c 0,28,29
 471 496 471 496 489 496 c 0,30,31
 527 496 527 496 564 498 c 1,32,33
 596 505 596 505 594 488 c 0,34,35
 593 480 593 480 565 477 c 0,0,1
37 52 m 0,36,37
 33 58 33 58 37 61 c 0,38,39
 41 66 41 66 46 65 c 0,40,41
 50 64 50 64 70 46 c 0,42,43
 88 31 88 31 93 27 c 0,44,45
 116 7 116 7 147 22 c 0,46,47
 180 37 180 37 195 82 c 0,48,49
 289 352 289 352 284 728 c 1,50,-1
 282 770 l 1,51,-1
 265 767 l 2,52,53
 207 759 207 759 167 727 c 0,54,55
 136 702 136 702 148 662 c 0,56,57
 151 652 151 652 165 637 c 0,58,59
 184 616 184 616 176 613 c 0,60,61
 166 609 166 609 148 628 c 0,62,63
 133 645 133 645 127 652 c 0,64,65
 96 693 96 693 146 742 c 0,66,67
 171 766 171 766 232 781 c 0,68,69
 249 786 249 786 264 789 c 2,70,-1
 281 792 l 1,71,-1
 280 808 l 2,72,73
 279 821 279 821 283 825 c 0,74,75
 286 829 286 829 297 831 c 0,76,77
 307 833 307 833 314 827 c 0,78,79
 317 824 317 824 317 809 c 2,80,-1
 317 797 l 1,81,-1
 330 797 l 2,82,83
 353 799 353 799 373 800 c 0,84,85
 457 803 457 803 459 804 c 0,86,87
 477 805 477 805 537 808 c 256,88,89
 597 811 597 811 627 815 c 0,90,91
 644 817 644 817 690 818 c 0,92,93
 762 820 762 820 773 806 c 0,94,95
 777 801 777 801 778 800 c 0,96,97
 779 795 779 795 774 792 c 0,98,99
 758 785 758 785 722 782 c 0,100,101
 691 780 691 780 689 778 c 1,102,103
 692 781 692 781 700 784 c 0,104,105
 711 788 711 788 715 789 c 0,106,107
 726 793 726 793 726 795 c 0,108,109
 726 796 726 796 710 796 c 0,110,111
 694 797 694 797 674 796 c 0,112,113
 654 796 654 796 645 794 c 0,114,115
 602 787 602 787 575 786 c 256,116,117
 548 785 548 785 438 782 c 0,118,119
 401 781 401 781 364 778 c 0,120,121
 334 775 334 775 332 775 c 2,122,-1
 318 774 l 1,123,-1
 320 732 l 1,124,125
 327 363 327 363 232 77 c 0,126,127
 206 0 206 0 136 -6 c 0,128,129
 80 -10 80 -10 37 52 c 0,36,37
EndSplineSet
Validated: 37
EndChar

StartChar: G
Encoding: 71 71 72
Width: 608
GlyphClass: 2
Flags: W
LayerCount: 2
Fore
SplineSet
287 -11 m 0,0,1
 219 -9 219 -9 172 20 c 0,2,3
 100 64 100 64 64 141 c 0,4,5
 0 279 0 279 23 435 c 0,6,7
 41 561 41 561 100 666 c 0,8,9
 122 705 122 705 167 751 c 0,10,11
 260 846 260 846 416 824 c 0,12,13
 453 819 453 819 501 800 c 0,14,15
 524 791 524 791 538 770.5 c 128,-1,16
 552 750 552 750 544 738 c 0,17,18
 537 726 537 726 520 730 c 128,-1,19
 503 734 503 734 497 748 c 0,20,21
 492 759 492 759 476 770 c 0,22,23
 441 792 441 792 411 796 c 0,24,25
 271 812 271 812 192 728 c 0,26,27
 158 692 158 692 138 649 c 0,28,29
 85 537 85 537 70 433 c 0,30,31
 50 301 50 301 104 154 c 0,32,33
 127 91 127 91 194 51 c 0,34,35
 245 20 245 20 298 20 c 0,36,37
 386 19 386 19 460 92 c 0,38,39
 488 121 488 121 506 158 c 0,40,41
 518 182 518 182 524 222 c 0,42,43
 531 267 531 267 533 331 c 0,44,45
 535 396 535 396 529 429 c 0,46,47
 520 484 520 484 401 484 c 0,48,49
 288 484 288 484 242 368 c 0,50,51
 232 343 232 343 216 348 c 0,52,53
 191 357 191 357 200 372 c 0,54,55
 253 466 253 466 318 491 c 0,56,57
 388 518 388 518 520 490 c 0,58,59
 562 481 562 481 567 457 c 0,60,61
 573 425 573 425 573 332 c 0,62,63
 573 283 573 283 565 220 c 0,64,65
 559 170 559 170 547 145 c 0,66,67
 527 104 527 104 477 57 c 0,68,69
 401 -15 401 -15 287 -11 c 0,0,1
EndSplineSet
Validated: 33
EndChar

StartChar: I
Encoding: 73 73 74
Width: 420
GlyphClass: 2
Flags: W
LayerCount: 2
Fore
SplineSet
173 34 m 0,0,1
 180 4 180 4 205 -3 c 0,2,3
 256 -16 256 -16 286 24 c 0,4,5
 301 44 301 44 325 114 c 0,6,7
 336 146 336 146 350 208 c 0,8,9
 363 273 363 273 373 378 c 0,10,11
 376 410 376 410 377 490 c 0,12,13
 380 632 380 632 379 709 c 0,14,15
 378 783 378 783 374 815 c 0,16,17
 371 832 371 832 362 827 c 0,18,19
 336 814 336 814 327 806 c 0,20,21
 310 790 310 790 283.5 776 c 128,-1,22
 257 762 257 762 234.5 756.5 c 128,-1,23
 212 751 212 751 204.5 754.5 c 128,-1,24
 197 758 197 758 180 775 c 0,25,26
 143 812 143 812 124 812 c 0,27,28
 111 812 111 812 108 810 c 0,29,30
 101 806 101 806 83.5 791 c 128,-1,31
 66 776 66 776 48.5 745.5 c 128,-1,32
 31 715 31 715 36 707 c 0,33,34
 44 694 44 694 57 716 c 0,35,36
 96 784 96 784 128 784 c 0,37,38
 138 784 138 784 143 778.5 c 128,-1,39
 148 773 148 773 160.5 757.5 c 128,-1,40
 173 742 173 742 186 734.5 c 128,-1,41
 199 727 199 727 204.5 726.5 c 128,-1,42
 210 726 210 726 236 728.5 c 128,-1,43
 262 731 262 731 282 740 c 0,44,45
 301 749 301 749 333 775 c 2,46,-1
 349 788 l 1,47,-1
 351 775 l 2,48,49
 355 749 355 749 348 596 c 0,50,51
 336 363 336 363 336 350 c 0,52,53
 336 327 336 327 330 282 c 0,54,55
 322 229 322 229 316 200 c 0,56,57
 308 164 308 164 296 120 c 0,58,59
 282 75 282 75 274 58 c 0,60,61
 255 20 255 20 238 18 c 0,62,63
 209 16 209 16 200 44 c 128,-1,64
 191 72 191 72 175 66 c 0,65,66
 166 62 166 62 173 34 c 0,0,1
EndSplineSet
Validated: 41
EndChar

StartChar: J
Encoding: 74 74 75
Width: 558
GlyphClass: 2
Flags: W
LayerCount: 2
Fore
SplineSet
4202 -2457 m 1024,0,-1
462 826 m 1024,1,2
459 786 m 1,3,-1
 445 775 l 1,4,5
 404 734 404 734 352 729 c 128,-1,6
 300 724 300 724 272 758 c 0,7,8
 251 784 251 784 240 784 c 0,9,10
 208 784 208 784 169 716 c 0,11,12
 156 694 156 694 148 707 c 0,13,14
 143 715 143 715 160.5 745.5 c 128,-1,15
 178 776 178 776 196 791 c 0,16,17
 220 812 220 812 239 812 c 0,18,19
 255 812 255 812 282 785 c 0,20,21
 317 750 317 750 348 758 c 0,22,23
 369 762 369 762 395 777 c 128,-1,24
 421 792 421 792 436 806 c 0,25,26
 480 846 480 846 492 820 c 0,27,28
 498 807 498 807 497 790 c 0,29,30
 493 746 493 746 474 518 c 0,31,32
 464 406 464 406 487 299 c 0,33,34
 509 198 509 198 510 183 c 0,35,36
 518 66 518 66 486 4 c 0,37,38
 459 -50 459 -50 411 -74 c 128,-1,39
 363 -98 363 -98 260 -96 c 0,40,41
 216 -95 216 -95 156 -79 c 0,42,43
 97 -62 97 -62 58 -17 c 0,44,45
 45 -1 45 -1 43.5 12.5 c 128,-1,46
 42 26 42 26 43.5 30.5 c 128,-1,47
 45 35 45 35 53 39 c 128,-1,48
 61 43 61 43 64.5 41.5 c 128,-1,49
 68 40 68 40 72 28 c 0,50,51
 81 6 81 6 137 -31 c 0,52,53
 192 -67 192 -67 277 -68 c 128,-1,54
 362 -69 362 -69 394 -51 c 0,55,56
 439 -26 439 -26 457 21 c 0,57,58
 488 100 488 100 476 175 c 0,59,60
 470 213 470 213 447 322 c 0,61,62
 423 435 423 435 432 522 c 0,63,64
 440 611 440 611 454 739 c 0,65,66
 456 763 456 763 459 786 c 1,3,-1
EndSplineSet
Validated: 33
EndChar

StartChar: L
Encoding: 76 76 77
Width: 732
GlyphClass: 2
Flags: W
LayerCount: 2
Fore
SplineSet
625 55 m 0,0,1
 578 0 578 0 465 -4 c 0,2,3
 398 -5 398 -5 334 59 c 0,4,5
 296 97 296 97 252 222 c 1,6,7
 250 214 250 214 239 174 c 0,8,9
 228 135 228 135 218 108 c 0,10,11
 204 69 204 69 181.5 37 c 128,-1,12
 159 5 159 5 133 -2 c 0,13,14
 97 -12 97 -12 74 -1 c 0,15,16
 39 16 39 16 36 49 c 0,17,18
 34 65 34 65 35 91 c 0,19,20
 37 117 37 117 39 142 c 0,21,22
 42 168 42 168 53 197 c 256,23,24
 64 226 64 226 83 250 c 0,25,26
 109 281 109 281 141.5 295.5 c 128,-1,27
 174 310 174 310 201 306 c 0,28,29
 227 302 227 302 242 286 c 1,30,31
 299 502 299 502 344 779 c 0,32,33
 349 809 349 809 352 817 c 0,34,35
 357 832 357 832 370 841 c 1,36,37
 381 841 381 841 387 834 c 0,38,39
 392 828 392 828 391 817 c 256,40,41
 390 806 390 806 388 795 c 256,42,43
 386 784 386 784 382 772 c 0,44,45
 379 759 379 759 378 753 c 0,46,47
 329 502 329 502 289 342 c 0,48,49
 278 298 278 298 263 259 c 1,50,51
 285 212 285 212 286 211 c 0,52,53
 319 117 319 117 358 74 c 0,54,55
 407 20 407 20 476 24 c 0,56,57
 594 32 594 32 626 102 c 0,58,59
 649 150 649 150 664 160 c 0,60,61
 692 177 692 177 683 137 c 0,62,63
 679 119 679 119 625 55 c 0,0,1
125 25 m 0,64,65
 170 36 170 36 197 126 c 0,66,67
 203 145 203 145 215 187.5 c 128,-1,68
 227 230 227 230 234 258 c 1,69,70
 222 277 222 277 202 282.5 c 128,-1,71
 182 288 182 288 155 277 c 128,-1,72
 128 266 128 266 103 236 c 0,73,74
 89 219 89 219 79.5 199.5 c 128,-1,75
 70 180 70 180 66 157.5 c 128,-1,76
 62 135 62 135 61 123 c 128,-1,77
 60 111 60 111 60.5 87 c 128,-1,78
 61 63 61 63 61 62 c 0,79,80
 61 35 61 35 79 26.5 c 128,-1,81
 97 18 97 18 125 25 c 0,64,65
EndSplineSet
Validated: 33
EndChar

StartChar: N
Encoding: 78 78 79
Width: 1042
GlyphClass: 2
Flags: W
LayerCount: 2
Fore
SplineSet
868 773 m 0,0,1
 864 753 864 753 838 639 c 0,2,3
 817 558 817 558 783 435 c 0,4,5
 741 287 741 287 738 273 c 0,6,7
 729 233 729 233 692 134 c 0,8,9
 677 95 677 95 638 47 c 0,10,11
 549 -59 549 -59 513 43 c 0,12,13
 500 81 500 81 501 154 c 0,14,15
 504 332 504 332 515 468 c 0,16,17
 525 603 525 603 526 627 c 2,18,-1
 527 641 l 1,19,-1
 515 594 l 1,20,21
 489 466 489 466 390 217 c 0,22,23
 323 46 323 46 229 8 c 0,24,25
 184 -9 184 -9 133 -9 c 0,26,27
 81 -10 81 -10 54 10 c 0,28,29
 25 31 25 31 38 72 c 0,30,31
 40 79 40 79 46 80 c 0,32,33
 51 80 51 80 53 77 c 0,34,35
 55 75 55 75 56 67 c 0,36,37
 62 36 62 36 79 20 c 0,38,39
 91 8 91 8 127 9 c 0,40,41
 183 9 183 9 226 33 c 0,42,43
 300 77 300 77 363 232 c 0,44,45
 461 473 461 473 495 614 c 0,46,47
 526 740 526 740 528 753 c 0,48,49
 531 771 531 771 535 789 c 128,-1,50
 539 807 539 807 539 815 c 0,51,52
 539 822 539 822 549 828 c 256,53,54
 559 834 559 834 567 828 c 0,55,56
 574 822 574 822 568.5 781 c 128,-1,57
 563 740 563 740 556 605 c 1,58,59
 533 349 533 349 539 142 c 0,60,61
 543 21 543 21 572 21 c 0,62,63
 592 21 592 21 631 67 c 0,64,65
 656 98 656 98 680 157 c 0,66,67
 698 200 698 200 718 274 c 0,68,69
 740 360 740 360 777 501 c 0,70,71
 815 642 815 642 827 696 c 0,72,73
 832 718 832 718 833 719 c 0,74,75
 834 723 834 723 841 753 c 0,76,77
 846 774 846 774 847 779 c 0,78,79
 853 817 853 817 879 826 c 2,80,-1
 964 843 l 1,81,82
 1022 860 1022 860 1022 849 c 0,83,84
 1021 824 1021 824 982 817 c 2,85,-1
 896 804 l 2,86,87
 873 798 873 798 868 773 c 0,0,1
EndSplineSet
Validated: 33
EndChar

StartChar: Q
Encoding: 81 81 82
Width: 802
GlyphClass: 2
Flags: W
LayerCount: 2
Fore
SplineSet
206 95 m 0,0,1
 127 1 127 1 291 4 c 1,2,-1
 299 -17 l 1,3,4
 92 -14 92 -14 185 103 c 0,5,6
 294 242 294 242 411 111 c 0,7,8
 496 16 496 16 570 1 c 0,9,10
 672 -20 672 -20 737 96 c 0,11,12
 758 133 758 133 762 132 c 0,13,14
 776 123 776 123 768 83 c 0,15,16
 756 24 756 24 724 8 c 0,17,18
 636 -37 636 -37 564 -25 c 0,19,20
 498 -14 498 -14 395 95 c 0,21,22
 295 201 295 201 206 95 c 0,0,1
192 -1 m 0,23,24
 75 42 75 42 51 201 c 0,25,26
 32 327 32 327 55 453 c 0,27,28
 85 619 85 619 166 708 c 0,29,30
 244 794 244 794 321 820 c 0,31,32
 357 832 357 832 378.5 833 c 128,-1,33
 400 834 400 834 417 824 c 0,34,35
 429 817 429 817 437 813 c 0,36,37
 446 808 446 808 452 799 c 256,38,39
 458 790 458 790 456 781.5 c 128,-1,40
 454 773 454 773 459 771 c 0,41,42
 481 765 481 765 497 752 c 1,43,44
 559 656 559 656 570 589 c 0,45,46
 593 454 593 454 566 288 c 0,47,48
 554 215 554 215 490 106 c 0,49,50
 445 30 445 30 401 10 c 0,51,52
 297 -39 297 -39 192 -1 c 0,23,24
378 30 m 0,53,54
 418 53 418 53 462 128 c 0,55,56
 508 209 508 209 525 289 c 0,57,58
 554 431 554 431 533 586 c 0,59,60
 525 646 525 646 467 740 c 0,61,62
 463 746 463 746 451 754 c 0,63,64
 439 763 439 763 439 768 c 0,65,66
 439 791 439 791 411 804 c 0,67,68
 388 815 388 815 367 811 c 0,69,70
 285 795 285 795 183 687 c 0,71,72
 127 628 127 628 92 442 c 0,73,74
 72 337 72 337 87 210 c 0,75,76
 105 61 105 61 204 20 c 0,77,78
 295 -17 295 -17 378 30 c 0,53,54
EndSplineSet
Validated: 37
EndChar

StartChar: R
Encoding: 82 82 83
Width: 782
GlyphClass: 2
Flags: W
LayerCount: 2
Fore
SplineSet
250 401 m 1,0,1
 349 499 349 499 498 434 c 0,2,3
 636 374 636 374 603 258 c 0,4,5
 557 100 557 100 635 50 c 0,6,7
 678 23 678 23 722 36 c 2,8,9
 722 36 722 36 743 42 c 0,10,11
 758 46 758 46 760 33.5 c 128,-1,12
 762 21 762 21 738 15 c 0,13,14
 657 -5 657 -5 612 26 c 0,15,16
 515 93 515 93 565 259 c 0,17,18
 594 355 594 355 474 408 c 0,19,20
 349 463 349 463 269 378 c 1,21,-1
 250 401 l 1,0,1
91 64 m 0,22,23
 32 137 32 137 32 155 c 0,24,25
 32 161 32 161 36 165 c 0,26,27
 42 169 42 169 45 165 c 2,28,-1
 118 74 l 1,29,30
 176 17 176 17 218 26 c 0,31,32
 253 34 253 34 268 92 c 0,33,34
 287 165 287 165 282 358 c 0,35,36
 279 501 279 501 242 597 c 0,37,38
 200 704 200 704 179 723 c 0,39,40
 177 725 177 725 146 703 c 0,41,42
 130 692 130 692 118 682 c 0,43,44
 106 674 106 674 94 657 c 256,45,46
 82 640 82 640 75 623 c 0,47,48
 57 574 57 574 81 527 c 0,49,50
 86 516 86 516 89 514 c 0,51,52
 91 513 91 513 100 513 c 0,53,54
 112 513 112 513 121 519 c 0,55,56
 130 526 130 526 134 522 c 0,57,58
 140 515 140 515 137 507 c 0,59,60
 134 498 134 498 122 491 c 0,61,62
 109 484 109 484 96 484 c 0,63,64
 58 484 58 484 39 535 c 0,65,66
 34 551 34 551 35 585 c 0,67,68
 37 620 37 620 45 637 c 0,69,70
 65 679 65 679 121 719 c 0,71,72
 178 759 178 759 252 785 c 0,73,74
 346 818 346 818 424 824 c 0,75,76
 443 825 443 825 482 823 c 0,77,78
 599 815 599 815 635 737 c 0,79,80
 661 683 661 683 661 640 c 0,81,82
 661 584 661 584 615 491 c 0,83,84
 587 437 587 437 528 405 c 0,85,86
 467 373 467 373 376 365 c 0,87,88
 302 358 302 358 254 377 c 0,89,90
 241 382 241 382 248 396 c 2,91,-1
 250 401 l 1,92,93
 314 386 314 386 374 392 c 0,94,95
 467 401 467 401 518 432 c 0,96,97
 565 461 565 461 589 514 c 0,98,99
 624 590 624 590 619 646 c 0,100,101
 615 699 615 699 601 723 c 0,102,103
 559 792 559 792 452 796 c 0,104,105
 410 796 410 796 374 789 c 0,106,107
 287 771 287 771 249 755 c 0,108,109
 233 748 233 748 222 744 c 0,110,111
 210 739 210 739 213 734 c 0,112,113
 237 694 237 694 267 615 c 0,114,115
 311 497 311 497 316 359 c 0,116,117
 324 182 324 182 303 76 c 0,118,119
 293 25 293 25 250 5 c 0,120,121
 242 1 242 1 222 -2 c 0,122,123
 153 -12 153 -12 91 64 c 0,22,23
EndSplineSet
Validated: 37
EndChar

StartChar: S
Encoding: 83 83 84
Width: 621
GlyphClass: 2
Flags: W
LayerCount: 2
Fore
SplineSet
255 438 m 0,0,1
 194 441 194 441 144 502 c 0,2,3
 98 560 98 560 97.5 621 c 128,-1,4
 97 682 97 682 111 715 c 0,5,6
 133 768 133 768 199 790 c 0,7,8
 259 809 259 809 294 808 c 0,9,10
 377 806 377 806 422 787 c 0,11,12
 482 762 482 762 508 725 c 0,13,14
 537 683 537 683 526 631 c 0,15,16
 524 619 524 619 522 617 c 0,17,18
 519 614 519 614 511 612 c 0,19,20
 497 610 497 610 489 613 c 0,21,22
 479 618 479 618 476 613 c 0,23,24
 471 604 471 604 477 597 c 0,25,26
 482 590 482 590 496 586 c 0,27,28
 509 582 509 582 523 585 c 0,29,30
 561 595 561 595 564 649 c 0,31,32
 567 708 567 708 534 746 c 0,33,34
 501 782 501 782 442 811 c 0,35,36
 387 837 387 837 293 835 c 0,37,38
 228 833 228 833 192 820 c 0,39,40
 91 781 91 781 69 720 c 0,41,42
 52 670 52 670 54 600 c 0,43,44
 57 536 57 536 116 469 c 0,45,46
 176 401 176 401 256 407 c 0,47,48
 345 412 345 412 346 412 c 0,49,50
 436 413 436 413 499 349 c 0,51,52
 576 269 576 269 533 140 c 0,53,54
 505 58 505 58 414 33 c 0,55,56
 361 18 361 18 296 18 c 0,57,58
 228 18 228 18 177 37 c 0,59,60
 95 67 95 67 74 155 c 0,61,62
 68 181 68 181 53 176 c 0,63,64
 36 170 36 170 49 121 c 0,65,66
 70 47 70 47 164 11 c 0,67,68
 224 -11 224 -11 293 -12 c 0,69,70
 363 -12 363 -12 423 1 c 0,71,72
 541 24 541 24 574 129 c 0,73,74
 620 273 620 273 528 378 c 0,75,76
 461 452 461 452 347 444 c 0,77,78
 260 438 260 438 255 438 c 0,0,1
EndSplineSet
Validated: 41
EndChar

StartChar: T
Encoding: 84 84 85
Width: 643
GlyphClass: 2
Flags: W
LayerCount: 2
Fore
SplineSet
121 52 m 0,0,1
 117 58 117 58 121 61 c 0,2,3
 135 73 135 73 142 62 c 0,4,5
 152 45 152 45 198 27 c 0,6,7
 226 16 226 16 244 21 c 0,8,9
 291 33 291 33 308 82 c 0,10,11
 402 359 402 359 397 728 c 1,12,-1
 395 775 l 1,13,14
 182 770 182 770 121 752 c 0,15,16
 92 743 92 743 79 727 c 0,17,18
 55 697 55 697 65 657 c 0,19,20
 68 645 68 645 92 628 c 0,21,22
 106 619 106 619 88 613 c 0,23,24
 83 611 83 611 72 618 c 0,25,26
 51 630 51 630 39 651 c 0,27,28
 13 695 13 695 63 742 c 0,29,30
 94 771 94 771 127 777 c 0,31,32
 186 789 186 789 394 797 c 1,33,-1
 393 808 l 2,34,35
 392 821 392 821 396 825 c 0,36,37
 399 829 399 829 410 831 c 0,38,39
 420 833 420 833 427 827 c 0,40,41
 430 824 430 824 430 809 c 2,42,-1
 430 802 l 1,43,44
 541 812 541 812 602 818 c 0,45,46
 671 825 671 825 685 806 c 0,47,48
 689 801 689 801 689.5 799.5 c 128,-1,49
 690 798 690 798 686 792 c 0,50,51
 683 788 683 788 679.5 786.5 c 128,-1,52
 676 785 676 785 663 785 c 0,53,54
 645 786 645 786 635 784 c 0,55,56
 603 781 603 781 603 783 c 0,57,58
 605 786 605 786 610 786 c 0,59,60
 616 786 616 786 627 789 c 0,61,62
 638 793 638 793 638 795 c 0,63,64
 638 799 638 799 620 800 c 0,65,66
 612 800 612 800 586 796 c 0,67,68
 542 789 542 789 431 779 c 1,69,-1
 433 732 l 1,70,71
 440 369 440 369 345 77 c 0,72,73
 319 -2 319 -2 249 -6 c 0,74,75
 164 -10 164 -10 121 52 c 0,0,1
EndSplineSet
Validated: 33
EndChar

StartChar: V
Encoding: 86 86 87
Width: 695
GlyphClass: 2
Flags: W
LayerCount: 2
Fore
SplineSet
519 140 m 0,0,1
 412 -14 412 -14 324 -15 c 0,2,3
 201 -19 201 -19 179 332 c 0,4,5
 159 641 159 641 159 714 c 0,6,7
 159 778 159 778 158 789 c 0,8,9
 158 792 158 792 143 783 c 0,10,11
 129 776 129 776 108 777 c 256,12,13
 87 778 87 778 81 783 c 0,14,15
 65 798 65 798 50 771 c 0,16,17
 45 762 45 762 40 762 c 256,18,19
 35 762 35 762 35 775 c 0,20,21
 35 787 35 787 42 795 c 0,22,23
 48 803 48 803 64 812 c 0,24,25
 78 819 78 819 89 816 c 0,26,27
 99 813 99 813 103 809 c 0,28,29
 106 805 106 805 115 803 c 0,30,31
 130 800 130 800 159 822 c 0,32,33
 172 832 172 832 181 833 c 0,34,35
 187 833 187 833 189 829 c 0,36,37
 190 826 190 826 191 824 c 0,38,39
 197 812 197 812 198 754 c 0,40,41
 200 504 200 504 215 338 c 0,42,43
 244 13 244 13 319 11 c 1,44,45
 402 16 402 16 488 167 c 0,46,47
 568 304 568 304 602 678 c 0,48,49
 606 724 606 724 609 798 c 0,50,51
 610 818 610 818 615 826 c 0,52,53
 620 832 620 832 632 828 c 0,54,55
 642 825 642 825 644 818 c 0,56,57
 645 815 645 815 648 786 c 0,58,59
 650 773 650 773 641 676 c 0,60,61
 602 259 602 259 519 140 c 0,0,1
EndSplineSet
Validated: 33
EndChar

StartChar: W
Encoding: 87 87 88
Width: 927
GlyphClass: 2
Flags: W
LayerCount: 2
Fore
SplineSet
400 154 m 0,0,1
 320 -17 320 -17 254 -15 c 1,2,3
 131 -19 131 -19 109 332 c 0,4,5
 89 641 89 641 89 714 c 0,6,7
 89 778 89 778 88 789 c 0,8,9
 88 792 88 792 73 783 c 0,10,11
 59 776 59 776 38 777 c 256,12,13
 17 778 17 778 11 783 c 0,14,15
 -5 798 -5 798 -20 771 c 0,16,17
 -25 762 -25 762 -30 762 c 256,18,19
 -35 762 -35 762 -35 775 c 0,20,21
 -35 787 -35 787 -28 795 c 0,22,23
 -22 803 -22 803 -6 812 c 0,24,25
 8 819 8 819 19 816 c 0,26,27
 29 813 29 813 33 809 c 0,28,29
 36 805 36 805 45 803 c 0,30,31
 60 800 60 800 89 822 c 0,32,33
 102 832 102 832 111 833 c 0,34,35
 117 833 117 833 119 829 c 0,36,37
 120 826 120 826 121 824 c 0,38,39
 127 812 127 812 128 754 c 0,40,41
 130 504 130 504 145 338 c 0,42,43
 174 13 174 13 249 11 c 0,44,45
 286 10 286 10 370 167 c 0,46,47
 462 338 462 338 456 545 c 0,48,49
 456 552 456 552 456 559 c 0,50,51
 454 612 454 612 453 666 c 0,52,53
 453 686 453 686 469 707 c 0,54,55
 474 713 474 713 486 709 c 0,56,57
 496 706 496 706 498 699 c 0,58,59
 504 680 504 680 502 667 c 0,60,61
 500 612 500 612 495 557 c 0,62,63
 493 532 493 532 492 508 c 0,64,65
 490 433 490 433 498 338 c 0,66,67
 527 13 527 13 602 11 c 0,68,69
 628 12 628 12 719 167 c 0,70,71
 801 306 801 306 833 678 c 0,72,73
 837 724 837 724 840 798 c 0,74,75
 841 818 841 818 846 826 c 0,76,77
 851 832 851 832 863 828 c 0,78,79
 873 825 873 825 875 818 c 0,80,81
 876 815 876 815 879 786 c 0,82,83
 881 773 881 773 872 676 c 0,84,85
 836 292 836 292 759 145 c 0,86,87
 676 -13 676 -13 614 -15 c 0,88,89
 465 -19 465 -19 462 314 c 1,90,91
 447 255 447 255 400 154 c 0,0,1
EndSplineSet
Validated: 33
EndChar

StartChar: Z
Encoding: 90 90 91
Width: 711
GlyphClass: 2
Flags: W
LayerCount: 2
Fore
SplineSet
216 148 m 0,0,1
 133 13 133 13 74 24 c 0,2,3
 9 35 9 35 67 192 c 0,4,5
 105 294 105 294 167 283 c 0,6,7
 217 274 217 274 244 195 c 1,8,9
 230 172 230 172 216 148 c 0,0,1
587 820 m 0,10,11
 556 853 556 853 500 817 c 0,12,13
 412 760 412 760 293 817 c 0,14,15
 157 883 157 883 39 748 c 0,16,17
 25 732 25 732 28 725 c 0,18,19
 36 709 36 709 46 720 c 0,20,21
 162 845 162 845 284 789 c 0,22,23
 408 733 408 733 506 789 c 0,24,25
 537 807 537 807 556 799 c 0,26,27
 561 797 561 797 546 750 c 0,28,29
 511 647 511 647 423 497 c 0,30,31
 297 283 297 283 264 228 c 1,32,33
 225 300 225 300 186 306 c 0,34,35
 82 323 82 323 38 197 c 0,36,37
 -26 13 -26 13 65 -5 c 0,38,39
 154 -23 154 -23 261 165 c 1,40,41
 286 92 286 92 319 59 c 0,42,43
 388 -10 388 -10 450 -9 c 0,44,45
 561 -7 561 -7 610 50 c 0,46,47
 664 114 664 114 668 132 c 0,48,49
 677 172 677 172 649 155 c 0,50,51
 635 147 635 147 611 97 c 0,52,53
 576 26 576 26 461 19 c 0,54,55
 391 15 391 15 343 74 c 0,56,57
 306 121 306 121 293 157 c 2,58,-1
 279 196 l 1,59,60
 298 220 298 220 447 477 c 0,61,62
 538 635 538 635 580 746 c 1,63,64
 609 797 609 797 587 820 c 0,10,11
EndSplineSet
Validated: 41
EndChar

StartChar: underscore
Encoding: 95 95 96
Width: 333
GlyphClass: 2
Flags: W
LayerCount: 2
Fore
SplineSet
173 25 m 1,0,1
 211 21 211 21 278 30 c 0,2,3
 292 32 292 32 290 21 c 0,4,5
 289 11 289 11 257 2 c 0,6,7
 229 -5 229 -5 176 -5 c 0,8,9
 82 -5 82 -5 66 -14 c 0,10,11
 43 -28 43 -28 45 -6 c 0,12,13
 48 19 48 19 59 20 c 0,14,15
 110 25 110 25 173 25 c 1,0,1
EndSplineSet
Validated: 33
EndChar

StartChar: d
Encoding: 100 100 101
Width: 510
GlyphClass: 2
Flags: W
LayerCount: 2
Fore
SplineSet
147 0 m 0,0,1
 114 6 114 6 88 30 c 0,2,3
 55 60 55 60 45 89 c 0,4,5
 40 103 40 103 38 117 c 128,-1,6
 36 131 36 131 35.5 155 c 128,-1,7
 35 179 35 179 35 184 c 0,8,9
 33 252 33 252 52 317 c 0,10,11
 87 436 87 436 135 482 c 0,12,13
 161 507 161 507 215 506 c 0,14,15
 267 505 267 505 315 474 c 2,16,17
 315 474 315 474 339 456 c 0,18,19
 343 454 343 454 343 455 c 0,20,21
 353 515 353 515 360 584 c 0,22,23
 383 799 383 799 384 805 c 0,24,25
 388 832 388 832 401 832 c 0,26,27
 423 831 423 831 422 820 c 0,28,29
 421 794 421 794 420 792 c 0,30,31
 382 443 382 443 382 439 c 0,32,33
 359 237 359 237 358 226 c 0,34,35
 351 159 351 159 353 130 c 0,36,37
 355 64 355 64 366 46 c 0,38,39
 381 21 381 21 439 36 c 0,40,41
 443 37 443 37 471 51.5 c 128,-1,42
 499 66 499 66 501 60 c 0,43,44
 503 52 503 52 488 40 c 0,45,46
 484 37 484 37 462 25 c 0,47,48
 448 17 448 17 440 13 c 0,49,50
 436 11 436 11 421 4 c 128,-1,51
 406 -3 406 -3 396 -5 c 128,-1,52
 386 -7 386 -7 375 -5 c 0,53,54
 357 0 357 0 343 12 c 0,55,56
 333 20 333 20 327 41 c 0,57,58
 321 64 321 64 318 104 c 1,59,60
 316 98 316 98 310.5 84 c 128,-1,61
 305 70 305 70 302 62 c 0,62,63
 287 30 287 30 261 12 c 0,64,65
 223 -13 223 -13 147 0 c 0,0,1
253 42 m 0,66,67
 262 49 262 49 269 60.5 c 128,-1,68
 276 72 276 72 279 79.5 c 128,-1,69
 282 87 282 87 287 103.5 c 128,-1,70
 292 120 292 120 293 125 c 0,71,72
 294 129 294 129 321 280 c 1,73,74
 334 389 334 389 334 390 c 0,75,76
 334 393 334 393 335 399 c 128,-1,77
 336 405 336 405 336 410 c 0,78,79
 335 412 335 412 331 416 c 0,80,81
 309 439 309 439 275 456.5 c 128,-1,82
 241 474 241 474 216 475 c 0,83,84
 174 476 174 476 150 445 c 0,85,86
 142 435 142 435 135.5 422.5 c 128,-1,87
 129 410 129 410 125.5 401.5 c 128,-1,88
 122 393 122 393 110 361 c 0,89,90
 94 319 94 319 84 256 c 0,91,92
 76 212 76 212 76 142 c 0,93,94
 76 140 76 140 77.5 132 c 128,-1,95
 79 124 79 124 79.5 121.5 c 128,-1,96
 80 119 80 119 81.5 112.5 c 128,-1,97
 83 106 83 106 84.5 102.5 c 128,-1,98
 86 99 86 99 88 93 c 128,-1,99
 90 87 90 87 92.5 83 c 128,-1,100
 95 79 95 79 98 73.5 c 128,-1,101
 101 68 101 68 106 63 c 0,102,103
 134 29 134 29 179 26 c 0,104,105
 228 22 228 22 253 42 c 0,66,67
EndSplineSet
Validated: 33
EndChar

StartChar: f
Encoding: 102 102 103
Width: 304
GlyphClass: 2
Flags: W
LayerCount: 2
Fore
SplineSet
-51 -152 m 0,0,1
 -69 -140 -69 -140 -64 -132 c 0,2,3
 -54 -115 -54 -115 -36 -126 c 0,4,5
 26 -160 26 -160 45 -165 c 0,6,7
 91 -179 91 -179 119 -161 c 0,8,9
 158 -138 158 -138 165 -28 c 1,10,11
 165 57 165 57 143 210 c 0,12,13
 115 416 115 416 112 467 c 1,14,15
 50 467 50 467 36 458 c 0,16,17
 13 445 13 445 15 467 c 0,18,19
 18 492 18 492 29 493 c 0,20,21
 90 499 90 499 109 499 c 1,22,23
 104 560 104 560 99 612 c 0,24,25
 90 699 90 699 82 764 c 0,26,27
 71 850 71 850 105 882 c 0,28,29
 141 918 141 918 207 893 c 0,30,31
 218 889 218 889 246 870 c 0,32,33
 278 850 278 850 264 836 c 0,34,35
 256 828 256 828 230 846 c 0,36,37
 208 862 208 862 197 867 c 0,38,39
 154 882 154 882 129 864 c 0,40,41
 104 845 104 845 113 767 c 0,42,43
 118 735 118 735 130 616 c 0,44,45
 135 565 135 565 143 498 c 1,46,47
 204 494 204 494 271 503 c 0,48,49
 285 505 285 505 283 494 c 0,50,51
 282 484 282 484 250 475 c 0,52,53
 222 468 222 468 146 468 c 1,54,55
 148 431 148 431 176 218 c 0,56,57
 199 47 199 47 199 -28 c 1,58,59
 191 -154 191 -154 136 -192 c 0,60,61
 98 -219 98 -219 35 -197 c 0,62,63
 -3 -184 -3 -184 -51 -152 c 0,0,1
EndSplineSet
Validated: 33
EndChar

StartChar: h
Encoding: 104 104 105
Width: 507
GlyphClass: 2
Flags: W
LayerCount: 2
Fore
SplineSet
271 507 m 0,0,1
 197 509 197 509 157 475 c 0,2,3
 138 459 138 459 135 456 c 0,4,5
 128 448 128 448 126 447 c 0,6,7
 120 446 120 446 126 484 c 0,8,9
 134 548 134 548 142 668 c 0,10,11
 151 794 151 794 155.5 813.5 c 128,-1,12
 160 833 160 833 134 831 c 0,13,14
 119 829 119 829 117 817 c 0,15,16
 113 786 113 786 86 460 c 1,17,-1
 76 359 l 2,18,19
 72 331 72 331 67 287 c 0,20,21
 47 92 47 92 41 64 c 0,22,23
 31 14 31 14 35 6 c 0,24,25
 46 -16 46 -16 64.5 -7 c 128,-1,26
 83 2 83 2 76 25 c 1,27,28
 106 298 106 298 117 354 c 0,29,30
 118 359 118 359 119 364 c 0,31,32
 135 404 135 404 158 431 c 128,-1,33
 181 458 181 458 208 466 c 0,34,35
 241 476 241 476 256 476 c 0,36,37
 308 476 308 476 340 444 c 0,38,39
 365 419 365 419 365 355 c 0,40,41
 365 302 365 302 362 276 c 0,42,43
 353 214 353 214 344 180 c 0,44,45
 330 130 330 130 328 100 c 0,46,47
 324 51 324 51 335 25 c 0,48,49
 344 3 344 3 362 -4 c 0,50,51
 378 -11 378 -11 402 -5 c 0,52,53
 461 9 461 9 484 44 c 0,54,55
 486 47 486 47 484 55 c 0,56,57
 481 66 481 66 443 47 c 0,58,59
 367 10 367 10 367 66 c 0,60,61
 367 73 367 73 367.5 81.5 c 128,-1,62
 368 90 368 90 368 95 c 0,63,64
 368 97 368 97 387 217 c 0,65,66
 392 251 392 251 396 296 c 0,67,68
 403 355 403 355 400 383 c 0,69,70
 395 438 395 438 359 471 c 0,71,72
 322 506 322 506 271 507 c 0,0,1
EndSplineSet
Validated: 41
EndChar

StartChar: i
Encoding: 105 105 106
Width: 243
GlyphClass: 2
Flags: W
LayerCount: 2
Fore
SplineSet
153 617 m 0,0,1
 159 588 159 588 129 578 c 0,2,3
 96 567 96 567 93 599 c 0,4,5
 89 637 89 637 118 647 c 0,6,7
 145 656 145 656 153 617 c 0,0,1
125 485 m 0,8,9
 128 503 128 503 94 502 c 0,10,11
 86 502 86 502 80 462 c 0,12,13
 51 233 51 233 45 107 c 0,14,15
 43 63 43 63 53 43 c 0,16,17
 78 -2 78 -2 119 -6 c 0,18,19
 146 -8 146 -8 189 16 c 0,20,21
 212 29 212 29 214 51 c 0,22,23
 215 69 215 69 178 45 c 0,24,25
 140 20 140 20 117 27 c 0,26,27
 97 33 97 33 85 61 c 0,28,29
 79 75 79 75 80 108 c 0,30,31
 86 277 86 277 121 458 c 0,32,33
 123 471 123 471 125 485 c 0,8,9
EndSplineSet
Validated: 41
EndChar

StartChar: j
Encoding: 106 106 107
Width: 276
GlyphClass: 2
Flags: W
LayerCount: 2
Fore
SplineSet
193 617 m 0,0,1
 199 588 199 588 169 578 c 0,2,3
 136 567 136 567 133 599 c 0,4,5
 129 637 129 637 158 647 c 0,6,7
 185 656 185 656 193 617 c 0,0,1
166 491 m 1,8,9
 162 506 162 506 134 505 c 0,10,11
 131 505 131 505 122 468 c 0,12,13
 102 381 102 381 96 296 c 0,14,15
 87 183 87 183 94 66 c 0,16,17
 98 4 98 4 132 -93 c 0,18,19
 145 -130 145 -130 136 -184 c 0,20,21
 131 -216 131 -216 106 -257 c 0,22,23
 71 -314 71 -314 22 -337 c 0,24,25
 -19 -357 -19 -357 -53 -340 c 0,26,27
 -115 -310 -115 -310 -125 -273 c 0,28,29
 -130 -255 -130 -255 -123 -233 c 0,30,31
 -114 -206 -114 -206 -126 -196 c 0,32,33
 -131 -192 -131 -192 -138 -199 c 0,34,35
 -152 -212 -152 -212 -157.5 -238 c 128,-1,36
 -163 -264 -163 -264 -156 -285 c 0,37,38
 -135 -347 -135 -347 -61 -369 c 0,39,40
 -17 -382 -17 -382 28 -369 c 0,41,42
 84 -352 84 -352 131 -286 c 0,43,44
 163 -241 163 -241 171 -186 c 0,45,46
 180 -120 180 -120 153 -40 c 0,47,48
 131 26 131 26 130 101 c 0,49,50
 129 215 129 215 137 298 c 0,51,52
 141 342 141 342 160 463 c 0,53,54
 162 473 162 473 166 491 c 1,8,9
EndSplineSet
Validated: 41
EndChar

StartChar: k
Encoding: 107 107 108
Width: 521
GlyphClass: 2
Flags: W
LayerCount: 2
Fore
SplineSet
139 781 m 0,0,1
 160 781 160 781 159 770 c 0,2,3
 143 657 143 657 143 645 c 2,4,5
 143 645 143 645 121 398 c 0,6,7
 114 327 114 327 110 294 c 1,8,9
 126 317 126 317 158 351 c 0,10,11
 175 369 175 369 182.5 376 c 128,-1,12
 190 383 190 383 203.5 392.5 c 128,-1,13
 217 402 217 402 239 415 c 0,14,15
 276 436 276 436 399 485 c 1,16,17
 415 473 415 473 412 458 c 0,18,19
 409 448 409 448 389 439 c 0,20,21
 372 432 372 432 342 420 c 0,22,23
 312 409 312 409 306 407 c 0,24,25
 273 394 273 394 219 361 c 0,26,27
 206 353 206 353 195.5 344.5 c 128,-1,28
 185 336 185 336 175.5 325.5 c 128,-1,29
 166 315 166 315 161 309 c 128,-1,30
 156 303 156 303 146.5 289 c 128,-1,31
 137 275 137 275 134 272 c 1,32,33
 139 273 139 273 161.5 280.5 c 128,-1,34
 184 288 184 288 205 288 c 0,35,36
 236 289 236 289 271.5 278.5 c 128,-1,37
 307 268 307 268 335 244 c 0,38,39
 351 230 351 230 357 218 c 0,40,41
 364 203 364 203 366 183 c 0,42,43
 372 109 372 109 362 62 c 0,44,45
 358 44 358 44 368.5 36 c 128,-1,46
 379 28 379 28 393 28 c 0,47,48
 401 29 401 29 421 34 c 0,49,50
 429 36 429 36 434 40 c 0,51,52
 443 45 443 45 450.5 50.5 c 128,-1,53
 458 56 458 56 465 60 c 128,-1,54
 472 64 472 64 478 62 c 128,-1,55
 484 60 484 60 486 50 c 1,56,57
 470 21 470 21 424 2 c 0,58,59
 368 -20 368 -20 344 11 c 0,60,61
 331 28 331 28 330 44 c 0,62,63
 329 55 329 55 334 89 c 0,64,65
 339 127 339 127 327 185 c 0,66,67
 320 220 320 220 286 237 c 0,68,69
 251 255 251 255 206 256 c 0,70,71
 172 256 172 256 142.5 236 c 128,-1,72
 113 216 113 216 103 187 c 0,73,74
 91 151 91 151 84 72 c 0,75,76
 83 62 83 62 82.5 45 c 128,-1,77
 82 28 82 28 80.5 19 c 128,-1,78
 79 10 79 10 74 1 c 0,79,80
 65 -12 65 -12 48 -7 c 0,81,82
 34 -3 34 -3 36 14 c 0,83,84
 45 85 45 85 46 90 c 0,85,86
 51 130 51 130 56 162 c 0,87,88
 66 241 66 241 76 349 c 0,89,90
 79 382 79 382 82 410 c 0,91,92
 111 712 111 712 120 764 c 0,93,94
 123 781 123 781 139 781 c 0,0,1
EndSplineSet
Validated: 33
EndChar

StartChar: l
Encoding: 108 108 109
Width: 256
GlyphClass: 2
Flags: W
LayerCount: 2
Fore
SplineSet
166 824 m 0,0,1
 169 837 169 837 149 838 c 0,2,3
 126 840 126 840 121 798 c 0,4,5
 96 626 96 626 96 626 c 1,6,7
 59 343 59 343 50 107 c 0,8,9
 48 57 48 57 56 41 c 0,10,11
 81 -5 81 -5 124 -6 c 0,12,13
 153 -7 153 -7 173 5 c 0,14,15
 203 24 203 24 217 37 c 0,16,17
 234 54 234 54 230 59.5 c 128,-1,18
 226 65 226 65 162 33 c 0,19,20
 138 22 138 22 122 27 c 0,21,22
 100 34 100 34 88 61 c 0,23,24
 85 68 85 68 85 108 c 0,25,26
 86 189 86 189 131 622 c 0,27,28
 142 730 142 730 166 824 c 0,0,1
EndSplineSet
Validated: 41
EndChar

StartChar: q
Encoding: 113 113 114
Width: 431
GlyphClass: 2
Flags: W
LayerCount: 2
Fore
SplineSet
345 453 m 1,0,1
 345 458 345 458 345 462 c 0,2,3
 345 502 345 502 366 504 c 0,4,5
 377 505 377 505 382 500 c 256,6,7
 387 495 387 495 387 489 c 2,8,-1
 385 456 l 1,9,-1
 332 10 l 2,10,11
 302 -262 302 -262 297 -344 c 1,12,13
 304 -367 304 -367 286 -376 c 0,14,15
 256 -391 256 -391 256 -364 c 0,16,17
 256 -343 256 -343 267 -253 c 0,18,19
 300 17 300 17 300 17 c 2,20,21
 300 31 300 31 301 32 c 1,22,23
 259 -20 259 -20 147 0 c 0,24,25
 114 6 114 6 84.5 33 c 128,-1,26
 55 60 55 60 47.5 81.5 c 128,-1,27
 40 103 40 103 37.5 120.5 c 128,-1,28
 35 138 35 138 34 195 c 128,-1,29
 33 252 33 252 52 317 c 0,30,31
 87 436 87 436 135 482 c 0,32,33
 161 507 161 507 214 506 c 0,34,35
 269 505 269 505 315 474 c 2,36,-1
 342 456 l 2,37,38
 345 454 345 454 345 453 c 1,0,1
308 108 m 0,39,40
 316 149 316 149 330 302 c 0,41,42
 336 370 336 370 342 412 c 1,43,44
 342 412 342 412 338 416 c 0,45,46
 316 439 316 439 278 456 c 0,47,48
 192 496 192 496 150 445 c 0,49,50
 136 428 136 428 129 411 c 0,51,52
 122 393 122 393 108 356 c 0,53,54
 76 271 76 271 76 142 c 0,55,56
 76 136 76 136 80 121 c 0,57,58
 83 106 83 106 84.5 102.5 c 128,-1,59
 86 99 86 99 88 93 c 128,-1,60
 90 87 90 87 92.5 83 c 128,-1,61
 95 79 95 79 98 73.5 c 128,-1,62
 101 68 101 68 106 63 c 0,63,64
 134 29 134 29 196 24 c 0,65,66
 281 17 281 17 308 108 c 0,39,40
EndSplineSet
Validated: 37
EndChar

StartChar: r
Encoding: 114 114 115
Width: 392
GlyphClass: 2
Flags: W
LayerCount: 2
Fore
SplineSet
314 470 m 1,0,1
 290 483 290 483 260 464 c 0,2,3
 205 429 205 429 163 464 c 0,4,5
 107 509 107 509 45 404 c 0,6,7
 22 365 22 365 14 395 c 0,8,9
 12 403 12 403 22 421 c 0,10,11
 97 549 97 549 176 487 c 0,12,13
 204 465 204 465 256 491 c 0,14,15
 314 520 314 520 352 492 c 1,16,17
 347 448 347 448 320 392 c 0,18,19
 273 288 273 288 232 203 c 0,20,21
 187 111 187 111 219 51 c 0,22,23
 227 34 227 34 245 27 c 0,24,25
 274 15 274 15 333 49 c 0,26,27
 356 62 356 62 361 62 c 0,28,29
 379 61 379 61 368 44 c 0,30,31
 338 -1 338 -1 290 -7 c 0,32,33
 262 -11 262 -11 230 0 c 0,34,35
 211 6 211 6 191 39 c 0,36,37
 155 98 155 98 200 210 c 0,38,39
 233 292 233 292 288 397 c 0,40,41
 314 448 314 448 314 470 c 1,0,1
EndSplineSet
Validated: 33
EndChar

StartChar: s
Encoding: 115 115 116
Width: 364
GlyphClass: 2
Flags: W
LayerCount: 2
Fore
SplineSet
82 388 m 0,0,1
 76 337 76 337 103 312 c 0,2,3
 138 281 138 281 186 279 c 0,4,5
 276 276 276 276 311 223 c 0,6,7
 337 183 337 183 329 126 c 0,8,9
 318 45 318 45 248 8 c 0,10,11
 189 -23 189 -23 108 3 c 0,12,13
 73 15 73 15 33 48 c 0,14,15
 16 62 16 62 20 68 c 0,16,17
 32 93 32 93 51 77 c 0,18,19
 111 29 111 29 176 29 c 0,20,21
 210 30 210 30 231 39 c 0,22,23
 280 61 280 61 290 126 c 0,24,25
 298 178 298 178 285 202 c 0,26,27
 260 248 260 248 189 250 c 0,28,29
 127 252 127 252 78 290 c 0,30,31
 37 322 37 322 48 388 c 0,32,33
 56 432 56 432 96 467 c 256,34,35
 136 502 136 502 199 504 c 0,36,37
 255 505 255 505 312 469 c 0,38,39
 344 449 344 449 330 434 c 0,40,41
 317 422 317 422 292 441 c 0,42,43
 253 470 253 470 200 471 c 128,-1,44
 147 472 147 472 116 447 c 0,45,46
 86 421 86 421 82 388 c 0,0,1
EndSplineSet
Validated: 33
EndChar

StartChar: t
Encoding: 116 116 117
Width: 308
GlyphClass: 2
Flags: W
LayerCount: 2
Fore
SplineSet
180 819 m 1,0,1
 176 835 176 835 154 834 c 0,2,3
 146 834 146 834 140 794 c 0,4,5
 116 630 116 630 115 618 c 0,6,7
 110 562 110 562 102 506 c 0,8,9
 101 499 101 499 101 499 c 1,10,11
 43 499 43 499 33 493 c 0,12,13
 21 486 21 486 19 467 c 0,14,15
 17 445 17 445 40 458 c 0,16,17
 54 467 54 467 98 467 c 1,18,19
 98 463 98 463 98 460 c 0,20,21
 84 321 84 321 78 252 c 0,22,23
 70 144 70 144 74 96 c 0,24,25
 76 64 76 64 85 42 c 0,26,27
 99 10 99 10 139 -2 c 0,28,29
 163 -9 163 -9 197 -4 c 0,30,31
 219 -1 219 -1 238 12 c 0,32,33
 273 37 273 37 277 41 c 0,34,35
 293 57 293 57 290 61 c 0,36,37
 285 69 285 69 256 54 c 0,38,39
 215 32 215 32 193 26 c 0,40,41
 172 21 172 21 150 27 c 0,42,43
 130 33 130 33 122 44 c 0,44,45
 111 59 111 59 107 104 c 0,46,47
 103 147 103 147 112 248 c 0,48,49
 122 358 122 358 133 468 c 1,50,51
 233 468 233 468 261 475 c 0,52,53
 293 484 293 484 294 494 c 0,54,55
 296 506 296 506 282 503 c 0,56,57
 258 498 258 498 136 498 c 0,58,59
 134 498 134 498 135 502 c 0,60,61
 138 510 138 510 148 617 c 0,62,63
 155 697 155 697 180 819 c 1,0,1
EndSplineSet
Validated: 41
EndChar

StartChar: v
Encoding: 118 118 119
Width: 424
GlyphClass: 2
Flags: W
LayerCount: 2
Fore
SplineSet
336 180 m 0,0,1
 377 290 377 290 389 432 c 1,2,3
 389 432 389 432 395 469 c 0,4,5
 397 484 397 484 390 491 c 0,6,7
 383 499 383 499 377 501 c 0,8,9
 368 505 368 505 361 502.5 c 128,-1,10
 354 500 354 500 353 496 c 0,11,12
 352 471 352 471 350 446 c 0,13,14
 339 295 339 295 301 198 c 0,15,16
 259 91 259 91 192 35 c 0,17,18
 184 28 184 28 170 36 c 0,19,20
 49 100 49 100 82 384 c 1,21,-1
 96 478 l 2,22,23
 98 490 98 490 99 492 c 0,24,25
 100 493 100 493 94 499 c 0,26,27
 89 504 89 504 77 504 c 0,28,29
 68 504 68 504 62 498 c 128,-1,30
 56 492 56 492 56 481 c 2,31,-1
 42 387 l 2,32,33
 -2 88 -2 88 165 2 c 0,34,35
 180 -6 180 -6 193 1 c 0,36,37
 292 60 292 60 336 180 c 0,0,1
EndSplineSet
Validated: 41
EndChar

StartChar: w
Encoding: 119 119 120
Width: 666
GlyphClass: 2
Flags: W
LayerCount: 2
Fore
SplineSet
575 180 m 0,0,1
 616 290 616 290 628 432 c 1,2,-1
 634 470 l 2,3,4
 636 485 636 485 629 492 c 0,5,6
 622 500 622 500 616 502 c 0,7,8
 607 506 607 506 600 504 c 0,9,10
 592 501 592 501 592 497 c 128,-1,11
 592 493 592 493 589 446 c 0,12,13
 579 315 579 315 540 198 c 0,14,15
 499 73 499 73 455 35 c 0,16,17
 446 27 446 27 433 36 c 0,18,19
 327 107 327 107 358 341 c 1,20,21
 358 341 358 341 374 439 c 0,22,23
 380 494 380 494 374 500 c 0,24,25
 370 504 370 504 357 505 c 0,26,27
 348 506 348 506 341 504 c 0,28,29
 337 502 337 502 335 497 c 0,30,31
 326 465 326 465 317 344 c 0,32,33
 308 267 308 267 281 198 c 0,34,35
 241 96 241 96 172 35 c 0,36,37
 162 26 162 26 150 36 c 0,38,39
 88 95 88 95 89 384 c 1,40,-1
 103 479 l 2,41,42
 105 492 105 492 106 493 c 128,-1,43
 107 494 107 494 101 500 c 0,44,45
 96 505 96 505 84 505 c 0,46,47
 75 505 75 505 69 499 c 0,48,49
 65 495 65 495 63 482 c 2,50,-1
 49 387 l 1,51,52
 24 88 24 88 145 2 c 0,53,54
 160 -9 160 -9 173 1 c 0,55,56
 258 65 258 65 316 180 c 0,57,58
 318 184 318 184 319 189 c 1,59,60
 342 46 342 46 428 2 c 0,61,62
 443 -6 443 -6 456 1 c 0,63,64
 520 31 520 31 575 180 c 0,0,1
EndSplineSet
Validated: 41
EndChar

StartChar: z
Encoding: 122 122 123
Width: 411
GlyphClass: 2
Flags: W
LayerCount: 2
Fore
SplineSet
90 141 m 0,0,1
 67 114 67 114 54 86 c 0,2,3
 37 48 37 48 41 7 c 1,4,5
 78 -22 78 -22 129 3 c 0,6,7
 177 27 177 27 210 6 c 0,8,9
 314 -55 314 -55 383 75 c 0,10,11
 393 93 393 93 392 101 c 0,12,13
 383 131 383 131 360 92 c 0,14,15
 298 -17 298 -17 223 29 c 0,16,17
 176 58 176 58 126 30 c 0,18,19
 100 16 100 16 72 29 c 0,20,21
 69 31 69 31 89 77 c 0,22,23
 96 94 96 94 115 118 c 0,24,25
 176 197 176 197 218 228 c 0,26,27
 263 261 263 261 323 346 c 0,28,29
 366 407 366 407 359 492 c 1,30,31
 321 521 321 521 270 495 c 0,32,33
 225 472 225 472 190 491 c 0,34,35
 110 534 110 534 36 459 c 0,36,37
 26 449 26 449 28 433 c 0,38,39
 26 413 26 413 59 442 c 0,40,41
 123 498 123 498 177 468 c 0,42,43
 228 441 228 441 274 468 c 0,44,45
 300 483 300 483 328 470 c 1,46,47
 328 402 328 402 301 360 c 0,48,49
 267 307 267 307 197 252 c 0,50,51
 160 223 160 223 90 141 c 0,0,1
EndSplineSet
Validated: 41
EndChar

StartChar: guillemotleft
Encoding: 171 171 162
Width: 459
GlyphClass: 2
Flags: W
LayerCount: 2
Fore
SplineSet
317.4453125 204.088867188 m 5,0,1
 342.672851562 168.647460938 342.672851562 168.647460938 392.137695312 128.95703125 c 4,2,3
 402.434570312 120.571289062 402.434570312 120.571289062 389.969726562 111.0390625 c 132,-1,4
 377.505859375 101.506835938 377.505859375 101.506835938 349.056640625 119.446289062 c 4,5,6
 324.830078125 135.723632812 324.830078125 135.723632812 289.047851562 175.321289062 c 4,7,8
 250.615234375 217.8515625 250.615234375 217.8515625 207.176757812 250.873046875 c 4,9,10
 193.455078125 261.303710938 193.455078125 261.303710938 199.844726562 272.53125 c 4,11,12
 202.525390625 275.327148438 202.525390625 275.327148438 214.01171875 281.883789062 c 4,13,14
 214.296875 282.255859375 214.296875 282.255859375 214.635742188 282.58984375 c 4,15,16
 251.127929688 319.137695312 251.127929688 319.137695312 300.240234375 359.557617188 c 5,17,18
 337.026367188 383.317382812 337.026367188 383.317382812 378.828125 430.750976562 c 4,19,20
 387.65625 440.623046875 387.65625 440.623046875 397 428.11328125 c 132,-1,21
 406.342773438 415.602539062 406.342773438 415.602539062 387.276367188 388.180664062 c 4,22,23
 370.020507812 364.85546875 370.020507812 364.85546875 328.704101562 330.852539062 c 4,24,25
 275.837890625 287.34375 275.837890625 287.34375 258.018554688 265.896484375 c 5,26,27
 286.6015625 238.22265625 286.6015625 238.22265625 317.4453125 204.088867188 c 5,0,1
164.895507812 204.088867188 m 5,28,29
 190.123046875 168.647460938 190.123046875 168.647460938 239.587890625 128.95703125 c 4,30,31
 249.884765625 120.571289062 249.884765625 120.571289062 237.419921875 111.0390625 c 132,-1,32
 224.955078125 101.506835938 224.955078125 101.506835938 196.506835938 119.446289062 c 4,33,34
 172.279296875 135.723632812 172.279296875 135.723632812 136.498046875 175.321289062 c 4,35,36
 98.06640625 217.8515625 98.06640625 217.8515625 54.626953125 250.873046875 c 4,37,38
 40.9052734375 261.303710938 40.9052734375 261.303710938 47.294921875 272.53125 c 4,39,40
 49.974609375 275.326171875 49.974609375 275.326171875 61.4609375 281.8828125 c 4,41,42
 61.7470703125 282.255859375 61.7470703125 282.255859375 62.0859375 282.58984375 c 4,43,44
 98.578125 319.137695312 98.578125 319.137695312 147.690429688 359.557617188 c 5,45,46
 184.4765625 383.317382812 184.4765625 383.317382812 226.278320312 430.750976562 c 4,47,48
 235.106445312 440.623046875 235.106445312 440.623046875 244.44921875 428.11328125 c 132,-1,49
 253.79296875 415.602539062 253.79296875 415.602539062 234.7265625 388.180664062 c 4,50,51
 217.470703125 364.85546875 217.470703125 364.85546875 176.154296875 330.852539062 c 4,52,53
 123.288085938 287.344726562 123.288085938 287.344726562 105.469726562 265.896484375 c 5,54,55
 134.051757812 238.22265625 134.051757812 238.22265625 164.895507812 204.088867188 c 5,28,29
EndSplineSet
EndChar

StartChar: uni00AD
Encoding: 173 173 163
Width: 333
GlyphClass: 2
Flags: W
LayerCount: 2
Fore
SplineSet
173 388 m 1,0,1
 216 383 216 383 278 393 c 0,2,3
 291 395 291 395 290 379.5 c 128,-1,4
 289 364 289 364 257 355 c 0,5,6
 229 348 229 348 176 348 c 0,7,8
 82 348 82 348 66 338 c 0,9,10
 43 325 43 325 45 347 c 0,11,12
 48 382 48 382 59 383 c 0,13,14
 110 388 110 388 173 388 c 1,0,1
EndSplineSet
Validated: 33
EndChar

StartChar: guillemotright
Encoding: 187 187 164
Width: 460
GlyphClass: 2
Flags: WO
LayerCount: 2
Fore
SplineSet
142.5546875 204.088867188 m 5,0,1
 117.327148438 168.647460938 117.327148438 168.647460938 67.8623046875 128.95703125 c 4,2,3
 57.5654296875 120.571289062 57.5654296875 120.571289062 70.0302734375 111.0390625 c 132,-1,4
 82.494140625 101.506835938 82.494140625 101.506835938 110.943359375 119.446289062 c 4,5,6
 135.169921875 135.723632812 135.169921875 135.723632812 170.952148438 175.321289062 c 4,7,8
 209.384765625 217.8515625 209.384765625 217.8515625 252.823242188 250.873046875 c 4,9,10
 266.544921875 261.303710938 266.544921875 261.303710938 260.155273438 272.53125 c 4,11,12
 257.474609375 275.327148438 257.474609375 275.327148438 245.98828125 281.883789062 c 4,13,14
 245.703125 282.255859375 245.703125 282.255859375 245.364257812 282.58984375 c 4,15,16
 208.872070312 319.137695312 208.872070312 319.137695312 159.759765625 359.557617188 c 5,17,18
 122.973632812 383.317382812 122.973632812 383.317382812 81.171875 430.750976562 c 4,19,20
 72.34375 440.623046875 72.34375 440.623046875 63 428.11328125 c 132,-1,21
 53.6572265625 415.602539062 53.6572265625 415.602539062 72.7236328125 388.180664062 c 4,22,23
 89.9794921875 364.85546875 89.9794921875 364.85546875 131.295898438 330.852539062 c 4,24,25
 184.162109375 287.34375 184.162109375 287.34375 201.981445312 265.896484375 c 5,26,27
 173.3984375 238.22265625 173.3984375 238.22265625 142.5546875 204.088867188 c 5,0,1
295.104492188 204.088867188 m 5,28,29
 269.876953125 168.647460938 269.876953125 168.647460938 220.412109375 128.95703125 c 4,30,31
 210.115234375 120.571289062 210.115234375 120.571289062 222.580078125 111.0390625 c 132,-1,32
 235.044921875 101.506835938 235.044921875 101.506835938 263.493164062 119.446289062 c 4,33,34
 287.720703125 135.723632812 287.720703125 135.723632812 323.501953125 175.321289062 c 4,35,36
 361.93359375 217.8515625 361.93359375 217.8515625 405.373046875 250.873046875 c 4,37,38
 419.094726562 261.303710938 419.094726562 261.303710938 412.705078125 272.53125 c 4,39,40
 410.025390625 275.326171875 410.025390625 275.326171875 398.5390625 281.8828125 c 4,41,42
 398.252929688 282.255859375 398.252929688 282.255859375 397.9140625 282.58984375 c 4,43,44
 361.421875 319.137695312 361.421875 319.137695312 312.309570312 359.557617188 c 5,45,46
 275.5234375 383.317382812 275.5234375 383.317382812 233.721679688 430.750976562 c 4,47,48
 224.893554688 440.623046875 224.893554688 440.623046875 215.55078125 428.11328125 c 132,-1,49
 206.20703125 415.602539062 206.20703125 415.602539062 225.2734375 388.180664062 c 4,50,51
 242.529296875 364.85546875 242.529296875 364.85546875 283.845703125 330.852539062 c 4,52,53
 336.711914062 287.344726562 336.711914062 287.344726562 354.530273438 265.896484375 c 5,54,55
 325.948242188 238.22265625 325.948242188 238.22265625 295.104492188 204.088867188 c 5,28,29
EndSplineSet
EndChar

StartChar: uni0401
Encoding: 1025 1025 165
Width: 578
GlyphClass: 2
Flags: W
LayerCount: 2
Fore
SplineSet
352 894 m 128,-1,1
 350 896 350 896 350 916 c 0,2,3
 350 933 350 933 354 939 c 128,-1,4
 358 945 358 945 370 947 c 0,5,6
 379 949 379 949 387 942 c 128,-1,7
 395 935 395 935 395 924 c 0,8,9
 395 912 395 912 385.5 902 c 128,-1,10
 376 892 376 892 365 892 c 128,-1,0
 354 892 354 892 352 894 c 128,-1,1
224 892 m 0,11,12
 206 900 206 900 206 927 c 0,13,14
 206 936 206 936 212 943 c 128,-1,15
 218 950 218 950 225 948 c 0,16,17
 231 946 231 946 235 946 c 128,-1,18
 239 946 239 946 247.5 933.5 c 128,-1,19
 256 921 256 921 256 915 c 0,20,21
 256 897 256 897 242 891 c 0,22,23
 235 888 235 888 234.5 888 c 128,-1,24
 234 888 234 888 224 892 c 0,11,12
238 0 m 0,25,26
 206 8 206 8 200.5 8 c 128,-1,27
 195 8 195 8 184 13 c 0,28,29
 173 19 173 19 149 30 c 0,30,31
 139 34 139 34 108 58 c 0,32,33
 80 80 80 80 60 112 c 128,-1,34
 40 144 40 144 33 174 c 0,35,36
 30 186 30 186 30 223.5 c 128,-1,37
 30 261 30 261 34 276 c 0,38,39
 45 325 45 325 70.5 372.5 c 128,-1,40
 96 420 96 420 127 445 c 0,41,42
 141 457 141 457 170.5 472 c 128,-1,43
 200 487 200 487 210 489 c 0,44,45
 214 490 214 490 220.5 491 c 128,-1,46
 227 492 227 492 231 492.5 c 128,-1,47
 235 493 235 493 235 494 c 0,48,49
 235 496 235 496 217 505 c 0,50,51
 155 535 155 535 139 596 c 0,52,53
 133 621 133 621 138 663 c 128,-1,54
 143 705 143 705 155 730 c 0,55,56
 193 804 193 804 268 819 c 0,57,58
 304 827 304 827 349.5 818 c 128,-1,59
 395 809 395 809 411 790 c 0,60,61
 421 777 421 777 414 770 c 0,62,63
 409 765 409 765 406.5 765.5 c 128,-1,64
 404 766 404 766 397 772 c 0,65,66
 387 780 387 780 336 792 c 0,67,68
 312 797 312 797 285 794 c 0,69,70
 262 791 262 791 248 783.5 c 128,-1,71
 234 776 234 776 220 760 c 0,72,73
 193 729 193 729 183 692 c 0,74,75
 174 664 174 664 175 646 c 0,76,77
 176 591 176 591 206 556.5 c 128,-1,78
 236 522 236 522 297 502 c 0,79,80
 347 486 347 486 347 481 c 0,81,82
 347 471 347 471 289 468 c 0,83,84
 244 467 244 467 235 464 c 0,85,86
 185 456 185 456 147.5 419 c 128,-1,87
 110 382 110 382 87 333 c 0,88,89
 77 312 77 312 75 293 c 0,90,91
 56 194 56 194 101 128 c 0,92,93
 105 121 105 121 109.5 115.5 c 128,-1,94
 114 110 114 110 118 105.5 c 128,-1,95
 122 101 122 101 128.5 96 c 128,-1,96
 135 91 135 91 139 87.5 c 128,-1,97
 143 84 143 84 151 79.5 c 128,-1,98
 159 75 159 75 162 73 c 128,-1,99
 165 71 165 71 174 66 c 128,-1,100
 183 61 183 61 185.5 60 c 128,-1,101
 188 59 188 59 197.5 54 c 128,-1,102
 207 49 207 49 209 48 c 0,103,104
 232 37 232 37 236 36 c 0,105,106
 250 33 250 33 265.5 29 c 128,-1,107
 281 25 281 25 312 25 c 128,-1,108
 343 25 343 25 365 31 c 0,109,110
 411 41 411 41 446 61 c 128,-1,111
 481 81 481 81 511 119 c 0,112,113
 531 145 531 145 537 131 c 0,114,115
 538 128 538 128 538 124 c 0,116,117
 538 102 538 102 506 67 c 0,118,119
 491 51 491 51 440.5 25 c 128,-1,120
 390 -1 390 -1 365 -3 c 0,121,122
 284 -12 284 -12 238 0 c 0,25,26
EndSplineSet
Validated: 33
EndChar

StartChar: uni0411
Encoding: 1041 1041 180
Width: 739
GlyphClass: 2
Flags: W
LayerCount: 2
Fore
SplineSet
388 -11 m 0,0,1
 387 -9 387 -9 366.5 -6.5 c 128,-1,2
 346 -4 346 -4 312 13 c 0,3,4
 262 38 262 38 250 63 c 0,5,6
 243 80 243 80 249 80 c 0,7,8
 250 80 250 80 251 79 c 0,9,10
 282 52 282 52 326 31 c 0,11,12
 355 17 355 17 375 13 c 0,13,14
 397 10 397 10 440 11 c 256,15,16
 483 12 483 12 495 18 c 0,17,18
 519 31 519 31 544 55 c 0,19,20
 570 79 570 79 582 101 c 0,21,22
 604 139 604 139 612 177 c 0,23,24
 623 226 623 226 626 264 c 0,25,26
 628 307 628 307 611 347 c 0,27,28
 600 373 600 373 574 406 c 0,29,30
 549 439 549 439 532 449 c 0,31,32
 521 455 521 455 494 465 c 0,33,34
 474 472 474 472 465 473 c 0,35,36
 456 475 456 475 424 475 c 0,37,38
 351 474 351 474 310 456 c 0,39,40
 290 447 290 447 277 439 c 0,41,42
 264 430 264 430 246 412 c 2,43,-1
 232 398 l 1,44,45
 231 379 231 379 228 317 c 0,46,47
 226 278 226 278 210 205 c 0,48,49
 195 131 195 131 183 107 c 0,50,51
 176 93 176 93 176 90 c 0,52,53
 176 86 176 86 147 30 c 0,54,55
 124 -15 124 -15 67 3 c 0,56,57
 59 5 59 5 49 16 c 0,58,59
 39 28 39 28 36 37 c 0,60,61
 34 45 34 45 36 79 c 0,62,63
 38 112 38 112 42 127 c 0,64,65
 54 179 54 179 80 230 c 0,66,67
 120 305 120 305 137 329 c 0,68,69
 169 376 169 376 180 393 c 256,70,71
 191 410 191 410 207 426 c 0,72,73
 208 427 208 427 211 487 c 0,74,75
 213 524 213 524 221 604 c 0,76,77
 226 657 226 657 231 710 c 2,78,-1
 236 763 l 1,79,-1
 218 761 l 2,80,81
 201 760 201 760 162 746 c 0,82,83
 141 738 141 738 120 721 c 0,84,85
 107 710 107 710 98 691 c 0,86,87
 89 673 89 673 96 668 c 0,88,89
 99 667 99 667 101.5 656.5 c 128,-1,90
 104 646 104 646 118 631 c 0,91,92
 135 614 135 614 124 608 c 0,93,94
 121 606 121 606 113 611.5 c 128,-1,95
 105 617 105 617 102 623 c 0,96,97
 98 630 98 630 87 646 c 0,98,99
 77 662 77 662 77 679 c 0,100,101
 77 710 77 710 105 736 c 0,102,103
 114 744 114 744 138 758 c 0,104,105
 164 772 164 772 168 771 c 0,106,107
 171 771 171 771 185 775 c 0,108,109
 213 782 213 782 217 783 c 2,110,-1
 239 786 l 1,111,-1
 238 802 l 2,112,113
 237 815 237 815 239 819 c 256,114,115
 241 823 241 823 251 825 c 256,116,117
 261 827 261 827 265 821 c 256,118,119
 269 815 269 815 267 803 c 2,120,-1
 266 791 l 1,121,-1
 287 791 l 2,122,123
 311 792 311 792 330 794 c 0,124,125
 353 796 353 796 415 797 c 0,126,127
 478 798 478 798 486 801 c 0,128,129
 496 804 496 804 541 806 c 0,130,131
 586 807 586 807 597 810 c 0,132,133
 610 812 610 812 652 812 c 0,134,135
 693 812 693 812 706 809 c 0,136,137
 722 806 722 806 728 800 c 0,138,139
 732 795 732 795 732.5 793.5 c 128,-1,140
 733 792 733 792 729 786 c 0,141,142
 726 781 726 781 722 780 c 0,143,144
 719 779 719 779 706 779 c 0,145,146
 688 780 688 780 678 778 c 0,147,148
 646 775 646 775 646 777 c 0,149,150
 648 780 648 780 654 780 c 256,151,152
 660 780 660 780 670 783 c 0,153,154
 683 788 683 788 681 789 c 0,155,156
 678 790 678 790 662 790 c 128,-1,157
 646 790 646 790 619 789 c 0,158,159
 594 787 594 787 575 785 c 0,160,161
 515 779 515 779 398 776 c 0,162,163
 340 774 340 774 321 772 c 0,164,165
 289 769 289 769 288 769 c 2,166,-1
 265 769 l 1,167,-1
 263 738 l 2,168,169
 262 727 262 727 259 681 c 0,170,171
 258 661 258 661 250 590 c 0,172,173
 242 508 242 508 241 490 c 0,174,175
 240 465 240 465 238 449 c 1,176,177
 243 453 243 453 248 456 c 0,178,179
 265 467 265 467 288 478 c 0,180,181
 320 493 320 493 333 496 c 0,182,183
 343 497 343 497 357 501 c 0,184,185
 386 509 386 509 445 504 c 0,186,187
 512 498 512 498 545 475 c 0,188,189
 560 465 560 465 575 450 c 0,190,191
 601 426 601 426 604 423 c 0,192,193
 616 407 616 407 629 388 c 0,194,195
 634 381 634 381 641 370 c 0,196,197
 652 355 652 355 657.5 335.5 c 128,-1,198
 663 316 663 316 665 277 c 0,199,200
 668 242 668 242 664 219 c 0,201,202
 659 189 659 189 653 172.5 c 128,-1,203
 647 156 647 156 631 124 c 0,204,205
 617 97 617 97 610 85 c 0,206,207
 602 74 602 74 585 56 c 0,208,209
 560 29 560 29 549 24 c 0,210,211
 539 18 539 18 526 9 c 0,212,213
 510 -2 510 -2 491 -6 c 0,214,215
 473 -10 473 -10 434 -11 c 0,216,217
 389 -12 389 -12 388 -11 c 0,0,1
129 46 m 0,218,219
 149 93 149 93 158 127 c 0,220,221
 163 144 163 144 165 149 c 0,222,223
 168 155 168 155 169 163 c 0,224,225
 171 171 171 171 175 189 c 0,226,227
 185 229 185 229 189 264 c 0,228,229
 198 335 198 335 198 350 c 0,230,231
 198 356 198 356 189 346 c 0,232,233
 188 345 188 345 186 343 c 0,234,235
 176 329 176 329 166 319 c 0,236,237
 159 309 159 309 149 296 c 0,238,239
 141 286 141 286 128 259 c 0,240,241
 115 231 115 231 98 196 c 0,242,243
 81 160 81 160 76 143.5 c 128,-1,244
 71 127 71 127 64 105 c 0,245,246
 51 58 51 58 66 35 c 0,247,248
 78 18 78 18 101 19 c 0,249,250
 119 20 119 20 129 46 c 0,218,219
EndSplineSet
Validated: 33
EndChar

StartChar: uni0412
Encoding: 1042 1042 181
Width: 701
GlyphClass: 2
Flags: W
LayerCount: 2
Fore
SplineSet
429 -16 m 0,0,1
 384 -11 384 -11 356 -3 c 128,-1,2
 328 5 328 5 297 21 c 0,3,4
 272 33 272 33 258 51.5 c 128,-1,5
 244 70 244 70 248 84 c 0,6,7
 252 100 252 100 277 72 c 0,8,9
 304 42 304 42 337 33 c 0,10,11
 352 28 352 28 355.5 25 c 128,-1,12
 359 22 359 22 386 18 c 0,13,14
 485 3 485 3 504 13 c 0,15,16
 512 17 512 17 519.5 18.5 c 128,-1,17
 527 20 527 20 527 23 c 128,-1,18
 527 26 527 26 546 44.5 c 128,-1,19
 565 63 565 63 567 69.5 c 128,-1,20
 569 76 569 76 578.5 89 c 128,-1,21
 588 102 588 102 599 125 c 128,-1,22
 610 148 610 148 614 178 c 0,23,24
 620 233 620 233 613 287 c 0,25,26
 609 318 609 318 604 332.5 c 128,-1,27
 599 347 599 347 585 369 c 0,28,29
 557 413 557 413 546 413 c 0,30,31
 541 413 541 413 529 422 c 0,32,33
 514 433 514 433 472 443 c 0,34,35
 458 446 458 446 401.5 447 c 128,-1,36
 345 448 345 448 332 445 c 0,37,38
 316 442 316 442 308 447 c 0,39,40
 287 461 287 461 335 474 c 0,41,42
 338 475 338 475 341 476 c 0,43,44
 363 481 363 481 387 484 c 128,-1,45
 411 487 411 487 430 498 c 0,46,47
 454 512 454 512 499 560 c 0,48,49
 516 578 516 578 523 613 c 0,50,51
 528 640 528 640 524.5 666.5 c 128,-1,52
 521 693 521 693 507 737 c 0,53,54
 500 761 500 761 485 771 c 128,-1,55
 470 781 470 781 439 783 c 0,56,57
 422 784 422 784 415.5 782.5 c 128,-1,58
 409 781 409 781 392 774 c 2,59,-1
 372 762 l 1,60,61
 373 762 373 762 370.5 759 c 128,-1,62
 368 756 368 756 363 750.5 c 128,-1,63
 358 745 358 745 352 738 c 0,64,65
 329 715 329 715 315 691 c 128,-1,66
 301 667 301 667 296 661 c 0,67,68
 290 655 290 655 277.5 632 c 128,-1,69
 265 609 265 609 261 595 c 0,70,71
 255 579 255 579 252 517 c 128,-1,72
 249 455 249 455 249 417 c 0,73,74
 249 355 249 355 242 306 c 0,75,76
 241 293 241 293 236.5 255 c 128,-1,77
 232 217 232 217 230 212.5 c 128,-1,78
 228 208 228 208 224 187.5 c 128,-1,79
 220 167 220 167 211.5 146.5 c 128,-1,80
 203 126 203 126 193 95 c 0,81,82
 174 36 174 36 153.5 11.5 c 128,-1,83
 133 -13 133 -13 104 -10 c 0,84,85
 70 -6 70 -6 44 21 c 0,86,87
 38 28 38 28 36.5 32.5 c 128,-1,88
 35 37 35 37 35 50 c 0,89,90
 35 76 35 76 40.5 104.5 c 128,-1,91
 46 133 46 133 53 145 c 0,92,93
 56 150 56 150 61 164 c 128,-1,94
 66 178 66 178 72 191.5 c 128,-1,95
 78 205 78 205 83 219 c 128,-1,96
 88 233 88 233 94.5 242.5 c 128,-1,97
 101 252 101 252 101 254.5 c 128,-1,98
 101 257 101 257 110 276 c 0,99,100
 134 326 134 326 134 333 c 0,101,102
 134 336 134 336 141 351 c 128,-1,103
 148 366 148 366 148 368 c 128,-1,104
 148 370 148 370 154 384 c 0,105,106
 165 406 165 406 182 455 c 0,107,108
 207 527 207 527 212 533 c 0,109,110
 222 545 222 545 222 606 c 0,111,112
 222 648 222 648 225 667 c 0,113,114
 227 682 227 682 224.5 733 c 128,-1,115
 222 784 222 784 219 787 c 0,116,117
 218 789 218 789 204 782 c 128,-1,118
 190 775 190 775 169 776 c 128,-1,119
 148 777 148 777 143 782 c 0,120,121
 127 796 127 796 112 769 c 0,122,123
 107 760 107 760 102 760 c 128,-1,124
 97 760 97 760 97 773 c 0,125,126
 97 785 97 785 103.5 793 c 128,-1,127
 110 801 110 801 126 810 c 0,128,129
 140 817 140 817 150.5 814 c 128,-1,130
 161 811 161 811 164 807 c 128,-1,131
 167 803 167 803 176 801 c 0,132,133
 191 799 191 799 220 821 c 0,134,135
 233 830 233 830 242 831 c 0,136,137
 248 831 248 831 250 829.5 c 128,-1,138
 252 828 252 828 256 821 c 0,139,140
 259 814 259 814 259.5 803 c 128,-1,141
 260 792 260 792 258 747 c 0,142,143
 252 634 252 634 259 642 c 0,144,145
 261 648 261 648 273 666.5 c 128,-1,146
 285 685 285 685 285 687.5 c 128,-1,147
 285 690 285 690 290 693 c 0,148,149
 295 698 295 698 311 723 c 0,150,151
 337 763 337 763 364 780.5 c 128,-1,152
 391 798 391 798 430 801 c 0,153,154
 527 809 527 809 559 718 c 0,155,156
 574 673 574 673 563 616 c 0,157,158
 557 588 557 588 551 576 c 0,159,160
 538 548 538 548 514 520 c 128,-1,161
 490 492 490 492 471 482 c 0,162,163
 459 476 459 476 466 474 c 0,164,165
 470 473 470 473 479 472 c 0,166,167
 496 470 496 470 526 459.5 c 128,-1,168
 556 449 556 449 567 441 c 0,169,170
 601 415 601 415 611 394 c 0,171,172
 618 378 618 378 627 365 c 0,173,174
 648 332 648 332 662 277 c 0,175,176
 666 257 666 257 666 241.5 c 128,-1,177
 666 226 666 226 660 189 c 0,178,179
 654 153 654 153 643 123 c 0,180,181
 625 74 625 74 595 41 c 0,182,183
 552 -6 552 -6 530 -9 c 0,184,185
 520 -11 520 -11 514 -14 c 0,186,187
 509 -17 509 -17 479 -17.5 c 128,-1,188
 449 -18 449 -18 429 -16 c 0,0,1
126 24 m 0,189,190
 140 36 140 36 155 75 c 0,191,192
 159 87 159 87 164 98 c 0,193,194
 183 141 183 141 197 256 c 0,195,196
 202 304 202 304 205 330 c 0,197,198
 220 445 220 445 215 483 c 0,199,200
 215 488 215 488 214 486 c 0,201,202
 210 481 210 481 196.5 440.5 c 128,-1,203
 183 400 183 400 175 381 c 0,204,205
 159 345 159 345 159 343 c 128,-1,206
 159 341 159 341 149 320 c 128,-1,207
 139 299 139 299 133.5 282.5 c 128,-1,208
 128 266 128 266 124 257 c 128,-1,209
 120 248 120 248 120 244.5 c 128,-1,210
 120 241 120 241 115 232.5 c 128,-1,211
 110 224 110 224 105.5 209.5 c 128,-1,212
 101 195 101 195 99 192 c 0,213,214
 95 187 95 187 87 164 c 128,-1,215
 79 141 79 141 77 132 c 0,216,217
 75 120 75 120 72 113 c 0,218,219
 68 106 68 106 65 78.5 c 128,-1,220
 62 51 62 51 63.5 44 c 128,-1,221
 65 37 65 37 82 27 c 0,222,223
 98 18 98 18 107.5 17.5 c 128,-1,224
 117 17 117 17 126 24 c 0,189,190
EndSplineSet
Validated: 33
EndChar

StartChar: uni0413
Encoding: 1043 1043 182
Width: 611
GlyphClass: 2
Flags: W
LayerCount: 2
Fore
SplineSet
37 52 m 0,0,1
 33 58 33 58 37 61 c 0,2,3
 41 66 41 66 46 65 c 0,4,5
 50 64 50 64 70 46 c 0,6,7
 88 31 88 31 93 27 c 0,8,9
 116 7 116 7 147 22 c 0,10,11
 180 37 180 37 195 82 c 0,12,13
 289 352 289 352 284 728 c 1,14,-1
 282 770 l 1,15,-1
 265 767 l 2,16,17
 207 759 207 759 167 727 c 0,18,19
 136 702 136 702 148 662 c 0,20,21
 151 652 151 652 165 637 c 0,22,23
 184 616 184 616 176 613 c 0,24,25
 166 609 166 609 148 628 c 0,26,27
 133 645 133 645 127 652 c 0,28,29
 96 693 96 693 146 742 c 0,30,31
 171 766 171 766 232 781 c 0,32,33
 249 786 249 786 264 789 c 2,34,-1
 281 792 l 1,35,-1
 280 808 l 2,36,37
 279 821 279 821 283 825 c 0,38,39
 286 829 286 829 297 831 c 0,40,41
 307 833 307 833 314 827 c 0,42,43
 317 824 317 824 317 809 c 2,44,-1
 317 797 l 1,45,-1
 330 797 l 2,46,47
 353 799 353 799 373 800 c 0,48,49
 457 803 457 803 459 804 c 0,50,51
 477 805 477 805 537 808 c 256,52,53
 597 811 597 811 627 815 c 0,54,55
 644 817 644 817 690 818 c 0,56,57
 762 820 762 820 773 806 c 0,58,59
 777 801 777 801 777.5 799.5 c 128,-1,60
 778 798 778 798 774 792 c 0,61,62
 771 788 771 788 767.5 786.5 c 128,-1,63
 764 785 764 785 751 785 c 0,64,65
 733 786 733 786 723 784 c 0,66,67
 691 781 691 781 691 783 c 0,68,69
 693 786 693 786 698 786 c 0,70,71
 704 786 704 786 715 789 c 0,72,73
 726 793 726 793 726 795 c 0,74,75
 726 796 726 796 710 796 c 0,76,77
 694 797 694 797 674 796 c 0,78,79
 654 796 654 796 645 794 c 0,80,81
 602 787 602 787 575 786 c 256,82,83
 548 785 548 785 438 782 c 0,84,85
 401 781 401 781 364 778 c 0,86,87
 334 775 334 775 332 775 c 2,88,-1
 318 774 l 1,89,-1
 320 732 l 1,90,91
 327 363 327 363 232 77 c 0,92,93
 206 0 206 0 136 -6 c 0,94,95
 80 -10 80 -10 37 52 c 0,0,1
EndSplineSet
Validated: 33
EndChar

StartChar: uni0416
Encoding: 1046 1046 185
Width: 1118
GlyphClass: 2
Flags: W
LayerCount: 2
Fore
SplineSet
791 -3 m 0,0,1
 772 3 772 3 755 16 c 0,2,3
 740 29 740 29 730 42 c 128,-1,4
 720 55 720 55 711 76 c 0,5,6
 703 97 703 97 699 106 c 0,7,8
 694 119 694 119 691 132 c 0,9,10
 683 190 683 190 681 255 c 0,11,12
 681 313 681 313 689 389 c 0,13,14
 697 454 697 454 697 454 c 1,15,-1
 699 481 l 1,16,-1
 691 464 l 2,17,18
 680 438 680 438 670 417 c 0,19,20
 615 293 615 293 596 204 c 0,21,22
 591 180 591 180 582 152 c 0,23,24
 581 146 581 146 577 134 c 0,25,26
 573 123 573 123 572 118 c 0,27,28
 570 101 570 101 568 97 c 0,29,30
 557 41 557 41 557 41 c 2,31,32
 556 33 556 33 554 23 c 0,33,34
 554 16 554 16 552 14 c 0,35,36
 551 13 551 13 546 13 c 0,37,38
 538 14 538 14 536 23 c 0,39,40
 536 32 536 32 538 70 c 0,41,42
 542 131 542 131 544 153 c 0,43,44
 549 194 549 194 555 249 c 0,45,46
 562 303 562 303 564 327 c 0,47,48
 571 387 571 387 578 491 c 256,49,50
 585 595 585 595 583 597 c 1,51,52
 578 580 578 580 566 542 c 0,53,54
 550 491 550 491 549 489 c 0,55,56
 521 428 521 428 507 393 c 0,57,58
 484 333 484 333 468 299 c 0,59,60
 458 278 458 278 444 245 c 0,61,62
 412 169 412 169 367 102 c 0,63,64
 350 76 350 76 343 67 c 0,65,66
 337 58 337 58 321 39 c 256,67,68
 305 20 305 20 292 13 c 0,69,70
 276 3 276 3 261 -1 c 0,71,72
 237 -9 237 -9 218 -9 c 0,73,74
 177 -7 177 -7 150 -2 c 0,75,76
 124 4 124 4 97 21 c 0,77,78
 80 32 80 32 70 36 c 0,79,80
 59 41 59 41 46 52 c 0,81,82
 34 62 34 62 35 65 c 0,83,84
 40 75 40 75 64 61 c 0,85,86
 104 40 104 40 119 33 c 0,87,88
 134 25 134 25 165 17 c 0,89,90
 196 8 196 8 223 10 c 0,91,92
 244 11 244 11 263 20 c 0,93,94
 278 27 278 27 294 42 c 0,95,96
 322 69 322 69 356 146 c 0,97,98
 379 196 379 196 385 218 c 0,99,100
 398 260 398 260 403 285 c 0,101,102
 418 360 418 360 417 361 c 0,103,104
 418 366 418 366 419 370 c 0,105,106
 478 762 478 762 393 798 c 1,107,108
 330 818 330 818 243 781 c 0,109,110
 228 775 228 775 203 759 c 0,111,112
 179 742 179 742 167 730 c 0,113,114
 149 710 149 710 142 710 c 0,115,116
 134 710 134 710 131 712 c 0,117,118
 129 714 129 714 129 724 c 0,119,120
 128 738 128 738 157 756 c 0,121,122
 348 874 348 874 427 808 c 0,123,124
 514 735 514 735 465 437 c 0,125,126
 449 339 449 339 424 247 c 1,127,128
 433 255 433 255 443 283 c 0,129,130
 451 303 451 303 466 338 c 0,131,132
 483 373 483 373 488 387 c 0,133,134
 528 473 528 473 531 484 c 0,135,136
 576 616 576 616 592 713 c 0,137,138
 593 714 593 714 594 722 c 0,139,140
 596 730 596 730 596 736 c 0,141,142
 598 742 598 742 600 751 c 256,143,144
 602 760 602 760 604 767 c 0,145,146
 607 773 607 773 610 780 c 0,147,148
 617 789 617 789 619 790 c 0,149,150
 627 793 627 793 630 783 c 0,151,152
 635 766 635 766 623 636 c 0,153,154
 618 574 618 574 607 428 c 0,155,156
 604 377 604 377 601 351 c 0,157,158
 597 315 597 315 596 305 c 2,159,-1
 594 271 l 1,160,-1
 613 316 l 2,161,162
 618 332 618 332 625 349 c 256,163,164
 632 366 632 366 641 386 c 0,165,166
 651 407 651 407 655 416 c 0,167,168
 662 432 662 432 677.5 468.5 c 128,-1,169
 693 505 693 505 702 526 c 0,170,171
 711 548 711 548 722 577 c 0,172,173
 733 607 733 607 739 630 c 0,174,175
 749 670 749 670 776 720 c 0,176,177
 800 765 800 765 840 797 c 0,178,179
 882 829 882 829 935 826 c 0,180,181
 972 824 972 824 999 811 c 256,182,183
 1026 798 1026 798 1058 773 c 0,184,185
 1076 759 1076 759 1080 754 c 256,186,187
 1084 749 1084 749 1083 743 c 0,188,189
 1082 733 1082 733 1077 732.5 c 128,-1,190
 1072 732 1072 732 1048 750 c 0,191,192
 1030 765 1030 765 1021 771 c 0,193,194
 1013 777 1013 777 998 785 c 0,195,196
 979 794 979 794 966 796 c 0,197,198
 933 802 933 802 904 793 c 0,199,200
 875 785 875 785 855 768 c 0,201,202
 836 751 836 751 819 725 c 0,203,204
 803 700 803 700 794 678 c 256,205,206
 785 656 785 656 778 632 c 0,207,208
 745 523 745 523 729 439 c 0,209,210
 714 355 714 355 715 264 c 0,211,212
 716 168 716 168 738 95 c 0,213,214
 761 22 761 22 804 17 c 0,215,216
 836 14 836 14 856 20 c 128,-1,217
 876 26 876 26 895 32 c 0,218,219
 915 39 915 39 928 44 c 0,220,221
 942 50 942 50 957 55 c 0,222,223
 968 58 968 58 979 61 c 0,224,225
 1020 68 1020 68 1020 52 c 0,226,227
 1020 47 1020 47 990 36 c 0,228,229
 971 28 971 28 951 21 c 2,230,-1
 928 14 l 2,231,232
 913 10 913 10 898 7 c 0,233,234
 850 -3 850 -3 829 -4 c 0,235,236
 798 -5 798 -5 791 -3 c 0,0,1
EndSplineSet
Validated: 33
EndChar

StartChar: uni0417
Encoding: 1047 1047 186
Width: 586
GlyphClass: 2
Flags: W
LayerCount: 2
Fore
SplineSet
340 -6 m 0,0,1
 297 -17 297 -17 202 -9 c 1,2,3
 78 8 78 8 40 75 c 0,4,5
 28 96 28 96 43 97 c 0,6,7
 59 97 59 97 69 81 c 1,8,9
 124 37 124 37 184 23 c 0,10,11
 263 6 263 6 345 29 c 0,12,13
 431 53 431 53 475 105 c 0,14,15
 524 163 524 163 522 256 c 0,16,17
 522 329 522 329 480 385 c 0,18,19
 448 426 448 426 412 443 c 0,20,21
 386 456 386 456 321 467 c 0,22,23
 304 470 304 470 289 471 c 0,24,25
 266 472 266 472 251 474 c 0,26,27
 237 477 237 477 236 482 c 0,28,29
 235 486 235 486 254 492 c 0,30,31
 272 498 272 498 299 506 c 0,32,33
 317 512 317 512 339 522 c 0,34,35
 377 541 377 541 404 581 c 0,36,37
 438 631 438 631 435 662 c 0,38,39
 428 736 428 736 386 773 c 0,40,41
 351 804 351 804 285 804 c 0,42,43
 209 805 209 805 186 772 c 0,44,45
 177 758 177 758 160 766 c 0,46,47
 145 773 145 773 160 787 c 0,48,49
 199 825 199 825 248 830 c 0,50,51
 312 836 312 836 351 824 c 0,52,53
 406 807 406 807 437 763 c 0,54,55
 465 723 465 723 468 664 c 1,56,57
 474 635 474 635 448 585 c 0,58,59
 430 550 430 550 393 522 c 0,60,61
 373 507 373 507 341 492 c 1,62,63
 353 488 353 488 365 485 c 0,64,65
 458 465 458 465 509 398 c 0,66,67
 570 318 570 318 558 201 c 0,68,69
 551 129 551 129 501 78 c 0,70,71
 446 23 446 23 340 -6 c 0,0,1
EndSplineSet
Validated: 33
EndChar

StartChar: uni0419
Encoding: 1049 1049 188
Width: 785
GlyphClass: 2
Flags: W
LayerCount: 2
Fore
SplineSet
511 39 m 0,0,1
 502 63 502 63 501 139 c 2,2,-1
 500 193 l 1,3,-1
 492 175 l 2,4,5
 487 167 487 167 478 146 c 0,6,7
 466 118 466 118 449 92 c 0,8,9
 424 55 424 55 412 45 c 0,10,11
 407 41 407 41 405 39 c 0,12,13
 402 36 402 36 398 32 c 0,14,15
 396 30 396 30 390 26 c 0,16,17
 387 24 387 24 379 20 c 0,18,19
 375 18 375 18 364 13 c 0,20,21
 352 7 352 7 341 3 c 0,22,23
 307 -9 307 -9 251 -14 c 0,24,25
 204 -18 204 -18 163 -7 c 0,26,27
 128 2 128 2 110 29 c 0,28,29
 92 55 92 55 88 95 c 0,30,31
 84 131 84 131 87 165 c 0,32,33
 90 198 90 198 97 229 c 0,34,35
 105 265 105 265 117 341 c 0,36,37
 121 367 121 367 137 438 c 0,38,39
 145 475 145 475 145 487 c 0,40,41
 145 489 145 489 150 526 c 0,42,43
 162 621 162 621 164 672 c 0,44,45
 165 706 165 706 163 751 c 0,46,47
 161 793 161 793 158 795 c 2,48,49
 158 795 158 795 143 789 c 0,50,51
 126 782 126 782 108 783 c 0,52,53
 86 784 86 784 81 789 c 0,54,55
 65 804 65 804 50 777 c 0,56,57
 45 768 45 768 40 768 c 128,-1,58
 35 768 35 768 35 781 c 0,59,60
 35 791 35 791 42 801 c 0,61,62
 49 810 49 810 64 818 c 0,63,64
 78 825 78 825 89 822 c 0,65,66
 98 819 98 819 102 815 c 128,-1,67
 106 811 106 811 115 809 c 0,68,69
 130 806 130 806 159 828 c 0,70,71
 171 837 171 837 181 839 c 0,72,73
 187 840 187 840 189 835 c 0,74,75
 190 833 190 833 191 830 c 0,76,77
 195 817 195 817 197 759 c 0,78,79
 199 696 199 696 196 626 c 0,80,81
 193 568 193 568 187 520 c 0,82,83
 180 464 180 464 166 403 c 0,84,85
 164 394 164 394 158 365 c 0,86,87
 153 344 153 344 149 326 c 0,88,89
 140 283 140 283 138 269 c 0,90,91
 137 260 137 260 131 236 c 0,92,93
 130 232 130 232 124 181 c 0,94,95
 119 139 119 139 119 109 c 0,96,97
 119 66 119 66 137 47 c 0,98,99
 161 22 161 22 194 16 c 0,100,101
 215 12 215 12 251 12 c 0,102,103
 292 12 292 12 317 23 c 0,104,105
 364 43 364 43 382 64 c 0,106,107
 415 102 415 102 425 119 c 0,108,109
 432 132 432 132 442 147 c 0,110,111
 455 167 455 167 478 238 c 0,112,113
 502 313 502 313 512 364 c 0,114,115
 532 460 532 460 547 568 c 0,116,117
 551 596 551 596 563 740 c 0,118,119
 565 768 565 768 567 795 c 0,120,121
 569 817 569 817 574.5 823 c 128,-1,122
 580 829 580 829 592 825 c 0,123,124
 602 822 602 822 604 815 c 128,-1,125
 606 808 606 808 608 783 c 0,126,127
 610 752 610 752 602 668 c 0,128,129
 594 586 594 586 580 491 c 0,130,131
 578 475 578 475 553 339 c 0,132,133
 540 269 540 269 539 245 c 0,134,135
 538 224 538 224 535 173 c 0,136,137
 532 118 532 118 533 96 c 0,138,139
 534 58 534 58 553 34 c 0,140,141
 568 15 568 15 585 11 c 0,142,143
 601 7 601 7 618 14 c 0,144,145
 621 15 621 15 652 35 c 0,146,147
 714 74 714 74 742 102 c 0,148,149
 767 126 767 126 768 110 c 0,150,151
 768 109 768 109 768 107 c 0,152,153
 768 98 768 98 744 75 c 0,154,155
 705 37 705 37 677 18 c 0,156,157
 656 4 656 4 615 -10 c 0,158,159
 591 -18 591 -18 574 -18 c 0,160,161
 555 -18 555 -18 536 0 c 0,162,163
 519 16 519 16 511 39 c 0,0,1
306 901 m 0,164,165
 285 931 285 931 298 938 c 0,166,167
 305 942 305 942 315.5 939.5 c 128,-1,168
 326 937 326 937 332 928 c 0,169,170
 347 904 347 904 376.5 901.5 c 128,-1,171
 406 899 406 899 428 913 c 0,172,173
 462 929 462 929 462 917 c 0,174,175
 462 911 462 911 449 900.5 c 128,-1,176
 436 890 436 890 417 881 c 0,177,178
 388 865 388 865 356.5 869.5 c 128,-1,179
 325 874 325 874 306 901 c 0,164,165
EndSplineSet
Validated: 33
EndChar

StartChar: uni041B
Encoding: 1051 1051 190
Width: 833
GlyphClass: 2
Flags: W
LayerCount: 2
Fore
SplineSet
663 606 m 0,0,1
 669 680 669 680 679 758 c 0,2,3
 683 789 683 789 682 800 c 0,4,5
 681 815 681 815 678 818 c 0,6,7
 604 891 604 891 574 708 c 0,8,9
 563 640 563 640 542 568 c 0,10,11
 487 386 487 386 412 268 c 0,12,13
 342 157 342 157 249 82 c 0,14,15
 182 27 182 27 131 20 c 0,16,17
 97 15 97 15 75 34 c 0,18,19
 50 55 50 55 43 85 c 0,20,21
 41 94 41 94 40 95 c 0,22,23
 39 97 39 97 34 97 c 0,24,25
 25 98 25 98 25 82 c 0,26,27
 25 44 25 44 53 18 c 0,28,29
 87 -14 87 -14 133 -10 c 0,30,31
 194 -5 194 -5 269 59 c 0,32,33
 365 140 365 140 435 251 c 0,34,35
 517 381 517 381 566 560 c 0,36,37
 586 631 586 631 598 702 c 0,38,39
 615 797 615 797 646 799 c 0,40,41
 652 799 652 799 651 794 c 0,42,43
 620 497 620 497 620 490 c 0,44,45
 620 462 620 462 609 314 c 0,46,47
 601 213 601 213 604 147 c 0,48,49
 606 103 606 103 612 74 c 0,50,51
 622 31 622 31 633 21 c 0,52,53
 648 6 648 6 669 2 c 0,54,55
 681 0 681 0 691 0 c 128,-1,56
 701 0 701 0 706.5 0.5 c 128,-1,57
 712 1 712 1 720 2.5 c 128,-1,58
 728 4 728 4 731 4 c 0,59,60
 746 4 746 4 778 12 c 0,61,62
 806 19 806 19 795 30 c 0,63,64
 794 31 794 31 756 24 c 0,65,66
 721 17 721 17 691 18 c 0,67,68
 663 19 663 19 655 38 c 0,69,70
 636 81 636 81 636 149 c 0,71,72
 637 294 637 294 663 606 c 0,0,1
EndSplineSet
Validated: 41
EndChar

StartChar: uni041F
Encoding: 1055 1055 194
Width: 778
GlyphClass: 2
Flags: W
LayerCount: 2
Fore
SplineSet
550 -5 m 0,0,1
 532 -3 532 -3 521 8 c 128,-1,2
 510 19 510 19 507.5 34 c 128,-1,3
 505 49 505 49 503.5 66 c 128,-1,4
 502 83 502 83 504 97 c 0,5,6
 505 386 505 386 525 641 c 0,7,8
 526 654 526 654 526.5 678 c 128,-1,9
 527 702 527 702 528.5 721.5 c 128,-1,10
 530 741 530 741 533 759 c 1,11,12
 544 773 544 773 556 770.5 c 128,-1,13
 568 768 568 768 571.5 755.5 c 128,-1,14
 575 743 575 743 570 728 c 0,15,16
 564 661 564 661 555.5 534.5 c 128,-1,17
 547 408 547 408 545 384 c 0,18,19
 543 339 543 339 542 232.5 c 128,-1,20
 541 126 541 126 538 68 c 1,21,22
 531 35 531 35 559 20 c 128,-1,23
 587 5 587 5 612 28 c 0,24,25
 617 32 617 32 637 50 c 128,-1,26
 657 68 657 68 672 74 c 128,-1,27
 687 80 687 80 705 74 c 1,28,29
 690 59 690 59 654.5 36 c 128,-1,30
 619 13 619 13 614 9 c 0,31,32
 577 -13 577 -13 550 -5 c 0,0,1
35 52 m 1,33,34
 37 59 37 59 40.5 61 c 128,-1,35
 44 63 44 63 49.5 60 c 128,-1,36
 55 57 55 57 59.5 53.5 c 128,-1,37
 64 50 64 50 72 43 c 0,38,39
 75 41 75 41 76 39.5 c 128,-1,40
 77 38 77 38 80 35.5 c 128,-1,41
 83 33 83 33 84.5 32 c 128,-1,42
 86 31 86 31 89 28.5 c 128,-1,43
 92 26 92 26 93.5 25.5 c 128,-1,44
 95 25 95 25 97.5 23 c 128,-1,45
 100 21 100 21 101.5 20.5 c 128,-1,46
 103 20 103 20 106 19 c 128,-1,47
 109 18 109 18 110 18.5 c 128,-1,48
 111 19 111 19 114 19 c 0,49,50
 123 15 123 15 131 14.5 c 128,-1,51
 139 14 139 14 145.5 17 c 128,-1,52
 152 20 152 20 157.5 23.5 c 128,-1,53
 163 27 163 27 168 34.5 c 128,-1,54
 173 42 173 42 176 47.5 c 128,-1,55
 179 53 179 53 182.5 63 c 128,-1,56
 186 73 186 73 188 78 c 128,-1,57
 190 83 190 83 193 93 c 0,58,59
 194 97 194 97 195 98 c 0,60,61
 219 167 219 167 232 254.5 c 128,-1,62
 245 342 245 342 248 398 c 128,-1,63
 251 454 251 454 253 559 c 0,64,65
 260 721 260 721 261 769 c 1,66,67
 140 753 140 753 113 697 c 0,68,69
 103 683 103 683 113.5 666 c 128,-1,70
 124 649 124 649 135.5 634.5 c 128,-1,71
 147 620 147 620 138 613 c 1,72,73
 109 628 109 628 96.5 660 c 128,-1,74
 84 692 84 692 102 721 c 0,75,76
 135 768 135 768 239 787 c 1,77,78
 272 788 272 788 263 814 c 1,79,80
 269 840 269 840 283.5 828.5 c 128,-1,81
 298 817 298 817 294 800 c 0,82,83
 294 798 294 798 293 797 c 1,84,85
 320 797 320 797 367.5 800.5 c 128,-1,86
 415 804 415 804 443 805 c 0,87,88
 473 806 473 806 561.5 812.5 c 128,-1,89
 650 819 650 819 698 818 c 1,90,91
 720 825 720 825 737 806 c 0,92,93
 751 792 751 792 734 787 c 0,94,95
 728 785 728 785 719 785 c 0,96,97
 714 787 714 787 698.5 785 c 128,-1,98
 683 783 683 783 674 781.5 c 128,-1,99
 665 780 665 780 662 785 c 1,100,101
 682 785 682 785 690 793 c 0,102,103
 692 796 692 796 687 797 c 0,104,105
 683 797 683 797 674 797 c 0,106,107
 643 798 643 798 583 790.5 c 128,-1,108
 523 783 523 783 493 784 c 0,109,110
 478 783 478 783 449 782.5 c 128,-1,111
 420 782 420 782 404.5 781.5 c 128,-1,112
 389 781 389 781 365 779.5 c 128,-1,113
 341 778 341 778 319 775 c 0,114,115
 317 775 317 775 311 775 c 128,-1,116
 305 775 305 775 302 775 c 128,-1,117
 299 775 299 775 295 773.5 c 128,-1,118
 291 772 291 772 291.5 768.5 c 128,-1,119
 292 765 292 765 292 759 c 0,120,121
 292 713 292 713 287 625.5 c 128,-1,122
 282 538 282 538 282 498 c 0,123,124
 277 249 277 249 209 51 c 0,125,126
 200 16 200 16 165 0.5 c 128,-1,127
 130 -15 130 -15 98 1 c 0,128,129
 69 13 69 13 35 52 c 1,33,34
EndSplineSet
Validated: 33
EndChar

StartChar: uni0422
Encoding: 1058 1058 197
Width: 855
GlyphClass: 2
Flags: W
LayerCount: 2
Fore
SplineSet
628 -6 m 0,0,1
 593 1 593 1 585 38 c 0,2,3
 582 51 582 51 582 125 c 128,-1,4
 582 199 582 199 584.5 255 c 128,-1,5
 587 311 587 311 589.5 413 c 128,-1,6
 592 515 592 515 595 537 c 0,7,8
 603 606 603 606 604 676 c 0,9,10
 605 726 605 726 607 727.5 c 128,-1,11
 609 729 609 729 609 737.5 c 128,-1,12
 609 746 609 746 611.5 749.5 c 128,-1,13
 614 753 614 753 623 756 c 0,14,15
 640 761 640 761 644.5 755.5 c 128,-1,16
 649 750 649 750 648 724 c 0,17,18
 647 697 647 697 644.5 686 c 128,-1,19
 642 675 642 675 640.5 640 c 128,-1,20
 639 605 639 605 636.5 577.5 c 128,-1,21
 634 550 634 550 631 497 c 128,-1,22
 628 444 628 444 625 422 c 0,23,24
 621 388 621 388 619 149 c 2,25,-1
 618 39 l 1,26,-1
 627 27 l 2,27,28
 632 19 632 19 635.5 17.5 c 128,-1,29
 639 16 639 16 648 16 c 0,30,31
 677 16 677 16 692 29 c 0,32,33
 697 34 697 34 705 37.5 c 128,-1,34
 713 41 713 41 730 57 c 0,35,36
 753 78 753 78 771 78 c 0,37,38
 786 78 786 78 777 69 c 0,39,40
 774 66 774 66 766 62 c 0,41,42
 754 55 754 55 735 41 c 0,43,44
 688 5 688 5 683 5 c 0,45,46
 679 5 679 5 674 1 c 0,47,48
 672 -1 672 -1 657.5 -5 c 128,-1,49
 643 -9 643 -9 639 -9 c 0,50,51
 637 -8 637 -8 628 -6 c 0,0,1
88 4 m 0,52,53
 87 7 87 7 79 8.5 c 128,-1,54
 71 10 71 10 54 22 c 0,55,56
 41 33 41 33 37.5 40.5 c 128,-1,57
 34 48 34 48 35 65 c 0,58,59
 36 73 36 73 37 75 c 128,-1,60
 38 77 38 77 43 77 c 128,-1,61
 48 77 48 77 49 75 c 128,-1,62
 50 73 50 73 50.5 64 c 128,-1,63
 51 55 51 55 53.5 51.5 c 128,-1,64
 56 48 56 48 65 40 c 0,65,66
 91 18 91 18 105 28 c 0,67,68
 113 34 113 34 129 69 c 128,-1,69
 145 104 145 104 153 131 c 0,70,71
 158 148 158 148 160 153 c 128,-1,72
 162 158 162 158 164 166.5 c 128,-1,73
 166 175 166 175 170 192.5 c 128,-1,74
 174 210 174 210 177 222 c 0,75,76
 197 343 197 343 199 466 c 0,77,78
 201 558 201 558 203.5 604.5 c 128,-1,79
 206 651 206 651 207 706 c 2,80,-1
 209 761 l 1,81,-1
 196 759 l 2,82,83
 177 757 177 757 141 744 c 0,84,85
 120 736 120 736 100 720 c 0,86,87
 86 708 86 708 77.5 689.5 c 128,-1,88
 69 671 69 671 76 667 c 0,89,90
 78 666 78 666 81 655.5 c 128,-1,91
 84 645 84 645 97 631 c 0,92,93
 115 612 115 612 108 607 c 0,94,95
 105 605 105 605 95 611 c 128,-1,96
 85 617 85 617 81 623 c 0,97,98
 77 630 77 630 67 645.5 c 128,-1,99
 57 661 57 661 57 678 c 0,100,101
 57 708 57 708 84 734 c 0,102,103
 93 742 93 742 117 755.5 c 128,-1,104
 141 769 141 769 147 769 c 0,105,106
 150 769 150 769 164 773 c 128,-1,107
 178 777 178 777 195 781 c 2,108,-1
 212 784 l 1,109,-1
 211 800 l 2,110,111
 210 813 210 813 212 816.5 c 128,-1,112
 214 820 214 820 224 822 c 128,-1,113
 234 824 234 824 238 818.5 c 128,-1,114
 242 813 242 813 240 801 c 2,115,-1
 239 788 l 1,116,-1
 258 788 l 2,117,118
 308 791 308 791 654 804 c 0,119,120
 675 805 675 805 697 806 c 128,-1,121
 719 807 719 807 730 807.5 c 128,-1,122
 741 808 741 808 752.5 808 c 128,-1,123
 764 808 764 808 769.5 808.5 c 128,-1,124
 775 809 775 809 780.5 808.5 c 128,-1,125
 786 808 786 808 788.5 808 c 128,-1,126
 791 808 791 808 795 807 c 0,127,128
 810 803 810 803 816 797 c 0,129,130
 820 793 820 793 820.5 791 c 128,-1,131
 821 789 821 789 817 784 c 0,132,133
 814 779 814 779 810.5 778 c 128,-1,134
 807 777 807 777 794 777 c 0,135,136
 776 777 776 777 767 776 c 0,137,138
 735 773 735 773 735 774 c 0,139,140
 737 777 737 777 742 777 c 0,141,142
 748 777 748 777 758.5 780.5 c 128,-1,143
 769 784 769 784 769 787 c 1,144,145
 685 782 685 782 513 777 c 128,-1,146
 341 772 341 772 266 768 c 2,147,-1
 240 766 l 1,148,-1
 240 725 l 2,149,150
 239 684 239 684 236 648.5 c 128,-1,151
 233 613 233 613 232 564 c 128,-1,152
 231 515 231 515 228 465 c 0,153,154
 224 303 224 303 205 209 c 0,155,156
 191 141 191 141 178 112 c 0,157,158
 171 97 171 97 171 94 c 0,159,160
 171 90 171 90 142 35 c 0,161,162
 135 21 135 21 128 15 c 0,163,164
 117 7 117 7 104 3.5 c 128,-1,165
 91 0 91 0 88 4 c 0,52,53
376 8 m 0,166,167
 373 11 373 11 375.5 19.5 c 128,-1,168
 378 28 378 28 378 42.5 c 128,-1,169
 378 57 378 57 380 75 c 0,170,171
 383 95 383 95 387 181.5 c 128,-1,172
 391 268 391 268 391 308 c 0,173,174
 391 361 391 361 392.5 461 c 128,-1,175
 394 561 394 561 395 563 c 0,176,177
 397 565 397 565 398.5 619 c 128,-1,178
 400 673 400 673 402.5 694.5 c 128,-1,179
 405 716 405 716 405 731 c 0,180,181
 405 758 405 758 422 758 c 0,182,183
 431 758 431 758 436 753 c 0,184,185
 439 749 439 749 439.5 742.5 c 128,-1,186
 440 736 440 736 438 710 c 0,187,188
 435 673 435 673 432 569.5 c 128,-1,189
 429 466 429 466 425 421 c 128,-1,190
 421 376 421 376 421 340.5 c 128,-1,191
 421 305 421 305 418.5 257.5 c 128,-1,192
 416 210 416 210 413 144 c 0,193,194
 410 68 410 68 407 42.5 c 128,-1,195
 404 17 404 17 399 11 c 0,196,197
 394 6 394 6 387 5 c 128,-1,198
 380 4 380 4 376 8 c 0,166,167
EndSplineSet
Validated: 33
EndChar

StartChar: uni0424
Encoding: 1060 1060 199
Width: 747
GlyphClass: 2
Flags: W
LayerCount: 2
Fore
SplineSet
267 0 m 0,0,1
 230 13 230 13 190 63 c 0,2,3
 170 87 170 87 151 116.5 c 128,-1,4
 132 146 132 146 132 152 c 256,5,6
 132 158 132 158 136 161.5 c 128,-1,7
 140 165 140 165 144.5 162 c 128,-1,8
 149 159 149 159 160 142 c 0,9,10
 174 118 174 118 184 106 c 128,-1,11
 194 94 194 94 216 73 c 0,12,13
 257 33 257 33 279 26 c 0,14,15
 292 22 292 22 314 26 c 0,16,17
 330 28 330 28 335 30.5 c 128,-1,18
 340 33 340 33 347 41 c 0,19,20
 365 61 365 61 372 89 c 0,21,22
 375 105 375 105 378 108 c 0,23,24
 384 116 384 116 386 165 c 128,-1,25
 388 214 388 214 384 253 c 0,26,27
 381 279 381 279 373.5 330 c 128,-1,28
 366 381 366 381 364 384 c 0,29,30
 363 386 363 386 361 412.5 c 128,-1,31
 359 439 359 439 358.5 440.5 c 128,-1,32
 358 442 358 442 353 474 c 0,33,34
 338 587 338 587 327 636 c 0,35,36
 322 662 322 662 322 675 c 256,37,38
 322 688 322 688 315 715 c 128,-1,39
 308 742 308 742 302.5 753 c 128,-1,40
 297 764 297 764 275 774 c 0,41,42
 258 783 258 783 235 789 c 128,-1,43
 212 795 212 795 208 792 c 0,44,45
 205 790 205 790 183 787 c 0,46,47
 143 781 143 781 119 761 c 0,48,49
 98 743 98 743 91 730.5 c 128,-1,50
 84 718 84 718 78 686 c 0,51,52
 72 657 72 657 70 647 c 0,53,54
 67 638 67 638 67 610 c 128,-1,55
 67 582 67 582 69.5 571 c 128,-1,56
 72 560 72 560 75 536 c 0,57,58
 83 481 83 481 92 458 c 0,59,60
 100 440 100 440 129 412 c 0,61,62
 147 394 147 394 162 388.5 c 128,-1,63
 177 383 177 383 207 383 c 0,64,65
 264 383 264 383 303 409 c 0,66,67
 315 417 315 417 317 413 c 0,68,69
 322 406 322 406 311 393 c 0,70,71
 297 378 297 378 263 367 c 128,-1,72
 229 356 229 356 195 356 c 0,73,74
 170 356 170 356 150.5 364.5 c 128,-1,75
 131 373 131 373 120 382 c 0,76,77
 104 395 104 395 87.5 413.5 c 128,-1,78
 71 432 71 432 67 440 c 0,79,80
 61 452 61 452 55 462 c 0,81,82
 48 474 48 474 38 523 c 0,83,84
 32 550 32 550 37 644 c 0,85,86
 41 704 41 704 53 717 c 0,87,88
 57 722 57 722 63 735 c 128,-1,89
 69 748 69 748 77.5 758.5 c 128,-1,90
 86 769 86 769 86 771 c 128,-1,91
 86 773 86 773 105 789 c 128,-1,92
 124 805 124 805 142 810 c 0,93,94
 181 821 181 821 215 821 c 2,95,-1
 246 820 l 1,96,-1
 275 806 l 2,97,98
 316 786 316 786 329.5 762 c 128,-1,99
 343 738 343 738 358 661 c 0,100,101
 359 654 359 654 365 627 c 0,102,103
 375 576 375 576 383 514 c 0,104,105
 387 476 387 476 390 464 c 128,-1,106
 393 452 393 452 401 439 c 0,107,108
 410 423 410 423 425 408.5 c 128,-1,109
 440 394 440 394 446 395 c 0,110,111
 514 398 514 398 531 404 c 0,112,113
 546 409 546 409 571.5 424 c 128,-1,114
 597 439 597 439 607 449 c 0,115,116
 632 474 632 474 642 505 c 0,117,118
 645 514 645 514 647.5 519.5 c 128,-1,119
 650 525 650 525 657 548 c 0,120,121
 668 586 668 586 665 646 c 128,-1,122
 662 706 662 706 647 724 c 0,123,124
 643 729 643 729 639 736.5 c 128,-1,125
 635 744 635 744 621.5 755.5 c 128,-1,126
 608 767 608 767 605 770 c 0,127,128
 602 774 602 774 574.5 783 c 128,-1,129
 547 792 547 792 537 792 c 0,130,131
 524 792 524 792 515.5 795 c 128,-1,132
 507 798 507 798 473 795 c 0,133,134
 438 792 438 792 423.5 785 c 128,-1,135
 409 778 409 778 386 754 c 0,136,137
 362 730 362 730 358 733 c 0,138,139
 352 739 352 739 357 762 c 0,140,141
 364 786 364 786 401 804 c 0,142,143
 421 814 421 814 443.5 816.5 c 128,-1,144
 466 819 466 819 510 818 c 0,145,146
 571 816 571 816 603 802 c 0,147,148
 610 798 610 798 627 790 c 0,149,150
 664 773 664 773 687 724 c 0,151,152
 703 690 703 690 707.5 672.5 c 128,-1,153
 712 655 712 655 712 628 c 0,154,155
 712 597 712 597 702.5 566 c 128,-1,156
 693 535 693 535 686.5 522 c 128,-1,157
 680 509 680 509 667 482 c 0,158,159
 653 454 653 454 633 434.5 c 128,-1,160
 613 415 613 415 579 397 c 0,161,162
 545 378 545 378 529.5 374.5 c 128,-1,163
 514 371 514 371 474 370 c 0,164,165
 444 370 444 370 434.5 373 c 128,-1,166
 425 376 425 376 410 390 c 2,167,-1
 399 402 l 1,168,-1
 399 389 l 2,169,170
 400 377 400 377 406 338 c 0,171,172
 422 220 422 220 414 152 c 0,173,174
 408 104 408 104 397.5 74.5 c 128,-1,175
 387 45 387 45 368 23 c 0,176,177
 355 9 355 9 346.5 5 c 128,-1,178
 338 1 338 1 319 -2 c 0,179,180
 286 -7 286 -7 267 0 c 0,0,1
EndSplineSet
Validated: 33
EndChar

StartChar: uni0426
Encoding: 1062 1062 201
Width: 804
GlyphClass: 2
Flags: W
LayerCount: 2
Fore
SplineSet
240 10 m 0,0,1
 273 7 273 7 321 21 c 0,2,3
 370 36 370 36 392 58 c 0,4,5
 475 141 475 141 502 254 c 0,6,7
 549 448 549 448 549 454 c 0,8,9
 569 592 569 592 575 656 c 0,10,11
 583 766 583 766 591 822 c 1,12,13
 606 831 606 831 616 823 c 256,14,15
 626 815 626 815 628 799 c 0,16,17
 632 769 632 769 632 766 c 0,18,19
 632 754 632 754 630 738 c 0,20,21
 617 606 617 606 591 447 c 0,22,23
 558 242 558 242 555 211 c 0,24,25
 553 177 553 177 552 157 c 0,26,27
 551 151 551 151 550 109 c 0,28,29
 549 20 549 20 592 8 c 0,30,31
 627 -2 627 -2 655 22 c 0,32,33
 704 63 704 63 729 23 c 0,34,35
 747 -4 747 -4 748 -4 c 0,36,37
 750 -3 750 -3 756 3 c 0,38,39
 766 17 766 17 797 22 c 0,40,41
 815 25 815 25 813 18 c 256,42,43
 811 11 811 11 800 3 c 0,44,45
 761 -26 761 -26 757 -29 c 1,46,47
 757 -29 757 -29 771 -67 c 0,48,49
 787 -128 787 -128 745 -146 c 0,50,51
 732 -151 732 -151 705 -143 c 0,52,53
 682 -137 682 -137 672 -117 c 0,54,55
 661 -98 661 -98 671 -78 c 0,56,57
 683 -50 683 -50 706 -37 c 0,58,59
 728 -24 728 -24 726 -19 c 0,60,61
 719 -2 719 -2 708 9 c 0,62,63
 703 15 703 15 695 13 c 0,64,65
 683 10 683 10 678 7 c 0,66,67
 671 3 671 3 659 -3 c 0,68,69
 656 -5 656 -5 642 -10 c 0,70,71
 618 -20 618 -20 606 -21 c 0,72,73
 588 -24 588 -24 570 -18 c 0,74,75
 520 -1 520 -1 519 100 c 0,76,77
 518 134 518 134 517 144 c 0,78,79
 517 147 517 147 517 161 c 0,80,81
 515 182 515 182 514 180 c 0,82,83
 459 83 459 83 415 40 c 0,84,85
 389 14 389 14 358 0 c 0,86,87
 337 -9 337 -9 306 -13 c 0,88,89
 269 -18 269 -18 241 -18 c 0,90,91
 201 -19 201 -19 163 -8 c 0,92,93
 42 26 42 26 97 228 c 0,94,95
 117 301 117 301 132 386 c 0,96,97
 162 555 162 555 164 671 c 0,98,99
 165 707 165 707 163 750 c 256,100,101
 161 793 161 793 158 794 c 0,102,103
 156 795 156 795 143 788 c 0,104,105
 129 781 129 781 108 782 c 256,106,107
 87 783 87 783 81 788 c 0,108,109
 65 803 65 803 50 776 c 0,110,111
 45 767 45 767 40 767 c 256,112,113
 35 767 35 767 35 780 c 0,114,115
 35 792 35 792 42 800 c 0,116,117
 48 808 48 808 64 817 c 0,118,119
 78 824 78 824 89 821 c 0,120,121
 99 818 99 818 103 814 c 0,122,123
 106 810 106 810 115 808 c 0,124,125
 130 805 130 805 159 827 c 0,126,127
 172 837 172 837 181 838 c 0,128,129
 187 838 187 838 189 834 c 0,130,131
 190 831 190 831 191 829 c 0,132,133
 196 819 196 819 197 786 c 0,134,135
 203 546 203 546 161 385 c 1,136,-1
 131 235 l 1,137,138
 69 37 69 37 194 15 c 0,139,140
 202 14 202 14 240 10 c 0,0,1
741 -119 m 0,141,142
 758 -106 758 -106 745 -71 c 0,143,144
 740 -59 740 -59 736 -46 c 0,145,146
 734 -44 734 -44 722 -55 c 0,147,148
 699 -76 699 -76 699 -99 c 0,149,150
 700 -116 700 -116 712 -122 c 0,151,152
 727 -130 727 -130 741 -119 c 0,141,142
EndSplineSet
Validated: 33
EndChar

StartChar: uni0427
Encoding: 1063 1063 202
Width: 728
GlyphClass: 2
Flags: W
LayerCount: 2
Fore
SplineSet
450 45 m 0,0,1
 443 67 443 67 441 158 c 0,2,3
 440 207 440 207 441 221 c 0,4,5
 455 412 455 412 464 451 c 0,6,7
 466 461 466 461 468 471 c 2,8,-1
 469 480 l 1,9,-1
 461 469 l 2,10,11
 444 449 444 449 416 427 c 0,12,13
 402 416 402 416 392 409 c 0,14,15
 383 402 383 402 368 390 c 0,16,17
 335 364 335 364 325 359 c 0,18,19
 317 356 317 356 303 346 c 0,20,21
 288 336 288 336 283 336 c 256,22,23
 278 336 278 336 277 334 c 0,24,25
 275 331 275 331 252 328 c 128,-1,26
 229 325 229 325 216 326 c 0,27,28
 195 328 195 328 175 343 c 256,29,30
 155 358 155 358 145 378 c 0,31,32
 139 392 139 392 138 423 c 0,33,34
 138 454 138 454 139 456 c 0,35,36
 141 459 141 459 142 478.5 c 128,-1,37
 143 498 143 498 146 517 c 0,38,39
 160 607 160 607 160 659 c 0,40,41
 161 694 161 694 159 735 c 0,42,43
 157 777 157 777 155 779 c 0,44,45
 153 780 153 780 139 773 c 0,46,47
 126 766 126 766 106 767 c 0,48,49
 85 768 85 768 80 773 c 0,50,51
 64 787 64 787 50 761 c 0,52,53
 45 752 45 752 40 752 c 256,54,55
 35 752 35 752 35 764 c 0,56,57
 35 785 35 785 64 800 c 0,58,59
 77 807 77 807 87 804 c 256,60,61
 97 801 97 801 101 797 c 0,62,63
 104 793 104 793 113 792 c 0,64,65
 127 789 127 789 155 811 c 0,66,67
 168 820 168 820 177 821 c 0,68,69
 182 821 182 821 185 820 c 0,70,71
 187 818 187 818 190 812 c 0,72,73
 194 803 194 803 195 744 c 256,74,75
 196 685 196 685 193 615 c 0,76,77
 188 525 188 525 178 472 c 0,78,79
 173 445 173 445 172 419 c 0,80,81
 172 393 172 393 177 383 c 0,82,83
 191 356 191 356 229 350 c 0,84,85
 243 347 243 347 259 352 c 0,86,87
 274 358 274 358 281 358 c 256,88,89
 288 358 288 358 310 373 c 0,90,91
 333 387 333 387 336 387 c 0,92,93
 338 387 338 387 348 396 c 256,94,95
 358 405 358 405 371 414 c 0,96,97
 438 465 438 465 450 483 c 0,98,99
 454 488 454 488 464 499 c 0,100,101
 472 509 472 509 473 518 c 0,102,103
 477 536 477 536 480 572 c 0,104,105
 492 707 492 707 496 741 c 0,106,107
 499 771 499 771 501 794 c 256,108,109
 503 817 503 817 507 822 c 0,110,111
 511 828 511 828 524 824 c 0,112,113
 533 821 533 821 536 814 c 0,114,115
 537 811 537 811 541 783 c 0,116,117
 545 752 545 752 535 672 c 0,118,119
 523 575 523 575 521 565 c 2,120,-1
 504 453 l 1,121,122
 489 305 489 305 483 244 c 0,123,124
 480 211 480 211 479 175 c 0,125,126
 475 70 475 70 475 67 c 0,127,128
 483 22 483 22 507 18 c 0,129,130
 535 13 535 13 555 22 c 0,131,132
 574 30 574 30 600 48 c 0,133,134
 634 71 634 71 674 106 c 0,135,136
 699 128 699 128 699 110 c 0,137,138
 699 101 699 101 676 80 c 0,139,140
 636 41 636 41 611 25 c 0,141,142
 587 8 587 8 551 -3 c 0,143,144
 513 -15 513 -15 495 -9 c 0,145,146
 465 0 465 0 450 45 c 0,0,1
EndSplineSet
Validated: 33
EndChar

StartChar: uni0428
Encoding: 1064 1064 203
Width: 1029
GlyphClass: 2
Flags: W
LayerCount: 2
Fore
SplineSet
829 -17 m 0,0,1
 816 -16 816 -16 811.5 -14 c 128,-1,2
 807 -12 807 -12 799 -5 c 0,3,4
 776 18 776 18 769 39 c 256,5,6
 762 60 762 60 759 137 c 2,7,-1
 757 189 l 1,8,-1
 750 172 l 2,9,10
 742 155 742 155 736 143 c 0,11,12
 728 123 728 123 706.5 94 c 128,-1,13
 685 65 685 65 666 47 c 0,14,15
 641 22 641 22 609 6 c 2,16,-1
 577 -10 l 1,17,-1
 537 -12 l 2,18,19
 497 -15 497 -15 481 -10.5 c 128,-1,20
 465 -6 465 -6 447.5 3 c 128,-1,21
 430 12 430 12 430 16 c 0,22,23
 430 18 430 18 420 34 c 2,24,-1
 411 51 l 1,25,-1
 410 110 l 2,26,27
 410 164 410 164 408 164 c 0,28,29
 407 164 407 164 406 161 c 0,30,31
 392 130 392 130 372 98 c 0,32,33
 352 69 352 69 326.5 44.5 c 128,-1,34
 301 20 301 20 269 3 c 2,35,-1
 237 -13 l 1,36,-1
 197 -15 l 2,37,38
 157 -17 157 -17 141 -12.5 c 128,-1,39
 125 -8 125 -8 108 1 c 128,-1,40
 91 10 91 10 91 14 c 0,41,42
 91 15 91 15 81 32 c 2,43,-1
 71 49 l 1,44,-1
 71 124 l 2,45,46
 71 199 71 199 77 222 c 0,47,48
 85 255 85 255 96 332 c 0,49,50
 100 360 100 360 116 427 c 0,51,52
 123 457 123 457 124.5 475.5 c 128,-1,53
 126 494 126 494 128 514 c 0,54,55
 144 616 144 616 147 677 c 0,56,57
 150 723 150 723 153 751 c 128,-1,58
 156 779 156 779 155 780 c 128,-1,59
 154 781 154 781 140.5 774 c 128,-1,60
 127 767 127 767 106.5 768 c 128,-1,61
 86 769 86 769 80 774 c 0,62,63
 64 789 64 789 50 762 c 0,64,65
 45 753 45 753 40 753 c 128,-1,66
 35 753 35 753 35 766 c 0,67,68
 35 777 35 777 41.5 785 c 128,-1,69
 48 793 48 793 64 802 c 0,70,71
 78 809 78 809 88 806 c 128,-1,72
 98 803 98 803 101 799 c 0,73,74
 112 786 112 786 136 799 c 0,75,76
 150 807 150 807 152 812 c 0,77,78
 155 821 155 821 175 823 c 0,79,80
 183 823 183 823 185.5 822 c 128,-1,81
 188 821 188 821 192 814 c 0,82,83
 200 798 200 798 192 746 c 0,84,85
 189 728 189 728 185.5 690 c 128,-1,86
 182 652 182 652 178 615.5 c 128,-1,87
 174 579 174 579 172 552 c 0,88,89
 167 498 167 498 160 461 c 0,90,91
 152 420 152 420 130 317 c 0,92,93
 123 286 123 286 119 261.5 c 128,-1,94
 115 237 115 237 112 229 c 0,95,96
 109 217 109 217 105 175.5 c 128,-1,97
 101 134 101 134 100 105 c 2,98,-1
 100 66 l 1,99,-1
 110 50 l 2,100,101
 122 33 122 33 133 26.5 c 128,-1,102
 144 20 144 20 172 14 c 0,103,104
 211 6 211 6 239 20 c 0,105,106
 292 48 292 48 303 60 c 0,107,108
 333 94 333 94 344 115 c 0,109,110
 352 128 352 128 361 142 c 0,111,112
 376 165 376 165 398 238 c 0,113,114
 421 310 421 310 429 350 c 0,115,116
 433 370 433 370 440 401 c 0,117,118
 447 437 447 437 454 473 c 0,119,120
 457 489 457 489 459.5 497.5 c 128,-1,121
 462 506 462 506 464 519.5 c 128,-1,122
 466 533 466 533 468.5 542.5 c 128,-1,123
 471 552 471 552 475 586 c 0,124,125
 483 655 483 655 491 700 c 0,126,127
 495 723 495 723 495 733 c 0,128,129
 495 761 495 761 512 769 c 0,130,131
 522 774 522 774 528 763 c 0,132,133
 537 747 537 747 527 684 c 0,134,135
 523 655 523 655 521 639 c 128,-1,136
 519 623 519 623 516 602 c 0,137,138
 503 537 503 537 501 518 c 0,139,140
 498 500 498 500 494 477 c 128,-1,141
 490 454 490 454 483 405 c 0,142,143
 473 336 473 336 468 313 c 0,144,145
 441 203 441 203 440 112 c 2,146,-1
 440 68 l 1,147,-1
 450 53 l 2,148,149
 461 36 461 36 472.5 29 c 128,-1,150
 484 22 484 22 511 17 c 0,151,152
 550 9 550 9 579 23 c 0,153,154
 631 50 631 50 642 63 c 0,155,156
 672 97 672 97 684 117 c 0,157,158
 692 131 692 131 700 145 c 0,159,160
 714 165 714 165 736 233.5 c 128,-1,161
 758 302 758 302 769 358 c 0,162,163
 775 384 775 384 779.5 403 c 128,-1,164
 784 422 784 422 786.5 436.5 c 128,-1,165
 789 451 789 451 791 462 c 0,166,167
 799 500 799 500 803 557 c 0,168,169
 813 671 813 671 820 726 c 0,170,171
 824 756 824 756 825 779 c 0,172,173
 827 801 827 801 831.5 807 c 128,-1,174
 836 813 836 813 848 809 c 0,175,176
 858 806 858 806 861 798.5 c 128,-1,177
 864 791 864 791 866 768 c 0,178,179
 868 742 868 742 860 655.5 c 128,-1,180
 852 569 852 569 843 520 c 0,181,182
 840 504 840 504 837.5 482 c 128,-1,183
 835 460 835 460 828 429 c 128,-1,184
 821 398 821 398 821 389.5 c 128,-1,185
 821 381 821 381 812 333 c 0,186,187
 799 268 799 268 798 240 c 0,188,189
 797 221 797 221 794 170.5 c 128,-1,190
 791 120 791 120 792 90 c 0,191,192
 792 69 792 69 794 62 c 128,-1,193
 796 55 796 55 803 41 c 0,194,195
 818 15 818 15 828 14 c 0,196,197
 831 14 831 14 846 12 c 128,-1,198
 861 10 861 10 877 17 c 128,-1,199
 893 24 893 24 908 35 c 0,200,201
 958 71 958 71 972 80 c 128,-1,202
 986 89 986 89 989 87 c 0,203,204
 993 84 993 84 994 82 c 0,205,206
 995 78 995 78 972 54 c 128,-1,207
 949 30 949 30 932 17 c 0,208,209
 909 -1 909 -1 906 -1 c 128,-1,210
 903 -1 903 -1 900 -4.5 c 128,-1,211
 897 -8 897 -8 885 -14 c 0,212,213
 870 -21 870 -21 829 -17 c 0,0,1
EndSplineSet
Validated: 33
EndChar

StartChar: uni0429
Encoding: 1065 1065 204
Width: 1092
GlyphClass: 2
Flags: W
LayerCount: 2
Fore
SplineSet
946 -138 m 0,0,1
 936 -133 936 -133 924.5 -123 c 128,-1,2
 913 -113 913 -113 909 -106 c 0,3,4
 901 -90 901 -90 913 -71 c 0,5,6
 918 -63 918 -63 940 -40 c 2,7,-1
 963 -16 l 1,8,-1
 956 -2 l 2,9,10
 949 12 949 12 949 15 c 128,-1,11
 949 18 949 18 945 21 c 128,-1,12
 941 24 941 24 936 20 c 256,13,14
 931 16 931 16 909 6 c 128,-1,15
 887 -4 887 -4 870 -10 c 0,16,17
 849 -17 849 -17 831 -17 c 0,18,19
 818 -17 818 -17 813.5 -15.5 c 128,-1,20
 809 -14 809 -14 801 -6 c 0,21,22
 776 17 776 17 769 39 c 0,23,24
 762 60 762 60 759 137 c 2,25,-1
 757 189 l 1,26,-1
 750 172 l 2,27,28
 742 155 742 155 736 143 c 0,29,30
 728 123 728 123 706.5 94 c 128,-1,31
 685 65 685 65 666 47 c 0,32,33
 641 22 641 22 609 6 c 2,34,-1
 577 -10 l 1,35,-1
 537 -12 l 2,36,37
 497 -15 497 -15 481 -10.5 c 128,-1,38
 465 -6 465 -6 447.5 3 c 128,-1,39
 430 12 430 12 430 16 c 0,40,41
 430 18 430 18 420 34 c 2,42,-1
 411 51 l 1,43,-1
 410 110 l 2,44,45
 410 164 410 164 408 164 c 0,46,47
 407 164 407 164 406 161 c 0,48,49
 392 130 392 130 372 98 c 0,50,51
 352 69 352 69 326.5 44.5 c 128,-1,52
 301 20 301 20 269 3 c 2,53,-1
 237 -13 l 1,54,-1
 197 -15 l 2,55,56
 157 -17 157 -17 141 -12.5 c 128,-1,57
 125 -8 125 -8 108 1 c 128,-1,58
 91 10 91 10 91 14 c 0,59,60
 91 15 91 15 81 32 c 2,61,-1
 71 49 l 1,62,-1
 71 124 l 2,63,64
 71 199 71 199 77 222 c 0,65,66
 85 255 85 255 96 332 c 0,67,68
 100 360 100 360 116 427 c 0,69,70
 123 457 123 457 124.5 475.5 c 128,-1,71
 126 494 126 494 128 514 c 0,72,73
 144 616 144 616 147 677 c 0,74,75
 150 723 150 723 153 751 c 128,-1,76
 156 779 156 779 155 780 c 128,-1,77
 154 781 154 781 140.5 774 c 128,-1,78
 127 767 127 767 106.5 768 c 128,-1,79
 86 769 86 769 80 774 c 0,80,81
 64 789 64 789 50 762 c 0,82,83
 45 753 45 753 40 753 c 128,-1,84
 35 753 35 753 35 766 c 0,85,86
 35 777 35 777 41.5 785 c 128,-1,87
 48 793 48 793 64 802 c 0,88,89
 78 809 78 809 88 806 c 128,-1,90
 98 803 98 803 101 799 c 0,91,92
 112 786 112 786 136 799 c 0,93,94
 150 807 150 807 152 812 c 0,95,96
 155 821 155 821 175 823 c 0,97,98
 183 823 183 823 185.5 822 c 128,-1,99
 188 821 188 821 192 814 c 0,100,101
 200 798 200 798 192 746 c 0,102,103
 189 728 189 728 185.5 690 c 128,-1,104
 182 652 182 652 178 615.5 c 128,-1,105
 174 579 174 579 172 552 c 0,106,107
 167 498 167 498 160 461 c 0,108,109
 152 420 152 420 130 317 c 0,110,111
 123 286 123 286 119 261.5 c 128,-1,112
 115 237 115 237 112 229 c 0,113,114
 109 217 109 217 105 175.5 c 128,-1,115
 101 134 101 134 100 105 c 2,116,-1
 100 66 l 1,117,-1
 110 50 l 2,118,119
 122 33 122 33 133 26.5 c 128,-1,120
 144 20 144 20 172 14 c 0,121,122
 211 6 211 6 239 20 c 0,123,124
 292 48 292 48 303 60 c 0,125,126
 333 94 333 94 344 115 c 0,127,128
 352 128 352 128 361 142 c 0,129,130
 376 165 376 165 398 238 c 0,131,132
 421 310 421 310 429 350 c 0,133,134
 433 370 433 370 439.5 401 c 128,-1,135
 446 432 446 432 449 447 c 0,136,137
 457 489 457 489 460 498 c 0,138,139
 462 506 462 506 464 519.5 c 128,-1,140
 466 533 466 533 468.5 542.5 c 128,-1,141
 471 552 471 552 475 586 c 0,142,143
 483 655 483 655 491 700 c 0,144,145
 495 723 495 723 495 733 c 0,146,147
 495 761 495 761 512 769 c 0,148,149
 522 774 522 774 528 763 c 0,150,151
 537 747 537 747 527 684 c 0,152,153
 523 655 523 655 521 639 c 128,-1,154
 519 623 519 623 516 602 c 0,155,156
 503 537 503 537 501 518 c 0,157,158
 498 500 498 500 494 477 c 128,-1,159
 490 454 490 454 483 405 c 0,160,161
 473 336 473 336 468 313 c 0,162,163
 441 203 441 203 440 112 c 2,164,-1
 440 68 l 1,165,-1
 450 53 l 2,166,167
 461 36 461 36 472.5 29 c 128,-1,168
 484 22 484 22 511 17 c 0,169,170
 550 9 550 9 579 23 c 0,171,172
 631 50 631 50 642 63 c 0,173,174
 672 97 672 97 684 117 c 0,175,176
 692 131 692 131 700 145 c 0,177,178
 714 165 714 165 736 233.5 c 128,-1,179
 758 302 758 302 769 358 c 0,180,181
 775 384 775 384 779.5 403 c 128,-1,182
 784 422 784 422 786.5 436.5 c 128,-1,183
 789 451 789 451 791 462 c 0,184,185
 799 500 799 500 803 557 c 0,186,187
 813 671 813 671 820 726 c 0,188,189
 824 756 824 756 825 779 c 0,190,191
 827 801 827 801 831.5 807 c 128,-1,192
 836 813 836 813 848 809 c 0,193,194
 858 806 858 806 861 798.5 c 128,-1,195
 864 791 864 791 866 768 c 0,196,197
 868 742 868 742 860 655.5 c 128,-1,198
 852 569 852 569 843 520 c 0,199,200
 840 504 840 504 837.5 482 c 128,-1,201
 835 460 835 460 828 429 c 128,-1,202
 821 398 821 398 821 389.5 c 128,-1,203
 821 381 821 381 812 333 c 0,204,205
 799 268 799 268 798 240 c 0,206,207
 797 221 797 221 794 170.5 c 128,-1,208
 791 120 791 120 792 90 c 0,209,210
 792 68 792 68 794 61.5 c 128,-1,211
 796 55 796 55 804 40 c 0,212,213
 813 23 813 23 818 17.5 c 128,-1,214
 823 12 823 12 827 13 c 256,215,216
 831 14 831 14 846 12 c 128,-1,217
 861 10 861 10 877 17 c 128,-1,218
 893 24 893 24 901 30 c 0,219,220
 936 56 936 56 941 56 c 0,221,222
 945 56 945 56 948 59.5 c 128,-1,223
 951 63 951 63 956.5 56.5 c 128,-1,224
 962 50 962 50 962 48 c 128,-1,225
 962 46 962 46 973 23 c 2,226,-1
 984 -1 l 1,227,-1
 997 8 l 2,228,229
 1018 22 1018 22 1037 28 c 0,230,231
 1059 34 1059 34 1057 25 c 0,232,233
 1055 18 1055 18 1038 6 c 0,234,235
 1000 -19 1000 -19 999 -24 c 0,236,237
 997 -27 997 -27 1004 -40.5 c 128,-1,238
 1011 -54 1011 -54 1017 -79 c 2,239,-1
 1023 -103 l 1,240,-1
 1016 -116 l 2,241,242
 1009 -130 1009 -130 1001 -135 c 128,-1,243
 993 -140 993 -140 975 -141 c 0,244,245
 956 -142 956 -142 946 -138 c 0,0,1
983 -114 m 0,246,247
 990 -107 990 -107 990 -94 c 0,248,249
 990 -84 990 -84 985 -65.5 c 128,-1,250
 980 -47 980 -47 976 -43 c 0,251,252
 974 -41 974 -41 959 -58 c 0,253,254
 937 -83 937 -83 942 -106 c 0,255,256
 944 -115 944 -115 954 -116.5 c 128,-1,257
 964 -118 964 -118 966 -119 c 0,258,259
 975 -122 975 -122 983 -114 c 0,246,247
EndSplineSet
Validated: 33
EndChar

StartChar: uni042A
Encoding: 1066 1066 205
Width: 839
GlyphClass: 2
Flags: W
LayerCount: 2
Fore
SplineSet
526 -10.5 m 128,-1,1
 525 -9 525 -9 505 -6.5 c 128,-1,2
 485 -4 485 -4 442.5 17 c 128,-1,3
 400 38 400 38 389 63 c 0,4,5
 381 80 381 80 387 80 c 0,6,7
 388 80 388 80 390 79 c 0,8,9
 420 52 420 52 456.5 34.5 c 128,-1,10
 493 17 493 17 514 13.5 c 128,-1,11
 535 10 535 10 578 11 c 256,12,13
 621 12 621 12 633 18 c 0,14,15
 657 31 657 31 682 55 c 0,16,17
 731 101 731 101 750 177 c 0,18,19
 762 226 762 226 764.5 266.5 c 128,-1,20
 767 307 767 307 752.5 340 c 128,-1,21
 738 373 738 373 712 406 c 0,22,23
 684 442 684 442 671 449 c 0,24,25
 659 455 659 455 635.5 463.5 c 128,-1,26
 612 472 612 472 603 473.5 c 128,-1,27
 594 475 594 475 543 474.5 c 128,-1,28
 492 474 492 474 460 460.5 c 128,-1,29
 428 447 428 447 416 438 c 0,30,31
 404 430 404 430 385 412 c 2,32,-1
 370 398 l 1,33,-1
 370 378 l 2,34,35
 368 298 368 298 350 208 c 0,36,37
 339 154 339 154 325 114 c 0,38,39
 301 44 301 44 286 24 c 0,40,41
 256 -16 256 -16 205 -3 c 0,42,43
 183 3 183 3 174 30 c 0,44,45
 165 63 165 63 180 127 c 0,46,47
 196 195 196 195 248.5 284 c 128,-1,48
 301 373 301 373 320 395.5 c 128,-1,49
 339 418 339 418 341 426 c 128,-1,50
 343 434 343 434 348 596 c 0,51,52
 352 765 352 765 351 772 c 2,53,-1
 349 785 l 1,54,-1
 333 772 l 2,55,56
 301 746 301 746 282 738 c 0,57,58
 262 728 262 728 236 725.5 c 128,-1,59
 210 723 210 723 204.5 723.5 c 128,-1,60
 199 724 199 724 186 729.5 c 128,-1,61
 173 735 173 735 160.5 750.5 c 128,-1,62
 148 766 148 766 143 770 c 128,-1,63
 138 774 138 774 128 774 c 0,64,65
 98 774 98 774 57 704 c 0,66,67
 44 682 44 682 36 695 c 0,68,69
 31 703 31 703 48.5 733.5 c 128,-1,70
 66 764 66 764 83.5 779 c 128,-1,71
 101 794 101 794 108 798 c 128,-1,72
 115 802 115 802 124 802 c 0,73,74
 148 802 148 802 180 770 c 0,75,76
 197 753 197 753 204.5 750.5 c 128,-1,77
 212 748 212 748 234.5 753.5 c 128,-1,78
 257 759 257 759 283.5 773 c 128,-1,79
 310 787 310 787 327 802.5 c 128,-1,80
 344 818 344 818 347 818 c 128,-1,81
 350 818 350 818 361.5 824 c 128,-1,82
 373 830 373 830 379.5 823 c 128,-1,83
 386 816 386 816 386 776.5 c 128,-1,84
 386 737 386 737 383 693 c 128,-1,85
 380 649 380 649 377.5 589.5 c 128,-1,86
 375 530 375 530 373 489.5 c 128,-1,87
 371 449 371 449 377 449 c 0,88,89
 379 449 379 449 387 456.5 c 128,-1,90
 395 464 395 464 426.5 478.5 c 128,-1,91
 458 493 458 493 469.5 495 c 128,-1,92
 481 497 481 497 504 503.5 c 128,-1,93
 527 510 527 510 588 504 c 0,94,95
 652 497 652 497 692 463 c 0,96,97
 705 452 705 452 710 450.5 c 128,-1,98
 715 449 715 449 739 423 c 128,-1,99
 763 397 763 397 767 388.5 c 128,-1,100
 771 380 771 380 780 368 c 0,101,102
 799 344 799 344 803 277 c 0,103,104
 807 219 807 219 792 172 c 0,105,106
 786 156 786 156 771 126.5 c 128,-1,107
 756 97 756 97 748 85.5 c 128,-1,108
 740 74 740 74 724 56 c 0,109,110
 698 29 698 29 687.5 23.5 c 128,-1,111
 677 18 677 18 662 8 c 0,112,113
 637 -9 637 -9 582 -11 c 0,114,0
 527 -12 527 -12 526 -10.5 c 128,-1,1
296 120 m 0,115,116
 308 164 308 164 316 200 c 0,117,118
 324 239 324 239 330 282 c 0,119,120
 336 335 336 335 336 350 c 0,121,122
 336 356 336 356 331 350 c 0,123,124
 316 334 316 334 306 318 c 0,125,126
 272 269 272 269 236 196 c 0,127,128
 219 160 219 160 214 144 c 0,129,130
 200 96 200 96 197 69 c 0,131,132
 194 39 194 39 204 30 c 0,133,134
 221 15 221 15 239.5 17.5 c 128,-1,135
 258 20 258 20 274 58 c 0,136,137
 283 79 283 79 296 120 c 0,115,116
EndSplineSet
Validated: 33
EndChar

StartChar: uni042B
Encoding: 1067 1067 206
Width: 890
GlyphClass: 2
Flags: W
LayerCount: 2
Fore
SplineSet
332 -7.5 m 128,-1,1
 315 -2 315 -2 303 5.5 c 128,-1,2
 291 13 291 13 284 15 c 0,3,4
 274 18 274 18 258 31.5 c 128,-1,5
 242 45 242 45 236 56 c 0,6,7
 228 69 228 69 227 76 c 128,-1,8
 226 83 226 83 229 102 c 0,9,10
 234 131 234 131 241 132 c 0,11,12
 243 132 243 132 245 130 c 0,13,14
 249 127 249 127 247 113 c 0,15,16
 240 63 240 63 309 29 c 0,17,18
 337 15 337 15 349.5 12.5 c 128,-1,19
 362 10 362 10 390 11 c 0,20,21
 424 12 424 12 436 19 c 0,22,23
 452 28 452 28 471.5 50 c 128,-1,24
 491 72 491 72 499 90 c 0,25,26
 505 102 505 102 507 106 c 0,27,28
 522 134 522 134 532.5 203 c 128,-1,29
 543 272 543 272 537 304 c 0,30,31
 529 348 529 348 516 372 c 0,32,33
 509 385 509 385 505 393 c 0,34,35
 499 404 499 404 487 420 c 128,-1,36
 475 436 475 436 468 442 c 0,37,38
 460 449 460 449 437 459.5 c 128,-1,39
 414 470 414 470 392 470 c 0,40,41
 343 470 343 470 300 452 c 0,42,43
 270 440 270 440 237 409 c 2,44,-1
 222 395 l 1,45,46
 222 297 222 297 201 204 c 0,47,48
 184 130 184 130 173 99 c 0,49,50
 163 71 163 71 138 30 c 0,51,52
 127 10 127 10 112 2 c 0,53,54
 94 -7 94 -7 73 -4 c 0,55,56
 62 -2 62 -2 58 0 c 128,-1,57
 54 2 54 2 47 13 c 0,58,59
 38 26 38 26 36 43.5 c 128,-1,60
 34 61 34 61 38 97 c 0,61,62
 45 159 45 159 58 194.5 c 128,-1,63
 71 230 71 230 114 303 c 0,64,65
 154 370 154 370 179 399 c 0,66,67
 192 414 192 414 193 420 c 128,-1,68
 194 426 194 426 197 514 c 0,69,70
 203 694 203 694 203.5 724.5 c 128,-1,71
 204 755 204 755 201 763 c 0,72,73
 197 774 197 774 195 774 c 128,-1,74
 193 774 193 774 179.5 767.5 c 128,-1,75
 166 761 166 761 146.5 762 c 128,-1,76
 127 763 127 763 121 768 c 0,77,78
 105 782 105 782 91 756 c 0,79,80
 86 747 86 747 81 747 c 128,-1,81
 76 747 76 747 76 760 c 0,82,83
 76 771 76 771 82.5 779 c 128,-1,84
 89 787 89 787 105 796 c 0,85,86
 119 803 119 803 129 800 c 128,-1,87
 139 797 139 797 142.5 793 c 128,-1,88
 146 789 146 789 155 787 c 0,89,90
 169 785 169 785 198 807 c 0,91,92
 222 824 222 824 232 815 c 0,93,94
 236 811 236 811 237 801.5 c 128,-1,95
 238 792 238 792 237 747 c 0,96,97
 235 684 235 684 232 639 c 0,98,99
 224 506 224 506 224 456 c 0,100,101
 224 438 224 438 237 451 c 0,102,103
 244 458 244 458 275 475 c 128,-1,104
 306 492 306 492 312 492 c 0,105,106
 316 492 316 492 326 496 c 0,107,108
 335 500 335 500 356.5 501.5 c 128,-1,109
 378 503 378 503 393 500 c 0,110,111
 436 492 436 492 461 475 c 0,112,113
 482 461 482 461 512.5 425.5 c 128,-1,114
 543 390 543 390 543 380 c 0,115,116
 543 376 543 376 547 372.5 c 128,-1,117
 551 369 551 369 559 347.5 c 128,-1,118
 567 326 567 326 569.5 283 c 128,-1,119
 572 240 572 240 568 218.5 c 128,-1,120
 564 197 564 197 564 188 c 256,121,122
 564 179 564 179 548.5 136.5 c 128,-1,123
 533 94 533 94 524 81 c 0,124,125
 493 34 493 34 479 24 c 0,126,127
 473 20 473 20 461 10 c 0,128,129
 436 -10 436 -10 383 -12 c 0,130,0
 349 -13 349 -13 332 -7.5 c 128,-1,1
103 24 m 0,131,132
 110 30 110 30 118 47 c 0,133,134
 143 102 143 102 149 126 c 0,135,136
 154 142 154 142 156 147.5 c 128,-1,137
 158 153 158 153 160 161.5 c 128,-1,138
 162 170 162 170 166 187 c 0,139,140
 175 228 175 228 179 262 c 0,141,142
 188 332 188 332 189 347 c 0,143,144
 189 353 189 353 179 343 c 0,145,146
 154 315 154 315 141 294 c 0,147,148
 116 253 116 253 98 209 c 0,149,150
 83 173 83 173 79 159.5 c 128,-1,151
 75 146 75 146 67 111 c 0,152,153
 60 77 60 77 62 54 c 0,154,155
 63 35 63 35 66 30 c 128,-1,156
 69 25 69 25 80 22 c 0,157,158
 90 19 90 19 93.5 19.5 c 128,-1,159
 97 20 97 20 103 24 c 0,131,132
712 -9 m 0,160,161
 667 2 667 2 659 46 c 0,162,163
 656 62 656 62 655 113 c 0,164,165
 655 212 655 212 666 300 c 0,166,167
 682 428 682 428 699 555 c 1,168,-1
 700 578 l 1,169,-1
 679 555 l 2,170,171
 624 494 624 494 591 480 c 0,172,173
 567 469 567 469 567 477 c 0,174,175
 567 483 567 483 587 498 c 0,176,177
 606 512 606 512 648 556 c 0,178,179
 700 609 700 609 709 625 c 1,180,181
 709 636 709 636 713 688 c 0,182,183
 715 719 715 719 716 749 c 0,184,185
 717 770 717 770 719 800 c 0,186,187
 720 811 720 811 725 821 c 0,188,189
 732 837 732 837 748 843 c 0,190,191
 768 850 768 850 783 835 c 0,192,193
 790 828 790 828 793 810 c 0,194,195
 804 755 804 755 746 640 c 0,196,197
 741 630 741 630 736 597 c 0,198,199
 713 429 713 429 698 264 c 0,200,201
 687 142 687 142 689 97 c 2,202,-1
 691 53 l 2,203,204
 693 34 693 34 705 26 c 0,205,206
 716 19 716 19 725 19 c 0,207,208
 761 19 761 19 820 62 c 0,209,210
 856 88 856 88 856 81 c 0,211,212
 856 70 856 70 829 47 c 0,213,214
 754 -19 754 -19 712 -9 c 0,160,161
756 715 m 0,215,216
 774 773 774 773 774 778 c 0,217,218
 780 821 780 821 767 818 c 0,219,220
 755 816 755 816 753 803 c 0,221,222
 749 775 749 775 748 764 c 0,223,224
 741 698 741 698 740 695 c 2,225,-1
 738 670 l 1,226,-1
 743 682 l 2,227,228
 753 706 753 706 756 715 c 0,215,216
EndSplineSet
Validated: 33
EndChar

StartChar: uni042C
Encoding: 1068 1068 207
Width: 700
GlyphClass: 2
Flags: W
LayerCount: 2
Fore
SplineSet
387.5 -10.5 m 128,-1,1
 386 -9 386 -9 366 -6.5 c 128,-1,2
 346 -4 346 -4 312 13 c 0,3,4
 262 38 262 38 250 63 c 0,5,6
 243 80 243 80 248 80 c 0,7,8
 250 80 250 80 251 79 c 0,9,10
 282 52 282 52 326 31 c 0,11,12
 354 17 354 17 375 13.5 c 128,-1,13
 396 10 396 10 440 11 c 0,14,15
 482 12 482 12 495 18 c 0,16,17
 519 31 519 31 544.5 55 c 128,-1,18
 570 79 570 79 582 101 c 0,19,20
 603 139 603 139 612 177 c 0,21,22
 623 226 623 226 625 264 c 0,23,24
 628 307 628 307 611 347 c 0,25,26
 600 373 600 373 574 406 c 128,-1,27
 548 439 548 439 532 449 c 0,28,29
 521 455 521 455 494 465 c 0,30,31
 474 472 474 472 465 473.5 c 128,-1,32
 456 475 456 475 424 475 c 0,33,34
 354 474 354 474 310 456 c 0,35,36
 289 447 289 447 277 438.5 c 128,-1,37
 265 430 265 430 246 412 c 2,38,-1
 232 398 l 1,39,-1
 232 378 l 2,40,41
 232 357 232 357 229 351.5 c 128,-1,42
 226 346 226 346 226 319 c 0,43,44
 225 280 225 280 210 205 c 0,45,46
 196 136 196 136 183 107 c 0,47,48
 176 93 176 93 176 90 c 0,49,50
 176 86 176 86 147 30 c 0,51,52
 124 -15 124 -15 67 3 c 0,53,54
 59 5 59 5 49 16.5 c 128,-1,55
 39 28 39 28 36 37 c 0,56,57
 34 45 34 45 36 78.5 c 128,-1,58
 38 112 38 112 42 127 c 0,59,60
 58 195 58 195 123 306 c 0,61,62
 163 373 163 373 188 403 c 0,63,64
 201 418 201 418 202 423.5 c 128,-1,65
 203 429 203 429 206 519 c 0,66,67
 212 700 212 700 213 731 c 128,-1,68
 214 762 214 762 211 770 c 0,69,70
 207 781 207 781 204.5 781 c 128,-1,71
 202 781 202 781 188.5 774.5 c 128,-1,72
 175 768 175 768 155 769 c 128,-1,73
 135 770 135 770 130 775 c 0,74,75
 114 790 114 790 99 763 c 0,76,77
 94 754 94 754 89 754 c 128,-1,78
 84 754 84 754 84 767 c 0,79,80
 84 778 84 778 90.5 786 c 128,-1,81
 97 794 97 794 113 803 c 0,82,83
 127 811 127 811 137.5 807.5 c 128,-1,84
 148 804 148 804 151.5 800 c 128,-1,85
 155 796 155 796 164 795 c 0,86,87
 178 792 178 792 207 814 c 0,88,89
 231 832 231 832 242 822 c 0,90,91
 246 819 246 819 246.5 809 c 128,-1,92
 247 799 247 799 246 754 c 0,93,94
 245 690 245 690 242 645 c 0,95,96
 234 510 234 510 234 460 c 0,97,98
 234 443 234 443 248 456 c 0,99,100
 256 464 256 464 288 478.5 c 128,-1,101
 320 493 320 493 333 496 c 0,102,103
 342 497 342 497 357 501 c 0,104,105
 389 510 389 510 445 504 c 0,106,107
 511 497 511 497 553 463 c 0,108,109
 566 452 566 452 571.5 450.5 c 128,-1,110
 577 449 577 449 600.5 423 c 128,-1,111
 624 397 624 397 629 388 c 0,112,113
 633 380 633 380 640 370 c 0,114,115
 652 355 652 355 657 335.5 c 128,-1,116
 662 316 662 316 665 277 c 0,117,118
 667 242 667 242 663 219 c 0,119,120
 658 189 658 189 652.5 172.5 c 128,-1,121
 647 156 647 156 631 124 c 0,122,123
 617 97 617 97 609.5 85.5 c 128,-1,124
 602 74 602 74 585 56 c 0,125,126
 560 29 560 29 549 23.5 c 128,-1,127
 538 18 538 18 525 9 c 0,128,129
 509 -2 509 -2 491 -6 c 128,-1,130
 473 -10 473 -10 434 -11 c 0,131,0
 389 -12 389 -12 387.5 -10.5 c 128,-1,1
111.5 24.5 m 128,-1,133
 119 30 119 30 126 47 c 0,134,135
 151 103 151 103 158 127 c 0,136,137
 163 144 163 144 165 149.5 c 128,-1,138
 167 155 167 155 169 163 c 128,-1,139
 171 171 171 171 175 189 c 0,140,141
 184 229 184 229 189 264 c 0,142,143
 197 335 197 335 198 350 c 0,144,145
 198 356 198 356 188 346 c 0,146,147
 187 345 187 345 186 343 c 0,148,149
 174 330 174 330 166.5 318.5 c 128,-1,150
 159 307 159 307 149.5 296.5 c 128,-1,151
 140 286 140 286 127.5 258.5 c 128,-1,152
 115 231 115 231 97.5 195.5 c 128,-1,153
 80 160 80 160 75.5 143.5 c 128,-1,154
 71 127 71 127 64.5 105 c 128,-1,155
 58 83 58 83 56 65 c 2,156,-1
 54 47 l 1,157,-1
 65 36 l 2,158,159
 80 21 80 21 101 19 c 0,160,132
 104 19 104 19 111.5 24.5 c 128,-1,133
EndSplineSet
Validated: 33
EndChar

StartChar: uni042D
Encoding: 1069 1069 208
Width: 583
GlyphClass: 2
Flags: W
LayerCount: 2
Fore
SplineSet
208 -4 m 1,0,1
 154 -4 154 -4 95 35 c 0,2,3
 89 39 89 39 39 83 c 0,4,5
 31 90 31 90 39 96 c 0,6,7
 47 103 47 103 111 60 c 0,8,9
 143 39 143 39 166 31 c 0,10,11
 194 21 194 21 218 21 c 0,12,13
 220 21 220 21 227.5 20.5 c 128,-1,14
 235 20 235 20 241 20 c 128,-1,15
 247 20 247 20 257 20.5 c 128,-1,16
 267 21 267 21 279.5 23.5 c 128,-1,17
 292 26 292 26 305 30 c 0,18,19
 369 49 369 49 408 98 c 0,20,21
 442 140 442 140 462 176 c 0,22,23
 475 202 475 202 493 270 c 0,24,25
 498 289 498 289 503 310 c 0,26,27
 506 324 506 324 509 361 c 128,-1,28
 512 398 512 398 511 400 c 0,29,30
 510 401 510 401 503 396 c 0,31,32
 480 380 480 380 434 371 c 0,33,34
 382 361 382 361 348 382 c 0,35,36
 330 393 330 393 311 402 c 0,37,38
 293 411 293 411 283.5 411 c 128,-1,39
 274 411 274 411 260 402 c 256,40,41
 246 393 246 393 242 393 c 0,42,43
 228 396 228 396 246 413 c 0,44,45
 255 421 255 421 267 427 c 0,46,47
 282 434 282 434 295 433 c 0,48,49
 320 431 320 431 360 404 c 0,50,51
 384 388 384 388 423 395 c 0,52,53
 469 403 469 403 497 422 c 2,54,-1
 512 432 l 1,55,-1
 512 453 l 2,56,57
 512 533 512 533 479 622 c 0,58,59
 466 657 466 657 459 669 c 0,60,61
 420 731 420 731 380 760 c 0,62,63
 351 781 351 781 325 789.5 c 128,-1,64
 299 798 299 798 263 799 c 0,65,66
 230 799 230 799 140 762 c 0,67,68
 126 755 126 755 115 755 c 0,69,70
 106 755 106 755 100 760 c 0,71,72
 87 772 87 772 101 786 c 0,73,74
 121 805 121 805 177 818 c 0,75,76
 220 828 220 828 262 830 c 0,77,78
 301 832 301 832 322 825 c 0,79,80
 368 810 368 810 409.5 776.5 c 128,-1,81
 451 743 451 743 477 704 c 0,82,83
 527 630 527 630 538 554 c 0,84,85
 550 468 550 468 549 405 c 0,86,87
 548 286 548 286 500 182 c 0,88,89
 466 108 466 108 417 63 c 0,90,91
 364 15 364 15 322 3 c 0,92,93
 277 -10 277 -10 208 -4 c 1,0,1
EndSplineSet
Validated: 33
EndChar

StartChar: uni042E
Encoding: 1070 1070 209
Width: 932
GlyphClass: 2
Flags: W
LayerCount: 2
Fore
SplineSet
616 -27 m 0,0,1
 614 -26 614 -26 588.5 -24 c 128,-1,2
 563 -22 563 -22 546 -15 c 0,3,4
 501 6 501 6 486 27 c 0,5,6
 467 57 467 57 461 76 c 0,7,8
 459 83 459 83 447 109 c 0,9,10
 426 157 426 157 416 185 c 0,11,12
 394 249 394 249 406 380 c 0,13,14
 410 430 410 430 418 460 c 0,15,16
 421 471 421 471 421 473 c 0,17,18
 421 474 421 474 408.5 474.5 c 128,-1,19
 396 475 396 475 379 474 c 128,-1,20
 362 473 362 473 351 471 c 0,21,22
 331 468 331 468 303.5 456.5 c 128,-1,23
 276 445 276 445 264 436 c 0,24,25
 253 427 253 427 238 412 c 2,26,-1
 224 398 l 1,27,-1
 224 378 l 2,28,29
 224 357 224 357 221 351.5 c 128,-1,30
 218 346 218 346 218 319 c 0,31,32
 218 280 218 280 202 205 c 0,33,34
 188 136 188 136 175 107 c 0,35,36
 168 93 168 93 168 90 c 0,37,38
 168 86 168 86 139 30 c 0,39,40
 130 11 130 11 112 2 c 128,-1,41
 94 -7 94 -7 73 -4 c 0,42,43
 62 -3 62 -3 58 -0.5 c 128,-1,44
 54 2 54 2 47 13 c 0,45,46
 38 26 38 26 36 43.5 c 128,-1,47
 34 61 34 61 38 97 c 0,48,49
 45 160 45 160 58 195.5 c 128,-1,50
 71 231 71 231 115 306 c 0,51,52
 155 373 155 373 180 403 c 0,53,54
 193 418 193 418 194 423.5 c 128,-1,55
 195 429 195 429 198 519 c 0,56,57
 205 700 205 700 205.5 731 c 128,-1,58
 206 762 206 762 203 770 c 0,59,60
 199 781 199 781 196.5 781 c 128,-1,61
 194 781 194 781 181 774.5 c 128,-1,62
 168 768 168 768 148 769 c 128,-1,63
 128 770 128 770 122 775 c 0,64,65
 106 790 106 790 91 763 c 0,66,67
 87 754 87 754 81.5 754 c 128,-1,68
 76 754 76 754 76 767 c 0,69,70
 77 778 77 778 83 786 c 128,-1,71
 89 794 89 794 106 803 c 0,72,73
 119 811 119 811 129.5 807.5 c 128,-1,74
 140 804 140 804 143.5 800 c 128,-1,75
 147 796 147 796 156 795 c 0,76,77
 171 792 171 792 200 814 c 0,78,79
 223 832 223 832 234 822 c 0,80,81
 238 819 238 819 238.5 809 c 128,-1,82
 239 799 239 799 238 754 c 0,83,84
 237 690 237 690 234 645 c 0,85,86
 226 510 226 510 226 460 c 0,87,88
 226 441 226 441 239 455 c 0,89,90
 246 462 246 462 277 479.5 c 128,-1,91
 308 497 308 497 315 497 c 0,92,93
 319 497 319 497 328 501 c 0,94,95
 337 504 337 504 359 505.5 c 128,-1,96
 381 507 381 507 391 505 c 0,97,98
 400 503 400 503 414.5 501 c 128,-1,99
 429 499 429 499 429 504 c 128,-1,100
 429 509 429 509 434.5 524 c 128,-1,101
 440 539 440 539 444 553 c 0,102,103
 465 618 465 618 479 646 c 0,104,105
 499 681 499 681 522 715 c 128,-1,106
 545 749 545 749 559 762 c 0,107,108
 568 770 568 770 585.5 782 c 128,-1,109
 603 794 603 794 611 802 c 0,110,111
 623 816 623 816 664 831 c 0,112,113
 698 844 698 844 717 845 c 128,-1,114
 736 846 736 846 752 835 c 0,115,116
 763 828 763 828 771 824 c 0,117,118
 779 819 779 819 784.5 809.5 c 128,-1,119
 790 800 790 800 788 791 c 0,120,121
 787 782 787 782 791 781 c 0,122,123
 811 774 811 774 826 761 c 0,124,125
 845 743 845 743 861 692 c 0,126,127
 870 666 870 666 874 657 c 0,128,129
 884 638 884 638 893 587 c 0,130,131
 897 560 897 560 897.5 465 c 128,-1,132
 898 370 898 370 893 340 c 0,133,134
 885 293 885 293 879 264 c 0,135,136
 875 248 875 248 872 230 c 0,137,138
 869 214 869 214 857 180 c 128,-1,139
 845 146 845 146 836 128 c 0,140,141
 826 109 826 109 806.5 81 c 128,-1,142
 787 53 787 53 777 44 c 0,143,144
 756 26 756 26 745.5 19 c 128,-1,145
 735 12 735 12 709 -2 c 0,146,147
 686 -14 686 -14 653 -23 c 128,-1,148
 620 -32 620 -32 616 -27 c 0,0,1
639 10 m 0,149,150
 661 15 661 15 684.5 23.5 c 128,-1,151
 708 32 708 32 716 34 c 0,152,153
 731 37 731 37 751 58.5 c 128,-1,154
 771 80 771 80 781 104 c 0,155,156
 785 112 785 112 787 112 c 128,-1,157
 789 112 789 112 789 115.5 c 128,-1,158
 789 119 789 119 803 147 c 128,-1,159
 817 175 817 175 817 178.5 c 128,-1,160
 817 182 817 182 819 185 c 0,161,162
 826 193 826 193 844 265 c 0,163,164
 846 275 846 275 849 286 c 0,165,166
 867 354 867 354 859 506 c 0,167,168
 855 594 855 594 853 608 c 0,169,170
 845 646 845 646 841 654 c 0,171,172
 839 659 839 659 839 664 c 0,173,174
 839 677 839 677 814 720 c 0,175,176
 802 742 802 742 798.5 748.5 c 128,-1,177
 795 755 795 755 784 763.5 c 128,-1,178
 773 772 773 772 773 778 c 0,179,180
 773 792 773 792 747 806 c 0,181,182
 733 813 733 813 706.5 813 c 128,-1,183
 680 813 680 813 659.5 803.5 c 128,-1,184
 639 794 639 794 635 789.5 c 128,-1,185
 631 785 631 785 612 771 c 0,186,187
 595 759 595 759 576 738 c 128,-1,188
 557 717 557 717 547 702 c 0,189,190
 539 688 539 688 533 679 c 0,191,192
 522 664 522 664 491 572 c 256,193,194
 460 480 460 480 457 462 c 0,195,196
 454 451 454 451 451 439 c 0,197,198
 439 388 439 388 441 359 c 0,199,200
 442 339 442 339 440 318 c 0,201,202
 438 299 438 299 441.5 259.5 c 128,-1,203
 445 220 445 220 451 194 c 0,204,205
 453 185 453 185 456.5 170 c 128,-1,206
 460 155 460 155 463 150 c 0,207,208
 466 144 466 144 482 101 c 0,209,210
 496 60 496 60 507 45 c 0,211,212
 519 28 519 28 558 12 c 0,213,214
 589 -1 589 -1 639 10 c 0,149,150
104 24 m 0,215,216
 111 30 111 30 119 47 c 0,217,218
 144 103 144 103 150 127 c 0,219,220
 155 144 155 144 157.5 149.5 c 128,-1,221
 160 155 160 155 161.5 163 c 128,-1,222
 163 171 163 171 167 189 c 0,223,224
 177 229 177 229 181 264 c 0,225,226
 190 335 190 335 190 350 c 0,227,228
 190 356 190 356 181 346 c 0,229,230
 180 345 180 345 178 343 c 0,231,232
 166 330 166 330 159 318.5 c 128,-1,233
 152 307 152 307 142 297 c 0,234,235
 128 281 128 281 99 211 c 0,236,237
 84 175 84 175 79.5 161.5 c 128,-1,238
 75 148 75 148 68 112 c 0,239,240
 60 78 60 78 62 54 c 0,241,242
 63 36 63 36 66 30.5 c 128,-1,243
 69 25 69 25 80 22 c 256,244,245
 91 19 91 19 94 19.5 c 128,-1,246
 97 20 97 20 104 24 c 0,215,216
EndSplineSet
Validated: 33
EndChar

StartChar: uni042F
Encoding: 1071 1071 210
Width: 765
GlyphClass: 2
Flags: W
LayerCount: 2
Fore
SplineSet
104 -7 m 0,0,1
 58 -3 58 -3 43 59 c 0,2,3
 33 87 33 87 46 93 c 0,4,5
 60 99 60 99 66 75 c 0,6,7
 73 46 73 46 99 28 c 0,8,9
 120 13 120 13 153 22 c 0,10,11
 216 37 216 37 262 72 c 0,12,13
 308 108 308 108 341 164 c 0,14,15
 423 301 423 301 452 389 c 0,16,17
 472 450 472 450 465 442 c 0,18,19
 464 440 464 440 456 429 c 0,20,21
 416 379 416 379 366 370 c 1,22,23
 308 365 308 365 264 405 c 0,24,25
 213 450 213 450 193 522 c 0,26,27
 176 579 176 579 189 636 c 0,28,29
 207 713 207 713 272 769 c 0,30,31
 334 823 334 823 407 828 c 0,32,33
 501 835 501 835 523 791 c 1,34,35
 527 814 527 814 543 814 c 0,36,37
 562 813 562 813 558 797 c 0,38,39
 557 790 557 790 555 782 c 0,40,41
 545 725 545 725 537 576 c 0,42,43
 534 529 534 529 534 479 c 0,44,45
 533 429 533 429 534 356 c 0,46,47
 534 262 534 262 534 259 c 0,48,49
 546 72 546 72 603 31 c 0,50,51
 623 16 623 16 652 32 c 0,52,53
 667 40 667 40 688 71 c 0,54,55
 716 114 716 114 726 108 c 0,56,57
 744 96 744 96 722 59 c 0,58,59
 708 33 708 33 683 14 c 0,60,61
 668 3 668 3 651.5 -3 c 128,-1,62
 635 -9 635 -9 617 -6 c 0,63,64
 604 -4 604 -4 586 11 c 0,65,66
 508 75 508 75 502 253 c 0,67,68
 502 254 502 254 499 300 c 0,69,70
 498 317 498 317 497 367 c 0,71,72
 496 416 496 416 493 442 c 1,73,74
 462 326 462 326 371 164 c 0,75,76
 317 67 317 67 236 23 c 0,77,78
 169 -13 169 -13 104 -7 c 0,0,1
470 495 m 0,79,80
 494 539 494 539 507 616 c 0,81,82
 527 726 527 726 493 786 c 1,83,84
 462 819 462 819 383 796 c 0,85,86
 337 783 337 783 299 747.5 c 128,-1,87
 261 712 261 712 243 666 c 0,88,89
 220 618 220 618 222 559.5 c 128,-1,90
 224 501 224 501 255 457 c 0,91,92
 273 425 273 425 304 408 c 128,-1,93
 335 391 335 391 374 397 c 0,94,95
 422 405 422 405 470 495 c 0,79,80
EndSplineSet
Validated: 33
EndChar

StartChar: uni0431
Encoding: 1073 1073 212
Width: 437
GlyphClass: 2
Flags: W
LayerCount: 2
Fore
SplineSet
156 3 m 0,0,1
 121 10 121 10 93 37 c 0,2,3
 60 69 60 69 50 104 c 0,4,5
 46 117 46 117 45 167 c 0,6,7
 43 243 43 243 59 296 c 0,8,9
 65 315 65 315 74 350 c 0,10,11
 91 415 91 415 112 449.5 c 128,-1,12
 133 484 133 484 169 503 c 0,13,14
 187 513 187 513 194 515 c 128,-1,15
 201 517 201 517 216 517 c 0,16,17
 251 517 251 517 279 501 c 2,18,-1
 291 493 l 1,19,-1
 281 513 l 2,20,21
 271 533 271 533 251 560 c 0,22,23
 192 640 192 640 173 661 c 0,24,25
 156 679 156 679 149 692 c 0,26,27
 139 710 139 710 136 736.5 c 128,-1,28
 133 763 133 763 139 776 c 0,29,30
 144 785 144 785 144 790 c 0,31,32
 144 796 144 796 171.5 819.5 c 128,-1,33
 199 843 199 843 225 859 c 0,34,35
 246 872 246 872 267 874 c 0,36,37
 308 879 308 879 340 862 c 0,38,39
 420 819 420 819 456 832 c 0,40,41
 464 835 464 835 484.5 848 c 128,-1,42
 505 861 505 861 515 871 c 0,43,44
 525 880 525 880 529 880 c 0,45,46
 554 883 554 883 556 878 c 0,47,48
 558 872 558 872 530.5 848.5 c 128,-1,49
 503 825 503 825 479 812 c 2,50,-1
 455 799 l 1,51,-1
 427 801 l 2,52,53
 405 802 405 802 387.5 808 c 128,-1,54
 370 814 370 814 327 835 c 0,55,56
 307 844 307 844 294 848 c 0,57,58
 288 850 288 850 267 845.5 c 128,-1,59
 246 841 246 841 234 834 c 0,60,61
 220 827 220 827 201 810 c 0,62,63
 179 789 179 789 175.5 769 c 128,-1,64
 172 749 172 749 182 713 c 0,65,66
 187 695 187 695 200.5 680.5 c 128,-1,67
 214 666 214 666 227 650 c 128,-1,68
 240 634 240 634 263 609 c 128,-1,69
 286 584 286 584 300 555.5 c 128,-1,70
 314 527 314 527 324 508 c 0,71,72
 333 492 333 492 337 480 c 128,-1,73
 341 468 341 468 352 423 c 0,74,75
 370 351 370 351 358 230 c 0,76,77
 351 158 351 158 335 109 c 0,78,79
 311 37 311 37 273 18 c 0,80,81
 250 6 250 6 216 1.5 c 128,-1,82
 182 -3 182 -3 156 3 c 0,0,1
230 36 m 0,83,84
 240 38 240 38 262 60 c 0,85,86
 277 75 277 75 282.5 83.5 c 128,-1,87
 288 92 288 92 296 112 c 0,88,89
 319 167 319 167 324 192 c 128,-1,90
 329 217 329 217 330 283 c 0,91,92
 331 336 331 336 321 386 c 0,93,94
 313 428 313 428 307.5 437 c 128,-1,95
 302 446 302 446 276 459 c 0,96,97
 245 475 245 475 227.5 477 c 128,-1,98
 210 479 210 479 184 470 c 0,99,100
 171 465 171 465 165 457 c 128,-1,101
 159 449 159 449 144 414 c 0,102,103
 128 377 128 377 125 373 c 0,104,105
 120 367 120 367 108 320 c 0,106,107
 74 189 74 189 91 116 c 0,108,109
 97 91 97 91 100 83 c 0,110,111
 105 72 105 72 145 43 c 0,112,113
 152 38 152 38 183 35.5 c 128,-1,114
 214 33 214 33 230 36 c 0,83,84
EndSplineSet
Validated: 33
EndChar

StartChar: uni0433
Encoding: 1075 1075 214
Width: 421
GlyphClass: 2
Flags: W
LayerCount: 2
Fore
SplineSet
176 -2 m 0,0,1
 153 -1 153 -1 125 7.5 c 128,-1,2
 97 16 97 16 81 29 c 1,3,4
 56 71 56 71 89 131 c 0,5,6
 101 153 101 153 117.5 177 c 128,-1,7
 134 201 134 201 147 217.5 c 128,-1,8
 160 234 160 234 182 261 c 128,-1,9
 204 288 204 288 215 301 c 0,10,11
 258 350 258 350 274 395 c 0,12,13
 275 399 275 399 277 409 c 128,-1,14
 279 419 279 419 280 424.5 c 128,-1,15
 281 430 281 430 281 438.5 c 128,-1,16
 281 447 281 447 279.5 453.5 c 128,-1,17
 278 460 278 460 274 464 c 0,18,19
 263 478 263 478 249 484.5 c 128,-1,20
 235 491 235 491 209 490 c 0,21,22
 166 489 166 489 134 451 c 0,23,24
 107 419 107 419 99 397 c 0,25,26
 98 393 98 393 88 368.5 c 128,-1,27
 78 344 78 344 73 331 c 1,28,29
 76 314 76 314 57 308 c 0,30,31
 39 303 39 303 35 317 c 0,32,33
 34 322 34 322 36 327 c 0,34,35
 59 412 59 412 99 461 c 1,36,37
 112 485 112 485 144 498 c 128,-1,38
 176 511 176 511 211 513 c 0,39,40
 253 515 253 515 291 495 c 1,41,42
 323 472 323 472 316 442 c 1,43,44
 309 357 309 357 236 271 c 0,45,46
 201 234 201 234 138 144 c 1,47,48
 109 95 109 95 117 55 c 0,49,50
 119 46 119 46 128 40.5 c 128,-1,51
 137 35 137 35 144.5 33.5 c 128,-1,52
 152 32 152 32 165.5 30 c 128,-1,53
 179 28 179 28 182 27 c 0,54,55
 230 24 230 24 251 36 c 1,56,57
 288 49 288 49 317 79 c 0,58,59
 325 86 325 86 332 94 c 128,-1,60
 339 102 339 102 350 116 c 128,-1,61
 361 130 361 130 364 134 c 0,62,63
 371 146 371 146 381 141 c 128,-1,64
 391 136 391 136 381 125 c 1,65,66
 357 77 357 77 308 38 c 0,67,68
 287 18 287 18 245 0 c 0,69,70
 226 -5 226 -5 176 -2 c 0,0,1
EndSplineSet
Validated: 33
EndChar

StartChar: uni0436
Encoding: 1078 1078 217
Width: 697
GlyphClass: 2
Flags: W
LayerCount: 2
Fore
SplineSet
103 8 m 0,0,1
 84 17 84 17 66 32 c 0,2,3
 47 48 47 48 48 53 c 0,4,5
 48 56 48 56 41 62 c 0,6,7
 35 67 35 67 35 76 c 0,8,9
 36 85 36 85 41 86 c 256,10,11
 46 87 46 87 71 66 c 0,12,13
 95 46 95 46 105 41 c 256,14,15
 115 36 115 36 132 36 c 0,16,17
 145 36 145 36 150 38 c 256,18,19
 155 40 155 40 165 50 c 0,20,21
 179 64 179 64 186 86 c 0,22,23
 201 134 201 134 202 137 c 2,24,25
 202 137 202 137 222 214 c 0,26,27
 231 252 231 252 233 268 c 0,28,29
 236 294 236 294 243 322 c 0,30,31
 250 351 250 351 250 392 c 0,32,33
 251 432 251 432 245 442 c 0,34,35
 225 471 225 471 205 476 c 0,36,37
 193 479 193 479 180 474 c 0,38,39
 168 470 168 470 145 455 c 0,40,41
 126 443 126 443 116 436 c 0,42,43
 107 430 107 430 100 428 c 0,44,45
 93 425 93 425 90 426 c 0,46,47
 87 428 87 428 86 431 c 0,48,49
 80 448 80 448 129 482 c 0,50,51
 168 509 168 509 189 511 c 0,52,53
 205 512 205 512 225 502 c 0,54,55
 246 492 246 492 252 483 c 0,56,57
 259 474 259 474 264 470 c 0,58,59
 268 466 268 466 278 440 c 0,60,61
 284 422 284 422 285 412 c 0,62,63
 286 403 286 403 285 374 c 0,64,65
 283 331 283 331 260 224 c 1,66,-1
 257 203 l 1,67,68
 257 204 257 204 260 210 c 2,69,-1
 311 294 l 2,70,71
 313 298 313 298 344 361 c 0,72,73
 366 407 366 407 366 410 c 256,74,75
 366 413 366 413 372 426 c 256,76,77
 378 439 378 439 381 454 c 0,78,79
 385 468 385 468 386 475 c 0,80,81
 388 482 388 482 395 482 c 0,82,83
 407 482 407 482 403 455 c 0,84,85
 400 439 400 439 397 414 c 0,86,87
 386 350 386 350 382 314 c 0,88,89
 373 242 373 242 370 227 c 0,90,91
 364 196 364 196 365 186 c 0,92,93
 365 164 365 164 362 164 c 0,94,95
 361 164 361 164 366 173 c 0,96,97
 382 207 382 207 390 220 c 0,98,99
 402 239 402 239 410 252 c 0,100,101
 419 270 419 270 427 282 c 0,102,103
 436 296 436 296 497 403 c 0,104,105
 508 423 508 423 532 458 c 0,106,107
 586 536 586 536 645 496 c 0,108,109
 658 487 658 487 663 475 c 0,110,111
 672 453 672 453 658 449 c 0,112,113
 644 446 644 446 638 461 c 0,114,115
 614 514 614 514 570 463 c 0,116,117
 560 452 560 452 541.5 422 c 128,-1,118
 523 392 523 392 513 371 c 0,119,120
 469 284 469 284 461 228 c 0,121,122
 456 194 456 194 452 156 c 0,123,124
 446 112 446 112 450 88 c 0,125,126
 452 73 452 73 460 59 c 0,127,128
 464 51 464 51 479 39 c 0,129,130
 493 28 493 28 503 30 c 0,131,132
 532 36 532 36 559 61 c 0,133,134
 590 90 590 90 598 84 c 0,135,136
 607 77 607 77 572 45 c 0,137,138
 552 27 552 27 528 15 c 0,139,140
 505 3 505 3 486 3 c 0,141,142
 451 3 451 3 439 27 c 0,143,144
 427 50 427 50 423 68 c 0,145,146
 420 86 420 86 420 126 c 0,147,148
 420 193 420 193 432 239 c 0,149,150
 438 262 438 262 444 281 c 1,151,152
 429 261 429 261 424 251 c 0,153,154
 403 209 403 209 396 196 c 0,155,156
 374 163 374 163 368 148 c 0,157,158
 351 108 351 108 345 66 c 0,159,160
 338 22 338 22 329 22 c 0,161,162
 323 22 323 22 321.5 26 c 128,-1,163
 320 30 320 30 325 76 c 0,164,165
 331 122 331 122 337 152 c 0,166,167
 342 177 342 177 345 208 c 0,168,169
 348 238 348 238 354 272 c 256,170,171
 360 306 360 306 359 314 c 0,172,173
 358 318 358 318 361 339 c 2,174,-1
 363 356 l 1,175,-1
 349 331 l 2,176,177
 329 297 329 297 319 276 c 0,178,179
 304 247 304 247 295 231 c 256,180,181
 286 215 286 215 265 175 c 0,182,183
 245 135 245 135 239 126 c 0,184,185
 234 118 234 118 227 96 c 0,186,187
 219 72 219 72 204 46 c 0,188,189
 190 19 190 19 180 12 c 0,190,191
 167 3 167 3 143 2 c 0,192,193
 119 0 119 0 103 8 c 0,0,1
EndSplineSet
Validated: 37
EndChar

StartChar: uni0437
Encoding: 1079 1079 218
Width: 413
GlyphClass: 2
Flags: W
LayerCount: 2
Fore
SplineSet
119 -379 m 0,0,1
 109 -377 109 -377 106 -375.5 c 128,-1,2
 103 -374 103 -374 80 -369 c 0,3,4
 63 -366 63 -366 52.5 -360.5 c 128,-1,5
 42 -355 42 -355 20 -339 c 128,-1,6
 -2 -323 -2 -323 -15 -285 c 0,7,8
 -22 -264 -22 -264 -16.5 -238 c 128,-1,9
 -11 -212 -11 -212 3 -199 c 0,10,11
 10 -192 10 -192 15 -196 c 0,12,13
 27 -206 27 -206 18 -233 c 0,14,15
 11 -255 11 -255 16.5 -273 c 128,-1,16
 22 -291 22 -291 43 -312 c 0,17,18
 56 -325 56 -325 63 -329 c 128,-1,19
 70 -333 70 -333 88 -338 c 0,20,21
 130 -350 130 -350 171 -351 c 0,22,23
 194 -351 194 -351 225.5 -334 c 128,-1,24
 257 -317 257 -317 285 -290 c 0,25,26
 300 -275 300 -275 306.5 -264 c 128,-1,27
 313 -253 313 -253 327 -217 c 0,28,29
 334 -199 334 -199 339.5 -168 c 128,-1,30
 345 -137 345 -137 342 -132 c 0,31,32
 341 -130 341 -130 339 -88.5 c 128,-1,33
 337 -47 337 -47 332 -15 c 0,34,35
 326 20 326 20 315.5 51 c 128,-1,36
 305 82 305 82 299 87 c 0,37,38
 297 88 297 88 290 105 c 0,39,40
 283 120 283 120 268.5 136 c 128,-1,41
 254 152 254 152 242 158 c 0,42,43
 217 169 217 169 190 160 c 0,44,45
 180 157 180 157 166 148 c 0,46,47
 143 134 143 134 134 144 c 0,48,49
 124 156 124 156 150 174 c 0,50,51
 165 185 165 185 185.5 205.5 c 128,-1,52
 206 226 206 226 245 255 c 0,53,54
 281 282 281 282 292 293.5 c 128,-1,55
 303 305 303 305 317 330 c 0,56,57
 340 370 340 370 336 399 c 0,58,59
 334 412 334 412 317 429 c 0,60,61
 296 449 296 449 263.5 463 c 128,-1,62
 231 477 231 477 211 474 c 0,63,64
 168 468 168 468 140 415 c 0,65,66
 130 397 130 397 127 393 c 0,67,68
 123 389 123 389 114 370 c 128,-1,69
 105 351 105 351 105 347.5 c 128,-1,70
 105 344 105 344 94 339 c 0,71,72
 75 330 75 330 75 347 c 0,73,74
 75 354 75 354 85 382.5 c 128,-1,75
 95 411 95 411 105 430 c 0,76,77
 129 477 129 477 171 500 c 0,78,79
 189 510 189 510 196 512 c 128,-1,80
 203 514 203 514 217 514 c 0,81,82
 255 514 255 514 286 494 c 0,83,84
 303 483 303 483 316.5 476.5 c 128,-1,85
 330 470 330 470 337 461 c 128,-1,86
 344 452 344 452 346 453.5 c 128,-1,87
 348 455 348 455 359 432 c 0,88,89
 367 415 367 415 368.5 409 c 128,-1,90
 370 403 370 403 369 386 c 0,91,92
 367 363 367 363 362 348 c 0,93,94
 356 329 356 329 340.5 300.5 c 128,-1,95
 325 272 325 272 314 259 c 0,96,97
 305 249 305 249 281.5 231 c 128,-1,98
 258 213 258 213 254 213 c 0,99,100
 252 213 252 213 238 204 c 2,101,-1
 225 195 l 1,102,-1
 245 188 l 2,103,104
 284 175 284 175 305 153 c 0,105,106
 348 106 348 106 369 -5 c 0,107,108
 377 -45 377 -45 378.5 -102 c 128,-1,109
 380 -159 380 -159 375 -189 c 0,110,111
 365 -248 365 -248 338 -286 c 0,112,113
 321 -310 321 -310 286 -338 c 128,-1,114
 251 -366 251 -366 235 -369 c 0,115,116
 224 -371 224 -371 204 -376 c 0,117,118
 189 -380 189 -380 162.5 -381 c 128,-1,119
 136 -382 136 -382 119 -379 c 0,0,1
EndSplineSet
Validated: 33
EndChar

StartChar: uni0439
Encoding: 1081 1081 220
Width: 506
GlyphClass: 2
Flags: W
LayerCount: 2
Fore
SplineSet
194 633 m 0,0,1
 206 633 206 633 214 622 c 0,2,3
 226 600 226 600 252 598.5 c 128,-1,4
 278 597 278 597 298 609 c 0,5,6
 328 624 328 624 328 612 c 128,-1,7
 328 600 328 600 288 580 c 0,8,9
 264 566 264 566 235 570.5 c 128,-1,10
 206 575 206 575 190 599 c 0,11,12
 172 625 172 625 184 631 c 0,13,14
 188 633 188 633 194 633 c 0,0,1
88 503 m 128,-1,16
 94 509 94 509 103 509 c 128,-1,17
 112 509 112 509 120 504 c 0,18,19
 124 500 124 500 125 497 c 128,-1,20
 126 494 126 494 122 483 c 0,21,22
 120 472 120 472 117 450.5 c 128,-1,23
 114 429 114 429 107 396 c 0,24,25
 92 326 92 326 92 322 c 0,26,27
 90 309 90 309 71 185 c 0,28,29
 62 126 62 126 83 73 c 0,30,31
 97 37 97 37 140 29 c 0,32,33
 175 23 175 23 223 32 c 0,34,35
 254 38 254 38 271 53 c 0,36,37
 294 71 294 71 314 105 c 1,38,39
 320 133 320 133 322 162 c 0,40,41
 324 177 324 177 333 232 c 0,42,43
 341 279 341 279 342 292 c 0,44,45
 359 447 359 447 360 450 c 0,46,47
 362 497 362 497 363 501 c 128,-1,48
 364 505 364 505 371 507.5 c 128,-1,49
 378 510 378 510 387 506 c 0,50,51
 393 504 393 504 400 496 c 0,52,53
 404 492 404 492 405 474 c 0,54,55
 405 465 405 465 398 418 c 0,56,57
 378 263 378 263 378 247 c 0,58,59
 377 241 377 241 364 148 c 0,60,61
 354 84 354 84 354 81 c 0,62,63
 350 50 350 50 358 42 c 0,64,65
 364 35 364 35 394 35 c 0,66,67
 410 35 410 35 437 54 c 0,68,69
 453 65 453 65 462 65 c 0,70,71
 468 65 468 65 471 60 c 0,72,73
 473 58 473 58 473 54 c 0,74,75
 473 45 473 45 456 32 c 0,76,77
 423 5 423 5 398 -1 c 0,78,79
 383 -5 383 -5 364 -7 c 0,80,81
 349 -8 349 -8 332 8 c 0,82,83
 314 24 314 24 314 55 c 1,84,85
 303 33 303 33 285 22 c 0,86,87
 261 7 261 7 228 2 c 0,88,89
 164 -9 164 -9 124 4 c 0,90,91
 67 23 67 23 52 62 c 0,92,93
 30 119 30 119 36 188 c 0,94,95
 38 205 38 205 54 320 c 0,96,97
 62 358 62 358 69 411 c 0,98,99
 82 475 82 475 82 486 c 256,100,15
 82 497 82 497 88 503 c 128,-1,16
EndSplineSet
Validated: 33
EndChar

StartChar: uni043A
Encoding: 1082 1082 221
Width: 521
GlyphClass: 2
Flags: W
LayerCount: 2
Fore
SplineSet
108 503 m 0,0,1
 119 503 119 503 126 494 c 0,2,3
 132 486 132 486 128 472 c 2,4,5
 128 472 128 472 121 398 c 0,6,7
 114 327 114 327 110 294 c 1,8,9
 126 317 126 317 158 351 c 0,10,11
 175 369 175 369 182.5 376 c 128,-1,12
 190 383 190 383 203.5 392.5 c 128,-1,13
 217 402 217 402 239 415 c 0,14,15
 276 436 276 436 399 485 c 1,16,17
 415 473 415 473 412 458 c 0,18,19
 409 448 409 448 389 439 c 0,20,21
 372 432 372 432 342 420 c 0,22,23
 312 409 312 409 306 407 c 0,24,25
 273 394 273 394 219 361 c 0,26,27
 206 353 206 353 195.5 344.5 c 128,-1,28
 185 336 185 336 175.5 325.5 c 128,-1,29
 166 315 166 315 161 309 c 128,-1,30
 156 303 156 303 146.5 289 c 128,-1,31
 137 275 137 275 134 272 c 1,32,33
 139 273 139 273 161.5 280.5 c 128,-1,34
 184 288 184 288 205 288 c 0,35,36
 236 289 236 289 271.5 278.5 c 128,-1,37
 307 268 307 268 335 244 c 0,38,39
 351 230 351 230 357 218 c 0,40,41
 364 203 364 203 366 183 c 0,42,43
 372 109 372 109 362 62 c 0,44,45
 358 44 358 44 368.5 36 c 128,-1,46
 379 28 379 28 393 28 c 0,47,48
 401 29 401 29 421 34 c 0,49,50
 429 36 429 36 434 40 c 0,51,52
 443 45 443 45 450.5 50.5 c 128,-1,53
 458 56 458 56 465 60 c 128,-1,54
 472 64 472 64 478 62 c 128,-1,55
 484 60 484 60 486 50 c 1,56,57
 470 21 470 21 424 2 c 0,58,59
 368 -20 368 -20 344 11 c 0,60,61
 331 28 331 28 330 44 c 0,62,63
 329 55 329 55 334 89 c 0,64,65
 339 127 339 127 327 185 c 0,66,67
 320 220 320 220 286 237 c 0,68,69
 251 255 251 255 206 256 c 0,70,71
 172 256 172 256 142.5 236 c 128,-1,72
 113 216 113 216 103 187 c 0,73,74
 91 151 91 151 84 72 c 0,75,76
 83 62 83 62 82.5 45 c 128,-1,77
 82 28 82 28 80.5 19 c 128,-1,78
 79 10 79 10 74 1 c 0,79,80
 65 -12 65 -12 48 -7 c 0,81,82
 34 -3 34 -3 36 14 c 0,83,84
 45 85 45 85 46 90 c 0,85,86
 49 109 49 109 56 162 c 0,87,88
 64 219 64 219 68 266 c 0,89,90
 73 333 73 333 75 349 c 0,91,92
 78 372 78 372 81 410 c 0,93,94
 85 460 85 460 89 486 c 0,95,96
 92 503 92 503 108 503 c 0,0,1
EndSplineSet
Validated: 33
EndChar

StartChar: uni043B
Encoding: 1083 1083 222
Width: 510
GlyphClass: 2
Flags: W
LayerCount: 2
Fore
SplineSet
359 2.5 m 128,-1,1
 349 11 349 11 342 21 c 0,2,3
 331 38 331 38 314 116 c 0,4,5
 308 144 308 144 307 159 c 128,-1,6
 306 174 306 174 308 221 c 0,7,8
 310 286 310 286 311 294 c 2,9,-1
 310 300 l 1,10,11
 306 296 306 296 297 267 c 0,12,13
 281 217 281 217 225 104 c 0,14,15
 187 27 187 27 136 0 c 0,16,17
 119 -9 119 -9 93 -1 c 128,-1,18
 67 7 67 7 48 28 c 0,19,20
 30 47 30 47 23.5 63.5 c 128,-1,21
 17 80 17 80 25 87 c 0,22,23
 31 92 31 92 38 88 c 128,-1,24
 45 84 45 84 50 74 c 0,25,26
 60 54 60 54 79.5 39.5 c 128,-1,27
 99 25 99 25 115 25 c 0,28,29
 126 25 126 25 146 41.5 c 128,-1,30
 166 58 166 58 181 79 c 0,31,32
 193 96 193 96 232 179 c 128,-1,33
 271 262 271 262 271 270 c 0,34,35
 271 274 271 274 277 290 c 0,36,37
 287 315 287 315 307 377.5 c 128,-1,38
 327 440 327 440 327 445 c 0,39,40
 327 454 327 454 336 479 c 128,-1,41
 345 504 345 504 348 507 c 0,42,43
 359 514 359 514 368 492 c 0,44,45
 372 481 372 481 366 448 c 0,46,47
 339 307 339 307 343 202 c 0,48,49
 348 82 348 82 377 42 c 0,50,51
 382 35 382 35 385.5 33 c 128,-1,52
 389 31 389 31 398 31 c 0,53,54
 412 31 412 31 429.5 42.5 c 128,-1,55
 447 54 447 54 460.5 67.5 c 128,-1,56
 474 81 474 81 480 81 c 0,57,58
 488 81 488 81 491 73 c 0,59,60
 494 62 494 62 470 40 c 0,61,62
 459 29 459 29 444 18 c 0,63,64
 436 12 436 12 421 2 c 128,-1,65
 406 -8 406 -8 387 -7 c 0,66,0
 369 -6 369 -6 359 2.5 c 128,-1,1
EndSplineSet
Validated: 33
EndChar

StartChar: uni043C
Encoding: 1084 1084 223
Width: 717
GlyphClass: 2
Flags: W
LayerCount: 2
Fore
SplineSet
58 10 m 0,0,1
 30 23 30 23 9.5 52.5 c 128,-1,2
 -11 82 -11 82 2 93 c 0,3,4
 8 98 8 98 15 94 c 128,-1,5
 22 90 22 90 27 80 c 0,6,7
 37 60 37 60 56.5 45.5 c 128,-1,8
 76 31 76 31 92 31 c 0,9,10
 103 31 103 31 123 47.5 c 128,-1,11
 143 64 143 64 158 85 c 0,12,13
 170 102 170 102 209 185 c 128,-1,14
 248 268 248 268 248 276 c 0,15,16
 248 280 248 280 254 296 c 0,17,18
 264 321 264 321 284 380.5 c 128,-1,19
 304 440 304 440 304 445 c 0,20,21
 304 454 304 454 313 479 c 128,-1,22
 322 504 322 504 326 507 c 0,23,24
 337 514 337 514 345 492 c 0,25,26
 349 481 349 481 343 448 c 0,27,28
 316 307 316 307 320 207 c 0,29,30
 322 164 322 164 330 113 c 128,-1,31
 338 62 338 62 343 53 c 0,32,33
 354 37 354 37 364 36.5 c 128,-1,34
 374 36 374 36 386 52 c 0,35,36
 425 103 425 103 457 212 c 0,37,38
 482 293 482 293 494 334 c 0,39,40
 501 356 501 356 513 398 c 0,41,42
 546 506 546 506 553 510 c 0,43,44
 564 517 564 517 572 495 c 0,45,46
 576 484 576 484 570 451 c 0,47,48
 543 310 543 310 547 211 c 0,49,50
 552 91 552 91 581 51 c 0,51,52
 586 44 586 44 589.5 42 c 128,-1,53
 593 40 593 40 602 40 c 0,54,55
 616 40 616 40 633.5 51.5 c 128,-1,56
 651 63 651 63 664.5 76.5 c 128,-1,57
 678 90 678 90 684 90 c 0,58,59
 692 90 692 90 695 82 c 128,-1,60
 698 74 698 74 692 69 c 0,61,62
 688 65 688 65 687 60 c 0,63,64
 687 57 687 57 675 45.5 c 128,-1,65
 663 34 663 34 659 34 c 0,66,67
 657 34 657 34 648 27 c 0,68,69
 640 21 640 21 620.5 12.5 c 128,-1,70
 601 4 601 4 591 2 c 0,71,72
 583 1 583 1 568.5 10 c 128,-1,73
 554 19 554 19 546 30 c 0,74,75
 532 51 532 51 518 125 c 0,76,77
 512 154 512 154 511 168.5 c 128,-1,78
 510 183 510 183 512 230 c 0,79,80
 513 248 513 248 513 262.5 c 128,-1,81
 513 277 513 277 513 285 c 128,-1,82
 513 293 513 293 512 293 c 0,83,84
 510 291 510 291 506 269 c 128,-1,85
 502 247 502 247 492 222 c 128,-1,86
 482 197 482 197 465 147 c 0,87,88
 430 44 430 44 405 25 c 0,89,90
 394 17 394 17 392 16 c 0,91,92
 388 11 388 11 377 7.5 c 128,-1,93
 366 4 366 4 356 5 c 0,94,95
 334 8 334 8 325 18.5 c 128,-1,96
 316 29 316 29 304 64 c 0,97,98
 289 108 289 108 288 236 c 0,99,100
 287 307 287 307 285 302.5 c 128,-1,101
 283 298 283 298 274 273 c 0,102,103
 258 222 258 222 202 110 c 0,104,105
 163 31 163 31 113 6 c 0,106,107
 91 -5 91 -5 58 10 c 0,0,1
EndSplineSet
EndChar

StartChar: uni043D
Encoding: 1085 1085 224
Width: 505
GlyphClass: 2
Flags: W
LayerCount: 2
Fore
SplineSet
345 1 m 0,0,1
 326 6 326 6 317 38 c 0,2,3
 305 76 305 76 318 154 c 0,4,5
 324 191 324 191 327 212 c 128,-1,6
 330 233 330 233 332.5 246 c 128,-1,7
 335 259 335 259 337 273 c 2,8,-1
 338 288 l 1,9,-1
 332 281 l 2,10,11
 325 274 325 274 307.5 267 c 128,-1,12
 290 260 290 260 279 260 c 0,13,14
 266 260 266 260 233 262 c 0,15,16
 209 264 209 264 201.5 263 c 128,-1,17
 194 262 194 262 180 256 c 0,18,19
 131 235 131 235 112 201 c 0,20,21
 108 193 108 193 99 158 c 128,-1,22
 90 123 90 123 88 74 c 2,23,-1
 86 24 l 1,24,-1
 76 16 l 2,25,26
 69 10 69 10 55.5 6 c 128,-1,27
 42 2 42 2 38 5 c 0,28,29
 33 8 33 8 36 43 c 128,-1,30
 39 78 39 78 49 115 c 0,31,32
 57 147 57 147 59 173.5 c 128,-1,33
 61 200 61 200 65.5 227 c 128,-1,34
 70 254 70 254 71.5 273 c 128,-1,35
 73 292 73 292 77 318 c 0,36,37
 96 442 96 442 100 473 c 0,38,39
 103 493 103 493 104.5 498 c 128,-1,40
 106 503 106 503 114 507 c 0,41,42
 120 511 120 511 125.5 513 c 128,-1,43
 131 515 131 515 134.5 514 c 128,-1,44
 138 513 138 513 138 510 c 0,45,46
 138 505 138 505 133.5 466 c 128,-1,47
 129 427 129 427 125.5 397.5 c 128,-1,48
 122 368 122 368 114 321 c 0,49,50
 101 247 101 247 108 246 c 0,51,52
 111 246 111 246 119 255 c 128,-1,53
 127 264 127 264 158 278 c 0,54,55
 184 291 184 291 198.5 292.5 c 128,-1,56
 213 294 213 294 257 290 c 0,57,58
 281 288 281 288 287 288 c 128,-1,59
 293 288 293 288 303 293 c 0,60,61
 327 305 327 305 335 325 c 0,62,63
 349 358 349 358 354 412 c 0,64,65
 356 437 356 437 363 468.5 c 128,-1,66
 370 500 370 500 375 505 c 0,67,68
 380 511 380 511 387 511 c 128,-1,69
 394 511 394 511 398 505 c 0,70,71
 403 497 403 497 391 423 c 0,72,73
 388 404 388 404 385.5 384.5 c 128,-1,74
 383 365 383 365 378 334 c 128,-1,75
 373 303 373 303 370.5 268 c 128,-1,76
 368 233 368 233 360 174 c 128,-1,77
 352 115 352 115 352 83 c 128,-1,78
 352 51 352 51 358 43 c 0,79,80
 376 18 376 18 440 62 c 0,81,82
 461 77 461 77 469 66 c 0,83,84
 477 54 477 54 450 33 c 0,85,86
 432 19 432 19 430 19 c 128,-1,87
 428 19 428 19 423 14 c 0,88,89
 419 10 419 10 396 4 c 128,-1,90
 373 -2 373 -2 363 -2 c 0,91,92
 354 -2 354 -2 345 1 c 0,0,1
EndSplineSet
Validated: 33
EndChar

StartChar: uni0444
Encoding: 1092 1092 231
Width: 603
GlyphClass: 2
Flags: W
LayerCount: 2
Fore
SplineSet
197 516 m 0,0,1
 210 516 210 516 220 513 c 128,-1,2
 230 510 230 510 234.5 507.5 c 128,-1,3
 239 505 239 505 255 495 c 0,4,5
 273 483 273 483 283 479 c 128,-1,6
 293 475 293 475 303 464 c 2,7,-1
 309 458 l 1,8,9
 309 460 309 460 309 468.5 c 128,-1,10
 309 477 309 477 309.5 480 c 128,-1,11
 310 483 310 483 311 489.5 c 128,-1,12
 312 496 312 496 314 499.5 c 128,-1,13
 316 503 316 503 320 506 c 128,-1,14
 324 509 324 509 329 510 c 0,15,16
 338 511 338 511 343 508.5 c 128,-1,17
 348 506 348 506 349.5 500 c 128,-1,18
 351 494 351 494 350.5 488.5 c 128,-1,19
 350 483 350 483 349 474.5 c 128,-1,20
 348 466 348 466 348 462 c 1,21,22
 364 486 364 486 391 500 c 0,23,24
 409 510 409 510 415.5 512 c 128,-1,25
 422 514 422 514 437 514 c 0,26,27
 450 514 450 514 459.5 511.5 c 128,-1,28
 469 509 469 509 473.5 506 c 128,-1,29
 478 503 478 503 494 493 c 0,30,31
 512 481 512 481 522 477 c 128,-1,32
 532 473 532 473 542 462 c 2,33,-1
 552 452 l 1,34,35
 585 333 585 333 552 187 c 0,36,37
 524 62 524 62 482 26 c 0,38,39
 460 6 460 6 439 1 c 0,40,41
 409 -6 409 -6 378 0 c 0,42,43
 343 7 343 7 315 34 c 0,44,45
 307 41 307 41 301 51 c 1,46,47
 269 -249 269 -249 264 -344 c 1,48,49
 271 -367 271 -367 252.5 -376 c 128,-1,50
 234 -385 234 -385 223 -364 c 1,51,52
 222 -342 222 -342 229 -302.5 c 128,-1,53
 236 -263 236 -263 236 -253 c 0,54,55
 243 -211 243 -211 270 57 c 1,56,57
 258 36 258 36 242 24 c 0,58,59
 220 4 220 4 199 -1 c 0,60,61
 169 -9 169 -9 138 -2 c 0,62,63
 103 5 103 5 75 33 c 0,64,65
 55 52 55 52 41 100 c 0,66,67
 37 113 37 113 35 164 c 0,68,69
 33 235 33 235 51 294 c 0,70,71
 57 313 57 313 66 348 c 0,72,73
 85 420 85 420 101 452 c 128,-1,74
 117 484 117 484 151 502 c 0,75,76
 169 512 169 512 175.5 514 c 128,-1,77
 182 516 182 516 197 516 c 0,0,1
197 476 m 0,78,79
 195 476 195 476 193 476 c 0,80,81
 156 470 156 470 147 457 c 0,82,83
 142 450 142 450 126 412 c 0,84,85
 123 396 123 396 118.5 378 c 128,-1,86
 114 360 114 360 108 342 c 128,-1,87
 102 324 102 324 101 317 c 0,88,89
 66 181 66 181 82 112 c 0,90,91
 88 86 88 86 91 78 c 0,92,93
 101 56 101 56 127 38 c 0,94,95
 139 29 139 29 178 30 c 0,96,97
 196 30 196 30 201.5 31.5 c 128,-1,98
 207 33 207 33 215 41 c 0,99,100
 232 56 232 56 241 77 c 0,101,102
 258 123 258 123 269 186 c 0,103,104
 273 210 273 210 279 237 c 0,105,106
 281 253 281 253 285 270 c 0,107,108
 288 292 288 292 291 316 c 0,109,110
 294 352 294 352 297 365 c 0,111,112
 305 409 305 409 270.5 442.5 c 128,-1,113
 236 476 236 476 197 476 c 0,78,79
437 474 m 0,114,115
 435 474 435 474 432 474 c 0,116,117
 397 468 397 468 386 455 c 0,118,119
 369 435 369 435 361 411 c 0,120,121
 356 396 356 396 354 377 c 0,122,123
 350 351 350 351 347 342 c 0,124,125
 341 324 341 324 339 317 c 0,126,127
 331 278 331 278 324 238 c 0,128,129
 323 233 323 233 322 226 c 0,130,131
 312 157 312 157 322 113 c 0,132,133
 328 88 328 88 331 80 c 0,134,135
 341 58 341 58 367 40 c 0,136,137
 379 31 379 31 417 32 c 0,138,139
 435 32 435 32 440.5 33.5 c 128,-1,140
 446 35 446 35 454 42 c 0,141,142
 471 57 471 57 480 79 c 0,143,144
 497 125 497 125 508 187 c 0,145,146
 518 239 518 239 522 259.5 c 128,-1,147
 526 280 526 280 528.5 315.5 c 128,-1,148
 531 351 531 351 533 364 c 0,149,150
 541 405 541 405 507 440 c 0,151,152
 474 474 474 474 437 474 c 0,114,115
EndSplineSet
Validated: 33
EndChar

StartChar: uni0446
Encoding: 1094 1094 233
Width: 555
GlyphClass: 2
Flags: W
LayerCount: 2
Fore
SplineSet
409.5 -194.5 m 128,-1,1
 402 -193 402 -193 394.5 -184.5 c 128,-1,2
 387 -176 387 -176 385 -167 c 0,3,4
 379 -145 379 -145 388 -110 c 0,5,6
 401 -63 401 -63 421 -43 c 0,7,8
 435 -28 435 -28 435 -27 c 0,9,10
 428 -6 428 -6 413 2 c 0,11,12
 400 8 400 8 379 0 c 0,13,14
 367 -5 367 -5 352 -4 c 128,-1,15
 337 -3 337 -3 329 4 c 0,16,17
 327 6 327 6 325 8 c 128,-1,18
 323 10 323 10 321.5 11.5 c 128,-1,19
 320 13 320 13 318.5 17 c 128,-1,20
 317 21 317 21 316 23 c 128,-1,21
 315 25 315 25 312 31 c 0,22,23
 310 38 310 38 309 40 c 2,24,-1
 305 57 l 1,25,-1
 298 48 l 2,26,27
 290 38 290 38 280 32 c 0,28,29
 268 26 268 26 256 18 c 0,30,31
 245 11 245 11 213.5 4.5 c 128,-1,32
 182 -2 182 -2 165 -2 c 0,33,34
 149 -2 149 -2 121 7 c 0,35,36
 104 13 104 13 98 15.5 c 128,-1,37
 92 18 92 18 83 25.5 c 128,-1,38
 74 33 74 33 60 49 c 0,39,40
 47 64 47 64 41 85 c 128,-1,41
 35 106 35 106 35 126 c 128,-1,42
 35 146 35 146 35 167 c 0,43,44
 37 249 37 249 48 284 c 0,45,46
 51 294 51 294 54 321.5 c 128,-1,47
 57 349 57 349 69.5 413 c 128,-1,48
 82 477 82 477 82 489 c 0,49,50
 82 504 82 504 94.5 509.5 c 128,-1,51
 107 515 107 515 119 506 c 0,52,53
 124 502 124 502 124.5 499 c 128,-1,54
 125 496 125 496 123 487 c 0,55,56
 118 464 118 464 117 458 c 0,57,58
 114 431 114 431 104 387 c 0,59,60
 99 365 99 365 91 324 c 128,-1,61
 83 283 83 283 78 264 c 0,62,63
 69 224 69 224 71 161 c 128,-1,64
 73 98 73 98 85 70 c 1,65,66
 101 50 101 50 126.5 38 c 128,-1,67
 152 26 152 26 171 26 c 0,68,69
 189 26 189 26 217 39.5 c 128,-1,70
 245 53 245 53 261 70 c 0,71,72
 307 117 307 117 314 165 c 0,73,74
 320 209 320 209 326 243 c 0,75,76
 329 259 329 259 333.5 294.5 c 128,-1,77
 338 330 338 330 341 348 c 0,78,79
 349 405 349 405 352 476 c 0,80,81
 353 499 353 499 354.5 503 c 128,-1,82
 356 507 356 507 361 509 c 0,83,84
 368 512 368 512 378 508.5 c 128,-1,85
 388 505 388 505 392 498 c 0,86,87
 401 486 401 486 390 420 c 0,88,89
 387 401 387 401 384 380 c 128,-1,90
 381 359 381 359 376.5 331 c 128,-1,91
 372 303 372 303 370 272 c 0,92,93
 364 190 364 190 350 128 c 0,94,95
 346 111 346 111 345 84.5 c 128,-1,96
 344 58 344 58 347 48 c 0,97,98
 349 40 349 40 356 37 c 0,99,100
 364 33 364 33 394 35 c 0,101,102
 410 36 410 36 420 32 c 0,103,104
 427 28 427 28 443 11 c 2,105,-1
 458 -5 l 1,106,-1
 465 2 l 2,107,108
 472 9 472 9 484 22 c 0,109,110
 505 45 505 45 512 45 c 0,111,112
 514 45 514 45 518 41 c 0,113,114
 523 36 523 36 519 31 c 128,-1,115
 515 26 515 26 499 7 c 0,116,117
 476 -21 476 -21 475 -24 c 0,118,119
 475 -25 475 -25 474.5 -26 c 128,-1,120
 474 -27 474 -27 475 -29 c 128,-1,121
 476 -31 476 -31 477 -32.5 c 128,-1,122
 478 -34 478 -34 480.5 -37.5 c 128,-1,123
 483 -41 483 -41 485 -44 c 0,124,125
 504 -72 504 -72 509 -85 c 128,-1,126
 514 -98 514 -98 519 -135 c 0,127,128
 522 -155 522 -155 512.5 -170.5 c 128,-1,129
 503 -186 503 -186 485 -190 c 0,130,131
 474 -193 474 -193 445.5 -194.5 c 128,-1,0
 417 -196 417 -196 409.5 -194.5 c 128,-1,1
460 -175 m 0,132,133
 482 -172 482 -172 490 -166 c 0,134,135
 495 -162 495 -162 495.5 -158.5 c 128,-1,136
 496 -155 496 -155 495 -145 c 0,137,138
 489 -97 489 -97 468 -69 c 2,139,-1
 455 -49 l 1,140,-1
 442 -64 l 2,141,142
 429 -80 429 -80 418 -102.5 c 128,-1,143
 407 -125 407 -125 405 -138 c 0,144,145
 400 -165 400 -165 405 -171 c 0,146,147
 414 -182 414 -182 460 -175 c 0,132,133
EndSplineSet
Validated: 33
EndChar

StartChar: uni0447
Encoding: 1095 1095 234
Width: 452
GlyphClass: 2
Flags: W
LayerCount: 2
Fore
SplineSet
322 508 m 0,0,1
 338 509 338 509 345 497 c 0,2,3
 351 487 351 487 348 470 c 0,4,5
 342 431 342 431 340 415 c 0,6,7
 337 388 337 388 333 362 c 2,8,9
 333 362 333 362 311 196 c 0,10,11
 300 90 300 90 300 72 c 0,12,13
 300 45 300 45 313 41 c 0,14,15
 339 25 339 25 381 52 c 1,16,17
 392 66 392 66 409 65 c 0,18,19
 422 64 422 64 416 47 c 1,20,21
 384 5 384 5 326 -2 c 0,22,23
 302 -5 302 -5 284 7 c 0,24,25
 262 20 262 20 261 42 c 0,26,27
 259 86 259 86 260 89 c 0,28,29
 262 142 262 142 268 182 c 0,30,31
 274 226 274 226 281 270 c 1,32,33
 247 247 247 247 205.5 239.5 c 128,-1,34
 164 232 164 232 125 241 c 0,35,36
 91 248 91 248 68 275 c 0,37,38
 42 304 42 304 38 338 c 0,39,40
 35 364 35 364 38 410 c 0,41,42
 43 479 43 479 48.5 492.5 c 128,-1,43
 54 506 54 506 67 508 c 0,44,45
 94 511 94 511 82 456 c 0,46,47
 77 432 77 432 73 376 c 0,48,49
 71 346 71 346 82.5 317.5 c 128,-1,50
 94 289 94 289 118 279 c 0,51,52
 168 258 168 258 216 274 c 0,53,54
 269 291 269 291 282 328 c 0,55,56
 296 366 296 366 305 454 c 0,57,58
 307 472 307 472 306 475 c 0,59,60
 305 486 305 486 308 496 c 0,61,62
 311 507 311 507 322 508 c 0,0,1
EndSplineSet
Validated: 33
EndChar

StartChar: uni0448
Encoding: 1096 1096 235
Width: 729
GlyphClass: 2
Flags: W
LayerCount: 2
Fore
SplineSet
568 -2 m 0,0,1
 561 0 561 0 552.5 9 c 128,-1,2
 544 18 544 18 544 22 c 0,3,4
 544 25 544 25 539 41 c 2,5,-1
 534 57 l 1,6,-1
 528 48 l 2,7,8
 522 39 522 39 510 32.5 c 128,-1,9
 498 26 498 26 486 18 c 0,10,11
 452 -4 452 -4 410 -1 c 0,12,13
 363 3 363 3 352 8 c 128,-1,14
 341 13 341 13 329 23.5 c 128,-1,15
 317 34 317 34 312 44 c 0,16,17
 303 61 303 61 299.5 62 c 128,-1,18
 296 63 296 63 284 51 c 0,19,20
 269 37 269 37 259 32 c 128,-1,21
 249 27 249 27 236 19 c 0,22,23
 224 11 224 11 202.5 4.5 c 128,-1,24
 181 -2 181 -2 165 -2 c 128,-1,25
 149 -2 149 -2 121 7 c 0,26,27
 101 14 101 14 94.5 18 c 128,-1,28
 88 22 88 22 74 38 c 0,29,30
 57 56 57 56 53 63.5 c 128,-1,31
 49 71 49 71 42 93 c 0,32,33
 37 109 37 109 35.5 119.5 c 128,-1,34
 34 130 34 130 36 167 c 0,35,36
 38 249 38 249 48 284 c 0,37,38
 51 294 51 294 54 321.5 c 128,-1,39
 57 349 57 349 69.5 413 c 128,-1,40
 82 477 82 477 82 489 c 0,41,42
 82 504 82 504 95 509.5 c 128,-1,43
 108 515 108 515 120 506 c 0,44,45
 125 502 125 502 125 499 c 128,-1,46
 125 496 125 496 123 487 c 0,47,48
 120 474 120 474 118 458 c 0,49,50
 115 431 115 431 104 387 c 0,51,52
 99 365 99 365 91 324 c 128,-1,53
 83 283 83 283 79 264 c 0,54,55
 70 224 70 224 72 161 c 128,-1,56
 74 98 74 98 85 70 c 0,57,58
 94 49 94 49 141 35 c 0,59,60
 168 27 168 27 172 26 c 0,61,62
 177 24 177 24 199.5 37.5 c 128,-1,63
 222 51 222 51 233 62 c 0,64,65
 274 103 274 103 283 123 c 0,66,67
 289 137 289 137 292.5 165 c 128,-1,68
 296 193 296 193 305 297 c 0,69,70
 308 326 308 326 318.5 393 c 128,-1,71
 329 460 329 460 330.5 482 c 128,-1,72
 332 504 332 504 337 507 c 0,73,74
 342 511 342 511 353 510.5 c 128,-1,75
 364 510 364 510 370 506 c 0,76,77
 375 502 375 502 375.5 498 c 128,-1,78
 376 494 376 494 373 476 c 0,79,80
 369 451 369 451 365 427.5 c 128,-1,81
 361 404 361 404 358 381.5 c 128,-1,82
 355 359 355 359 351 331 c 128,-1,83
 347 303 347 303 345 274 c 0,84,85
 339 171 339 171 330 131 c 0,86,87
 323 99 323 99 336 70 c 0,88,89
 345 49 345 49 383 38 c 0,90,91
 401 33 401 33 414 29 c 0,92,93
 423 26 423 26 427.5 27 c 128,-1,94
 432 28 432 28 448 36 c 0,95,96
 469 47 469 47 491 70 c 128,-1,97
 513 93 513 93 527 117 c 0,98,99
 540 141 540 141 544 165 c 0,100,101
 550 209 550 209 556 243 c 0,102,103
 559 259 559 259 563.5 294.5 c 128,-1,104
 568 330 568 330 571 348 c 0,105,106
 577 391 577 391 582 476 c 0,107,108
 583 499 583 499 584.5 503 c 128,-1,109
 586 507 586 507 591 509 c 0,110,111
 598 512 598 512 608 508.5 c 128,-1,112
 618 505 618 505 622 498 c 0,113,114
 627 490 627 490 615 420 c 0,115,116
 612 401 612 401 609 380 c 128,-1,117
 606 359 606 359 601.5 331 c 128,-1,118
 597 303 597 303 595 272 c 0,119,120
 589 172 589 172 580 128 c 0,121,122
 575 106 575 106 575 83 c 2,123,-1
 575 59 l 1,124,-1
 588 48 l 2,125,126
 601 37 601 37 611 37 c 0,127,128
 631 37 631 37 664 59 c 0,129,130
 685 74 685 74 692 63 c 0,131,132
 700 51 700 51 674 30 c 0,133,134
 656 16 656 16 654 16 c 0,135,136
 653 16 653 16 647 11 c 0,137,138
 643 7 643 7 620 1 c 128,-1,139
 597 -5 597 -5 586 -4 c 0,140,141
 577 -5 577 -5 568 -2 c 0,0,1
EndSplineSet
Validated: 33
EndChar

StartChar: uni0449
Encoding: 1097 1097 236
Width: 782
GlyphClass: 2
Flags: W
LayerCount: 2
Fore
SplineSet
637 -194.5 m 128,-1,1
 630 -193 630 -193 622 -184.5 c 128,-1,2
 614 -176 614 -176 612 -167 c 0,3,4
 606 -145 606 -145 614 -110 c 0,5,6
 626 -70 626 -70 648 -43 c 0,7,8
 662 -28 662 -28 662 -25 c 0,9,10
 662 -21 662 -21 649 -8 c 128,-1,11
 636 5 636 5 632 5 c 0,12,13
 628 4 628 4 616 0 c 0,14,15
 598 -6 598 -6 582 -3 c 128,-1,16
 566 0 566 0 556 11 c 0,17,18
 548 20 548 20 546 23 c 128,-1,19
 544 26 544 26 538 42 c 2,20,-1
 534 57 l 1,21,-1
 528 48 l 2,22,23
 522 39 522 39 510 32.5 c 128,-1,24
 498 26 498 26 486 18 c 0,25,26
 452 -4 452 -4 410 -1 c 0,27,28
 362 3 362 3 351 8 c 128,-1,29
 340 13 340 13 328 23.5 c 128,-1,30
 316 34 316 34 312 44 c 0,31,32
 302 61 302 61 299 62 c 128,-1,33
 296 63 296 63 284 51 c 0,34,35
 268 37 268 37 258 32 c 128,-1,36
 248 27 248 27 236 19 c 256,37,38
 224 11 224 11 202 4.5 c 128,-1,39
 180 -2 180 -2 166 -2 c 0,40,41
 150 -2 150 -2 120 7 c 0,42,43
 100 14 100 14 94 18 c 128,-1,44
 88 22 88 22 74 38 c 0,45,46
 56 56 56 56 52 63.5 c 128,-1,47
 48 71 48 71 42 93 c 0,48,49
 36 109 36 109 35 119.5 c 128,-1,50
 34 130 34 130 36 167 c 0,51,52
 38 249 38 249 48 284 c 0,53,54
 52 294 52 294 54 321.5 c 128,-1,55
 56 349 56 349 69 413 c 128,-1,56
 82 477 82 477 82 489 c 0,57,58
 82 504 82 504 95 509.5 c 128,-1,59
 108 515 108 515 120 506 c 0,60,61
 124 502 124 502 125 499 c 128,-1,62
 126 496 126 496 122 487 c 0,63,64
 120 474 120 474 118 458 c 0,65,66
 114 431 114 431 104 387 c 0,67,68
 98 365 98 365 90 324 c 128,-1,69
 82 283 82 283 78 264 c 0,70,71
 70 224 70 224 72 161 c 128,-1,72
 74 98 74 98 84 70 c 0,73,74
 94 49 94 49 140 35 c 0,75,76
 168 27 168 27 172 26 c 0,77,78
 176 24 176 24 199 37.5 c 128,-1,79
 222 51 222 51 234 62 c 0,80,81
 274 103 274 103 282 123 c 0,82,83
 288 137 288 137 292 165 c 128,-1,84
 296 193 296 193 304 297 c 0,85,86
 308 326 308 326 318 393 c 128,-1,87
 328 460 328 460 330 482 c 128,-1,88
 332 504 332 504 336 507 c 0,89,90
 342 511 342 511 353 510.5 c 128,-1,91
 364 510 364 510 370 506 c 0,92,93
 374 502 374 502 375 498 c 128,-1,94
 376 494 376 494 372 476 c 0,95,96
 368 451 368 451 364 427.5 c 128,-1,97
 360 404 360 404 357 381.5 c 128,-1,98
 354 359 354 359 350 331 c 128,-1,99
 346 303 346 303 344 274 c 0,100,101
 338 171 338 171 330 131 c 0,102,103
 322 99 322 99 336 70 c 0,104,105
 344 49 344 49 382 38 c 0,106,107
 400 33 400 33 414 29 c 0,108,109
 422 26 422 26 427 27 c 128,-1,110
 432 28 432 28 448 36 c 0,111,112
 468 47 468 47 491 70 c 128,-1,113
 514 93 514 93 527 117 c 128,-1,114
 540 141 540 141 544 165 c 0,115,116
 550 209 550 209 556 243 c 0,117,118
 558 259 558 259 563 294.5 c 128,-1,119
 568 330 568 330 570 348 c 0,120,121
 576 391 576 391 582 476 c 0,122,123
 582 499 582 499 584 503 c 128,-1,124
 586 507 586 507 592 509 c 0,125,126
 598 512 598 512 608 508.5 c 128,-1,127
 618 505 618 505 622 498 c 0,128,129
 626 490 626 490 614 420 c 0,130,131
 612 401 612 401 609 380 c 128,-1,132
 606 359 606 359 601 330.5 c 128,-1,133
 596 302 596 302 594 270 c 0,134,135
 590 199 590 199 582 141 c 0,136,137
 582 128 582 128 584 129 c 128,-1,138
 586 130 586 130 586 126 c 0,139,140
 586 124 586 124 584 120 c 0,141,142
 582 111 582 111 581 84 c 128,-1,143
 580 57 580 57 582 48 c 0,144,145
 588 28 588 28 624 35 c 0,146,147
 644 39 644 39 670 12 c 2,148,-1
 684 -5 l 1,149,-1
 692 2 l 2,150,151
 698 9 698 9 710 22 c 0,152,153
 732 45 732 45 738 45 c 0,154,155
 740 45 740 45 746 41 c 0,156,157
 750 37 750 37 746 31 c 128,-1,158
 742 25 742 25 726 7 c 0,159,160
 708 -10 708 -10 708 -15.5 c 128,-1,161
 708 -21 708 -21 705 -24.5 c 128,-1,162
 702 -28 702 -28 712 -44 c 0,163,164
 732 -72 732 -72 736 -85 c 128,-1,165
 740 -98 740 -98 746 -135 c 0,166,167
 748 -155 748 -155 739 -170.5 c 128,-1,168
 730 -186 730 -186 712 -190 c 0,169,170
 700 -193 700 -193 672 -194.5 c 128,-1,0
 644 -196 644 -196 637 -194.5 c 128,-1,1
686 -175 m 0,171,172
 708 -172 708 -172 716 -166 c 0,173,174
 722 -162 722 -162 723 -158.5 c 128,-1,175
 724 -155 724 -155 722 -145 c 0,176,177
 716 -102 716 -102 694 -69 c 2,178,-1
 682 -49 l 1,179,-1
 668 -64 l 2,180,181
 656 -79 656 -79 656 -83.5 c 128,-1,182
 656 -88 656 -88 650 -96 c 128,-1,183
 644 -104 644 -104 639 -118 c 128,-1,184
 634 -132 634 -132 631 -138 c 128,-1,185
 628 -144 628 -144 628 -155.5 c 128,-1,186
 628 -167 628 -167 632 -171 c 0,187,188
 640 -182 640 -182 686 -175 c 0,171,172
EndSplineSet
Validated: 33
EndChar

StartChar: uni044A
Encoding: 1098 1098 237
Width: 489
GlyphClass: 2
Flags: W
LayerCount: 2
Fore
SplineSet
246 504 m 0,0,1
 268 504 268 504 264 483 c 0,2,3
 263 477 263 477 254 439 c 0,4,5
 247 412 247 412 242 390 c 0,6,7
 237 372 237 372 230.5 341.5 c 128,-1,8
 224 311 224 311 220 285 c 1,9,10
 238 301 238 301 257 308 c 0,11,12
 307 325 307 325 362 311 c 0,13,14
 385 306 385 306 405 293 c 0,15,16
 443 269 443 269 453 191 c 0,17,18
 461 129 461 129 430 64 c 0,19,20
 410 22 410 22 373 6 c 0,21,22
 334 -11 334 -11 265 -5 c 0,23,24
 234 -2 234 -2 214 13 c 0,25,26
 200 24 200 24 193 34.5 c 128,-1,27
 186 45 186 45 182 65 c 0,28,29
 162 154 162 154 182 262 c 0,30,31
 198 352 198 352 222 454 c 1,32,-1
 211 449 l 2,33,34
 200 444 200 444 175 443 c 0,35,36
 140 442 140 442 114 454 c 0,37,38
 92 463 92 463 86 463 c 128,-1,39
 80 463 80 463 64 453 c 128,-1,40
 48 443 48 443 42 443 c 128,-1,41
 36 443 36 443 35 451.5 c 128,-1,42
 34 460 34 460 49.5 474.5 c 128,-1,43
 65 489 65 489 79.5 491.5 c 128,-1,44
 94 494 94 494 117 483.5 c 128,-1,45
 140 473 140 473 167 473 c 128,-1,46
 194 473 194 473 211 482 c 128,-1,47
 228 491 228 491 230.5 494.5 c 128,-1,48
 233 498 233 498 234 499 c 0,49,50
 239 504 239 504 244 504 c 0,51,52
 245 504 245 504 246 504 c 0,0,1
383 266 m 0,53,54
 371 276 371 276 360 279 c 0,55,56
 329 287 329 287 294.5 283 c 128,-1,57
 260 279 260 279 243 270 c 0,58,59
 215 254 215 254 210 225 c 0,60,61
 204 179 204 179 204 148 c 0,62,63
 204 109 204 109 207 95 c 0,64,65
 218 46 218 46 261 26 c 0,66,67
 295 10 295 10 346 23 c 0,68,69
 377 31 377 31 387 48 c 0,70,71
 430 119 430 119 413 217 c 0,72,73
 408 245 408 245 383 266 c 0,53,54
EndSplineSet
Validated: 33
EndChar

StartChar: uni044B
Encoding: 1099 1099 238
Width: 557
GlyphClass: 2
Flags: W
LayerCount: 2
Fore
SplineSet
439 512 m 128,-1,1
 446 512 446 512 450 505 c 0,2,3
 455 497 455 497 443 424 c 0,4,5
 440 405 440 405 437.5 385.5 c 128,-1,6
 435 366 435 366 430.5 335 c 128,-1,7
 426 304 426 304 423 268.5 c 128,-1,8
 420 233 420 233 412 174.5 c 128,-1,9
 404 116 404 116 404 84 c 128,-1,10
 404 52 404 52 410 44 c 0,11,12
 428 19 428 19 492 63 c 0,13,14
 513 78 513 78 521 67 c 0,15,16
 529 55 529 55 502 34 c 0,17,18
 484 20 484 20 482.5 20 c 128,-1,19
 481 20 481 20 475 15 c 0,20,21
 471 11 471 11 448 5 c 128,-1,22
 425 -1 425 -1 415 -1 c 0,23,24
 406 -1 406 -1 397 2 c 0,25,26
 378 7 378 7 369 39 c 0,27,28
 357 77 357 77 370 155 c 0,29,30
 376 192 376 192 379 213 c 128,-1,31
 382 234 382 234 384.5 247 c 128,-1,32
 387 260 387 260 389 274 c 2,33,-1
 391 288 l 1,34,-1
 384 282 l 2,35,36
 377 275 377 275 351 268 c 128,-1,37
 325 261 325 261 312 260 c 0,38,39
 296 260 296 260 263 263 c 1,40,41
 278 239 278 239 283 198 c 0,42,43
 287 168 287 168 284 144 c 0,44,45
 279 110 279 110 260 71 c 0,46,47
 239 28 239 28 210 12.5 c 128,-1,48
 181 -3 181 -3 127 2 c 0,49,50
 106 4 106 4 98.5 6.5 c 128,-1,51
 91 9 91 9 76 20 c 0,52,53
 62 31 62 31 55 41.5 c 128,-1,54
 48 52 48 52 44 72 c 0,55,56
 31 133 31 133 37 205 c 0,57,58
 42 259 42 259 47 284 c 0,59,60
 63 372 63 372 73 408 c 0,61,62
 80 432 80 432 83 444 c 0,63,64
 87 468 87 468 95 501 c 0,65,66
 99 508 99 508 107.5 507.5 c 128,-1,67
 116 507 116 507 120 501 c 0,68,69
 126 492 126 492 125.5 482.5 c 128,-1,70
 125 473 125 473 118 448 c 0,71,72
 108 415 108 415 103.5 393.5 c 128,-1,73
 99 372 99 372 92.5 345.5 c 128,-1,74
 86 319 86 319 85 305 c 2,75,-1
 83 292 l 1,76,-1
 96 304 l 2,77,78
 105 313 105 313 110.5 315.5 c 128,-1,79
 116 318 116 318 133 319 c 0,80,81
 168 322 168 322 215 301 c 0,82,83
 223 300 223 300 233 297 c 0,84,85
 242 295 242 295 259.5 293.5 c 128,-1,86
 277 292 277 292 284 291 c 0,87,88
 329 286 329 286 345 294 c 0,89,90
 381 312 381 312 388 326 c 0,91,92
 402 359 402 359 406 413 c 0,93,94
 408 438 408 438 415 469.5 c 128,-1,95
 422 501 422 501 427 506 c 0,96,0
 432 512 432 512 439 512 c 128,-1,1
131 281 m 0,97,98
 112 281 112 281 105 277 c 0,99,100
 80 264 80 264 75 225 c 0,101,102
 71 200 71 200 68.5 190.5 c 128,-1,103
 66 181 66 181 66 154 c 128,-1,104
 66 127 66 127 69 107 c 0,105,106
 73 78 73 78 85.5 60.5 c 128,-1,107
 98 43 98 43 123 33 c 0,108,109
 153 20 153 20 177 30 c 0,110,111
 203 41 203 41 220 70 c 0,112,113
 228 84 228 84 235 93 c 0,114,115
 244 105 244 105 252 139 c 128,-1,116
 260 173 260 173 258 194 c 0,117,118
 257 212 257 212 246 232 c 0,119,120
 229 259 229 259 182 274 c 0,121,122
 164 281 164 281 131 281 c 0,97,98
EndSplineSet
Validated: 33
EndChar

StartChar: uni044C
Encoding: 1100 1100 239
Width: 345
GlyphClass: 2
Flags: W
LayerCount: 2
Fore
SplineSet
131 -6 m 0,0,1
 101 -3 101 -3 80 12 c 0,2,3
 66 23 66 23 57 34 c 128,-1,4
 48 45 48 45 44 65 c 0,5,6
 31 126 31 126 37 198 c 0,7,8
 42 252 42 252 47 277 c 0,9,10
 69 382 69 382 73 401 c 0,11,12
 82 433 82 433 83 440 c 0,13,14
 87 464 87 464 95 497 c 0,15,16
 97 505 97 505 107 504 c 0,17,18
 116 503 116 503 120 497 c 0,19,20
 126 488 126 488 127 479 c 0,21,22
 129 470 129 470 122 444 c 2,23,-1
 107 387 l 2,24,25
 101 365 101 365 96 339 c 0,26,27
 91 311 91 311 89 298 c 2,28,-1
 87 285 l 1,29,30
 91 293 91 293 114 303 c 0,31,32
 130 310 130 310 161 310 c 0,33,34
 214 310 214 310 252 292 c 0,35,36
 303 269 303 269 313 191 c 0,37,38
 317 161 317 161 313 137 c 0,39,40
 308 103 308 103 290 64 c 0,41,42
 269 21 269 21 233 5 c 0,43,44
 195 -12 195 -12 131 -6 c 0,0,1
196 23 m 0,45,46
 238 33 238 33 252 59 c 0,47,48
 282 112 282 112 284 156 c 0,49,50
 286 204 286 204 275 227 c 0,51,52
 260 258 260 258 233 269 c 0,53,54
 199 283 199 283 154 281 c 0,55,56
 128 280 128 280 109 270 c 0,57,58
 85 258 85 258 79 218 c 0,59,60
 67 142 67 142 73 100 c 0,61,62
 78 67 78 67 89 53 c 0,63,64
 101 38 101 38 127 26 c 0,65,66
 156 13 156 13 196 23 c 0,45,46
EndSplineSet
Validated: 33
EndChar

StartChar: uni044D
Encoding: 1101 1101 240
Width: 419
GlyphClass: 2
Flags: W
LayerCount: 2
Fore
SplineSet
166 -2 m 0,0,1
 141 -1 141 -1 105 22.5 c 128,-1,2
 69 46 69 46 35 81 c 1,3,4
 37 88 37 88 43 88 c 128,-1,5
 49 88 49 88 59.5 82.5 c 128,-1,6
 70 77 70 77 74 73.5 c 128,-1,7
 78 70 78 70 85 66.5 c 128,-1,8
 92 63 92 63 98.5 58 c 128,-1,9
 105 53 105 53 114.5 45.5 c 128,-1,10
 124 38 124 38 128.5 35 c 128,-1,11
 133 32 133 32 140 28 c 0,12,13
 154 21 154 21 191 20 c 0,14,15
 222 20 222 20 244 32 c 128,-1,16
 266 44 266 44 287 69.5 c 128,-1,17
 308 95 308 95 318 122 c 0,18,19
 342 193 342 193 346 240 c 0,20,21
 346 247 346 247 343 258 c 1,22,23
 299 226 299 226 241 229 c 0,24,25
 226 230 226 230 198.5 249 c 128,-1,26
 171 268 171 268 151 268 c 1,27,28
 121 250 121 250 116.5 254.5 c 128,-1,29
 112 259 112 259 124 272 c 0,30,31
 151 301 151 301 200 277 c 0,32,33
 202 276 202 276 211.5 269.5 c 128,-1,34
 221 263 221 263 224 262 c 0,35,36
 243 252 243 252 255 252.5 c 128,-1,37
 267 253 267 253 275 254 c 0,38,39
 306 257 306 257 344 286 c 1,40,41
 355 306 355 306 342 344 c 0,42,43
 340 352 340 352 339.5 354.5 c 128,-1,44
 339 357 339 357 337.5 362 c 128,-1,45
 336 367 336 367 335 369 c 128,-1,46
 334 371 334 371 332.5 374.5 c 128,-1,47
 331 378 331 378 329.5 380.5 c 128,-1,48
 328 383 328 383 326.5 386.5 c 128,-1,49
 325 390 325 390 322 393 c 0,50,51
 301 426 301 426 278 446 c 0,52,53
 251 469 251 469 204 472 c 0,54,55
 180 473 180 473 163 467 c 128,-1,56
 146 461 146 461 141.5 460 c 128,-1,57
 137 459 137 459 126 454 c 128,-1,58
 115 449 115 449 112 448 c 0,59,60
 101 443 101 443 81 433 c 1,61,62
 55 433 55 433 64 452 c 0,63,64
 73 472 73 472 101 478 c 0,65,66
 106 479 106 479 123 485 c 128,-1,67
 140 491 140 491 146.5 493 c 128,-1,68
 153 495 153 495 168 498.5 c 128,-1,69
 183 502 183 502 192 503 c 128,-1,70
 201 504 201 504 214 504 c 0,71,72
 239 506 239 506 259 498 c 0,73,74
 314 476 314 476 335 450 c 128,-1,75
 356 424 356 424 375 364 c 128,-1,76
 394 304 394 304 376 181 c 0,77,78
 359 61 359 61 273 12 c 0,79,80
 243 -5 243 -5 166 -2 c 0,0,1
EndSplineSet
Validated: 33
EndChar

StartChar: uni044E
Encoding: 1102 1102 241
Width: 621
GlyphClass: 2
Flags: W
LayerCount: 2
Fore
SplineSet
441 514 m 0,0,1
 479 514 479 514 511 493 c 0,2,3
 529 481 529 481 539.5 477 c 128,-1,4
 550 473 550 473 560 462 c 2,5,-1
 570 452 l 1,6,7
 603 333 603 333 570 187 c 0,8,9
 542 62 542 62 499 26 c 0,10,11
 477 6 477 6 456 1 c 0,12,13
 420 -8 420 -8 382 0 c 0,14,15
 347 7 347 7 319 34 c 0,16,17
 286 66 286 66 276 101 c 0,18,19
 272 114 272 114 271 165 c 0,20,21
 269 223 269 223 277 262 c 1,22,23
 267 259 267 259 261 260 c 0,24,25
 235 263 235 263 212 261.5 c 128,-1,26
 189 260 189 260 180 256 c 0,27,28
 131 235 131 235 113 201 c 0,29,30
 109 193 109 193 100 158 c 128,-1,31
 91 123 91 123 89 74 c 2,32,-1
 84 18 l 1,33,-1
 75 10 l 2,34,35
 69 4 69 4 56 3 c 128,-1,36
 43 2 43 2 38 5 c 128,-1,37
 33 8 33 8 36.5 43 c 128,-1,38
 40 78 40 78 50 115 c 0,39,40
 58 147 58 147 60 173.5 c 128,-1,41
 62 200 62 200 66 227 c 128,-1,42
 70 254 70 254 71.5 273 c 128,-1,43
 73 292 73 292 78 318 c 0,44,45
 97 442 97 442 101 473 c 0,46,47
 104 493 104 493 105.5 498 c 128,-1,48
 107 503 107 503 114 507 c 0,49,50
 120 511 120 511 125.5 513 c 128,-1,51
 131 515 131 515 134.5 514 c 128,-1,52
 138 513 138 513 138 510 c 0,53,54
 138 505 138 505 134 466 c 0,55,56
 130 428 130 428 126 398 c 0,57,58
 123 369 123 369 115 321 c 0,59,60
 102 247 102 247 109 246 c 0,61,62
 112 246 112 246 120 255 c 128,-1,63
 128 264 128 264 158 278 c 0,64,65
 182 289 182 289 199.5 291 c 128,-1,66
 217 293 217 293 238 290 c 0,67,68
 272 287 272 287 284 293 c 1,69,-1
 284 294 l 1,70,71
 290 313 290 313 299 347 c 0,72,73
 316 412 316 412 337.5 446.5 c 128,-1,74
 359 481 359 481 395 500 c 0,75,76
 413 510 413 510 420 512 c 128,-1,77
 427 514 427 514 441 514 c 0,0,1
441 474 m 0,78,79
 439 474 439 474 437 474 c 0,80,81
 400 468 400 468 391 455 c 0,82,83
 386 448 386 448 370.5 411 c 128,-1,84
 355 374 355 374 351 370 c 0,85,86
 346 364 346 364 337 330 c 0,87,88
 336 323 336 323 333 313 c 0,89,90
 300 184 300 184 317 113 c 0,91,92
 323 88 323 88 326 80 c 0,93,94
 331 69 331 69 371 40 c 0,95,96
 384 31 384 31 435 32 c 0,97,98
 453 32 453 32 458.5 33.5 c 128,-1,99
 464 35 464 35 472 42 c 0,100,101
 489 57 489 57 497 79 c 0,102,103
 514 125 514 125 526 187 c 0,104,105
 536 239 536 239 540 259.5 c 128,-1,106
 544 280 544 280 547 315.5 c 128,-1,107
 550 351 550 351 553 364 c 0,108,109
 561 407 561 407 521.5 440.5 c 128,-1,110
 482 474 482 474 441 474 c 0,78,79
EndSplineSet
Validated: 33
EndChar

StartChar: uni044F
Encoding: 1103 1103 242
Width: 487
GlyphClass: 2
Flags: W
LayerCount: 2
Fore
SplineSet
226 506 m 0,0,1
 308 519 308 519 351 476 c 1,2,3
 350 499 350 499 371 503 c 0,4,5
 390 506 390 506 393 489 c 0,6,7
 393 486 393 486 393 484 c 0,8,9
 392 470 392 470 388.5 444.5 c 128,-1,10
 385 419 385 419 384 409 c 0,11,12
 381 375 381 375 372.5 312.5 c 128,-1,13
 364 250 364 250 360 215 c 0,14,15
 359 207 359 207 354.5 176.5 c 128,-1,16
 350 146 350 146 348 133.5 c 128,-1,17
 346 121 346 121 344.5 98.5 c 128,-1,18
 343 76 343 76 344 58 c 0,19,20
 350 36 350 36 376 35 c 128,-1,21
 402 34 402 34 417 47 c 0,22,23
 428 61 428 61 449 64 c 0,24,25
 463 66 463 66 462 53 c 0,26,27
 462 50 462 50 461 47 c 0,28,29
 431 8 431 8 380 -1 c 0,30,31
 359 -6 359 -6 338.5 2 c 128,-1,32
 318 10 318 10 309 29 c 0,33,34
 306 37 306 37 304.5 47 c 128,-1,35
 303 57 303 57 303.5 63.5 c 128,-1,36
 304 70 304 70 304.5 83 c 128,-1,37
 305 96 305 96 305 100 c 0,38,39
 307 124 307 124 328 263 c 1,40,41
 305 191 305 191 256 117 c 0,42,43
 227 74 227 74 204.5 51 c 128,-1,44
 182 28 182 28 156 17 c 0,45,46
 129 6 129 6 113.5 4 c 128,-1,47
 98 2 98 2 78 8 c 0,48,49
 68 11 68 11 61 16 c 128,-1,50
 54 21 54 21 50.5 25.5 c 128,-1,51
 47 30 47 30 40 40 c 128,-1,52
 33 50 33 50 29 55 c 0,53,54
 19 72 19 72 27 79 c 0,55,56
 32 84 32 84 43 73 c 0,57,58
 45 71 45 71 53 64 c 128,-1,59
 61 57 61 57 63.5 54.5 c 128,-1,60
 66 52 66 52 73.5 47 c 128,-1,61
 81 42 81 42 86 40 c 128,-1,62
 91 38 91 38 98.5 36.5 c 128,-1,63
 106 35 106 35 113 36 c 0,64,65
 131 38 131 38 151 50.5 c 128,-1,66
 171 63 171 63 183 74.5 c 128,-1,67
 195 86 195 86 213 106 c 0,68,69
 232 126 232 126 257.5 170.5 c 128,-1,70
 283 215 283 215 299 255 c 1,71,72
 236 226 236 226 169 241 c 0,73,74
 138 247 138 247 115.5 278.5 c 128,-1,75
 93 310 93 310 93 345 c 0,76,77
 97 380 97 380 107.5 405 c 128,-1,78
 118 430 118 430 142 459 c 0,79,80
 175 498 175 498 226 506 c 0,0,1
259 479 m 0,81,82
 229 479 229 479 205 468 c 0,83,84
 148 439 148 439 133 370 c 0,85,86
 126 348 126 348 131.5 323.5 c 128,-1,87
 137 299 137 299 156 286 c 0,88,89
 223 245 223 245 295 291 c 0,90,91
 322 306 322 306 332 347 c 0,92,93
 338 370 338 370 340.5 381.5 c 128,-1,94
 343 393 343 393 341 412 c 128,-1,95
 339 431 339 431 328 444 c 0,96,97
 296 475 296 475 259 479 c 0,81,82
EndSplineSet
Validated: 33
EndChar

StartChar: uni0451
Encoding: 1105 1105 243
Width: 409
GlyphClass: 2
Flags: W
LayerCount: 2
Fore
SplineSet
275 577 m 128,-1,1
 273 579 273 579 273 599 c 0,2,3
 273 616 273 616 277 622 c 128,-1,4
 281 628 281 628 293 630 c 0,5,6
 302 632 302 632 310 625 c 128,-1,7
 318 618 318 618 318 607 c 0,8,9
 318 595 318 595 308.5 585 c 128,-1,10
 299 575 299 575 288 575 c 128,-1,0
 277 575 277 575 275 577 c 128,-1,1
147 575 m 0,11,12
 129 583 129 583 129 610 c 0,13,14
 129 619 129 619 135 626 c 128,-1,15
 141 633 141 633 148 631 c 0,16,17
 154 629 154 629 158 629 c 128,-1,18
 162 629 162 629 170.5 616.5 c 128,-1,19
 179 604 179 604 179 598 c 0,20,21
 179 580 179 580 165 574 c 0,22,23
 158 571 158 571 157.5 571 c 128,-1,24
 157 571 157 571 147 575 c 0,11,12
150 0 m 0,25,26
 115 7 115 7 87 34 c 0,27,28
 54 66 54 66 44 101 c 0,29,30
 40 115 40 115 38 166 c 0,31,32
 38 182 38 182 38 196 c 0,33,34
 38 222 38 222 40 235 c 0,35,36
 44 257 44 257 39.5 261.5 c 128,-1,37
 35 266 35 266 35.5 269 c 128,-1,38
 36 272 36 272 42 279 c 0,39,40
 52 289 52 289 68 347 c 0,41,42
 85 413 85 413 102 442 c 128,-1,43
 119 471 119 471 153 491 c 0,44,45
 183 508 183 508 235 508 c 0,46,47
 238 508 238 508 241 508 c 0,48,49
 322 507 322 507 360 433 c 0,50,51
 375 403 375 403 375 371 c 0,52,53
 375 337 375 337 359 300 c 0,54,55
 352 284 352 284 347 277 c 128,-1,56
 342 270 342 270 331 262 c 0,57,58
 302 240 302 240 271 231 c 0,59,60
 259 228 259 228 216 226 c 0,61,62
 205 226 205 226 195 226 c 0,63,64
 154 226 154 226 123 232 c 0,65,66
 90 239 90 239 86 239 c 0,67,68
 84 239 84 239 81 210 c 0,69,70
 79 182 79 182 79 165 c 0,71,72
 79 105 79 105 95 79 c 0,73,74
 103 66 103 66 124 51 c 128,-1,75
 145 36 145 36 153 34 c 0,76,77
 186 27 186 27 211 27 c 0,78,79
 237 27 237 27 257 32 c 0,80,81
 262 33 262 33 266.5 35.5 c 128,-1,82
 271 38 271 38 275.5 41 c 128,-1,83
 280 44 280 44 282 45 c 0,84,85
 307 58 307 58 327 74 c 0,86,87
 345 89 345 89 354 89 c 0,88,89
 358 89 358 89 360 84 c 0,90,91
 361 80 361 80 348 62 c 0,92,93
 329 35 329 35 289 17 c 128,-1,94
 249 -1 249 -1 205 -3 c 0,95,96
 195 -4 195 -4 186 -4 c 0,97,98
 165 -4 165 -4 150 0 c 0,25,26
293 274 m 0,99,100
 322 290 322 290 327 310 c 0,101,102
 338 359 338 359 339 376 c 0,103,104
 339 380 339 380 339 384 c 0,105,106
 339 396 339 396 336 408 c 0,107,108
 323 446 323 446 292 462 c 256,109,110
 261 478 261 478 230 478 c 0,111,112
 205 478 205 478 181 468 c 0,113,114
 159 460 159 460 137 407 c 0,115,116
 123 374 123 374 119 369.5 c 128,-1,117
 115 365 115 365 102 319 c 0,118,119
 90 279 90 279 90 272 c 0,120,121
 90 270 90 270 132 266 c 0,122,123
 158 263 158 263 190 263 c 0,124,125
 210 263 210 263 231 264 c 0,126,127
 264 265 264 265 273 266.5 c 128,-1,128
 282 268 282 268 293 274 c 0,99,100
EndSplineSet
Validated: 1
EndChar

StartChar: u10000
Encoding: 65537 65536 258
Width: 341
GlyphClass: 2
Flags: W
LayerCount: 2
Fore
SplineSet
35 0 m 1,0,-1
 35 682 l 1,1,-1
 306 682 l 1,2,-1
 306 0 l 1,3,-1
 35 0 l 1,0,-1
69 34 m 1,4,-1
 272 34 l 1,5,-1
 272 648 l 1,6,-1
 69 648 l 1,7,-1
 69 34 l 1,4,-1
EndSplineSet
Validated: 1
EndChar

StartChar: E_cap
Encoding: 65539 -1 260
Width: 578
GlyphClass: 2
Flags: W
LayerCount: 2
Fore
SplineSet
243 0 m 0,0,1
 211 8 211 8 205.5 8 c 128,-1,2
 200 8 200 8 189 13 c 0,3,4
 178 19 178 19 154 30 c 0,5,6
 144 34 144 34 113 58 c 0,7,8
 85 80 85 80 65 112 c 128,-1,9
 45 144 45 144 38 174 c 0,10,11
 35 186 35 186 35 223.5 c 128,-1,12
 35 261 35 261 39 276 c 0,13,14
 50 325 50 325 75.5 372.5 c 128,-1,15
 101 420 101 420 132 445 c 0,16,17
 146 457 146 457 175.5 472 c 128,-1,18
 205 487 205 487 215 489 c 0,19,20
 219 490 219 490 225.5 491 c 128,-1,21
 232 492 232 492 236 492.5 c 128,-1,22
 240 493 240 493 240 494 c 0,23,24
 240 496 240 496 222 505 c 0,25,26
 160 535 160 535 144 596 c 0,27,28
 138 621 138 621 143 663 c 128,-1,29
 148 705 148 705 160 730 c 0,30,31
 198 804 198 804 273 819 c 0,32,33
 309 827 309 827 354.5 818 c 128,-1,34
 400 809 400 809 416 790 c 0,35,36
 426 777 426 777 419 770 c 0,37,38
 414 765 414 765 411.5 765.5 c 128,-1,39
 409 766 409 766 402 772 c 0,40,41
 392 780 392 780 341 792 c 0,42,43
 317 797 317 797 290 794 c 0,44,45
 267 791 267 791 253 783.5 c 128,-1,46
 239 776 239 776 225 760 c 0,47,48
 198 729 198 729 188 692 c 0,49,50
 179 664 179 664 180 646 c 0,51,52
 181 591 181 591 211 556.5 c 128,-1,53
 241 522 241 522 302 502 c 0,54,55
 352 486 352 486 352 481 c 0,56,57
 352 471 352 471 294 468 c 0,58,59
 249 467 249 467 240 464 c 0,60,61
 190 456 190 456 152.5 419 c 128,-1,62
 115 382 115 382 92 333 c 0,63,64
 82 312 82 312 80 293 c 0,65,66
 61 194 61 194 106 128 c 0,67,68
 110 121 110 121 114.5 115.5 c 128,-1,69
 119 110 119 110 123 105.5 c 128,-1,70
 127 101 127 101 133.5 96 c 128,-1,71
 140 91 140 91 144 87.5 c 128,-1,72
 148 84 148 84 156 79.5 c 128,-1,73
 164 75 164 75 167 73 c 128,-1,74
 170 71 170 71 179 66 c 128,-1,75
 188 61 188 61 190.5 60 c 128,-1,76
 193 59 193 59 202.5 54 c 128,-1,77
 212 49 212 49 214 48 c 0,78,79
 237 37 237 37 241 36 c 0,80,81
 255 33 255 33 270.5 29 c 128,-1,82
 286 25 286 25 317 25 c 128,-1,83
 348 25 348 25 370 31 c 0,84,85
 416 41 416 41 451 61 c 128,-1,86
 486 81 486 81 516 119 c 0,87,88
 536 145 536 145 542 131 c 0,89,90
 543 128 543 128 543 124 c 0,91,92
 543 102 543 102 511 67 c 0,93,94
 496 51 496 51 445.5 25 c 128,-1,95
 395 -1 395 -1 370 -3 c 0,96,97
 289 -12 289 -12 243 0 c 0,0,1
EndSplineSet
Validated: 33
EndChar

StartChar: o_small
Encoding: 65540 -1 261
Width: 429
GlyphClass: 2
Flags: W
LayerCount: 2
Fore
SplineSet
84 28 m 0,0,1
 51 60 51 60 40 95 c 0,2,3
 16 172 16 172 54 317 c 0,4,5
 71 382 71 382 102 440 c 0,6,7
 120 473 120 473 159 494 c 0,8,9
 184 508 184 508 221 508 c 0,10,11
 248 507 248 507 275.5 495.5 c 128,-1,12
 303 484 303 484 319 471 c 0,13,14
 344 452 344 452 368 404 c 1,15,16
 385 360 385 360 384 301.5 c 128,-1,17
 383 243 383 243 369 181 c 0,18,19
 358 133 358 133 332.5 88 c 128,-1,20
 307 43 307 43 279 20 c 0,21,22
 247 -9 247 -9 192 -9 c 0,23,24
 122 -9 122 -9 84 28 c 0,0,1
274 65 m 0,25,26
 310 106 310 106 327 181 c 0,27,28
 365 347 365 347 341 398 c 0,29,30
 309 465 309 465 216 468 c 0,31,32
 177 469 177 469 155 449 c 0,33,34
 135 431 135 431 118 382 c 0,35,36
 104 337 104 337 93 297 c 0,37,38
 56 158 56 158 72 109 c 0,39,40
 86 68 86 68 132 36 c 0,41,42
 161 15 161 15 206 21 c 0,43,44
 239 25 239 25 274 65 c 0,25,26
EndSplineSet
Validated: 33
EndChar

StartChar: e_small
Encoding: 65541 -1 262
Width: 409
GlyphClass: 2
Flags: W
LayerCount: 2
Fore
SplineSet
87 31 m 0,0,1
 54 63 54 63 44 98 c 0,2,3
 38 119 38 119 38 193 c 0,4,5
 38 219 38 219 40 232 c 0,6,7
 44 254 44 254 39.5 258.5 c 128,-1,8
 35 263 35 263 35.5 266 c 128,-1,9
 36 269 36 269 42 276 c 0,10,11
 52 286 52 286 68 344 c 0,12,13
 97 455 97 455 153 488 c 0,14,15
 183 505 183 505 241 505 c 0,16,17
 322 504 322 504 360 430 c 0,18,19
 375 400 375 400 375 368 c 0,20,21
 375 334 375 334 359 297 c 0,22,23
 348 271 348 271 331 259 c 0,24,25
 288 226 288 226 216 223 c 0,26,27
 154 223 154 223 123 229 c 0,28,29
 90 236 90 236 86 236 c 0,30,31
 84 236 84 236 81 207 c 0,32,33
 74 110 74 110 95 76 c 0,34,35
 127 24 127 24 211 24 c 0,36,37
 268 24 268 24 327 71 c 0,38,39
 345 86 345 86 354 86 c 0,40,41
 358 86 358 86 360 81 c 0,42,43
 361 77 361 77 348 59 c 0,44,45
 305 -1 305 -1 205 -6 c 0,46,47
 195 -7 195 -7 186 -7 c 0,48,49
 126 -7 126 -7 87 31 c 0,0,1
327 307 m 0,50,51
 354 427 354 427 292 459 c 0,52,53
 261 475 261 475 230 475 c 0,54,55
 203 475 203 475 181 463 c 0,56,57
 138 439 138 439 102 316 c 0,58,59
 90 276 90 276 90 269 c 0,60,61
 90 268 90 268 132 263 c 0,62,63
 165 259 165 259 231 261 c 0,64,65
 317 264 317 264 327 307 c 0,50,51
EndSplineSet
Validated: 33
EndChar

StartChar: u_small
Encoding: 65542 -1 263
Width: 497
GlyphClass: 2
Flags: W
LayerCount: 2
Fore
SplineSet
93 499 m 0,0,1
 99 505 99 505 108 505 c 0,2,3
 120 505 120 505 125 500 c 0,4,5
 131 494 131 494 130 493 c 0,6,7
 129 491 129 491 127 479 c 0,8,9
 125 468 125 468 122 446 c 2,10,11
 122 446 122 446 69 181 c 0,12,13
 56 114 56 114 94 63 c 0,14,15
 111 39 111 39 133 31 c 0,16,17
 199 10 199 10 255 37 c 0,18,19
 320 67 320 67 325 112 c 2,20,-1
 365 446 l 2,21,22
 367 493 367 493 368 497 c 128,-1,23
 369 501 369 501 376 503.5 c 128,-1,24
 383 506 383 506 392 502 c 0,25,26
 398 500 398 500 405 492 c 0,27,28
 412 485 412 485 410 470 c 0,29,30
 406 431 406 431 403 414 c 0,31,32
 394 365 394 365 383 274 c 0,33,34
 359 79 359 79 359 77 c 0,35,36
 357 44 357 44 363 38 c 0,37,38
 369 31 369 31 399 31 c 0,39,40
 415 31 415 31 442 50 c 0,41,42
 458 61 458 61 467 61 c 0,43,44
 471 61 471 61 476 56 c 0,45,46
 478 54 478 54 478 50 c 0,47,48
 478 41 478 41 461 28 c 0,49,50
 429 4 429 4 410 -1 c 0,51,52
 356 -14 356 -14 337 4 c 0,53,54
 321 18 321 18 321 51 c 1,55,56
 301 12 301 12 233 -2 c 0,57,58
 171 -14 171 -14 129 0 c 0,59,60
 92 12 92 12 68 42 c 0,61,62
 19 102 19 102 34 184 c 2,63,-1
 87 482 l 2,64,65
 89 495 89 495 93 499 c 0,0,1
EndSplineSet
Validated: 33
EndChar

StartChar: g_small
Encoding: 65543 -1 264
Width: 420
GlyphClass: 2
Flags: W
LayerCount: 2
Fore
SplineSet
78 -370 m 0,0,1
 8 -358 8 -358 -17 -286 c 0,2,3
 -24 -265 -24 -265 -18.5 -239 c 128,-1,4
 -13 -213 -13 -213 1 -200 c 0,5,6
 8 -193 8 -193 12 -197 c 0,7,8
 24 -207 24 -207 16 -234 c 0,9,10
 9 -256 9 -256 14 -274 c 0,11,12
 30 -323 30 -323 86 -339 c 0,13,14
 191 -369 191 -369 269 -303 c 0,15,16
 298 -280 298 -280 309 -258 c 0,17,18
 354 -167 354 -167 329 -62 c 1,19,-1
 305 10 l 2,20,21
 299 30 299 30 298 69 c 1,22,-1
 291 53 l 2,23,24
 284 37 284 37 277 29 c 0,25,26
 222 -34 222 -34 127 12 c 0,27,28
 73 38 73 38 53 100 c 0,29,30
 29 174 29 174 75 346 c 0,31,32
 90 402 90 402 114 441 c 0,33,34
 187 555 187 555 285 492 c 2,35,-1
 333 461 l 1,36,-1
 343 451 l 1,37,-1
 347 468 l 2,38,39
 355 501 355 501 369 501 c 0,40,41
 379 501 379 501 379.5 487 c 128,-1,42
 380 473 380 473 371 419 c 0,43,44
 368 400 368 400 365 379 c 128,-1,45
 362 358 362 358 357 330 c 0,46,47
 345 253 345 253 335 127 c 0,48,49
 332 90 332 90 335 57 c 0,50,51
 339 24 339 24 358 -41 c 0,52,53
 413 -235 413 -235 284 -339 c 0,54,55
 210 -399 210 -399 78 -370 c 0,0,1
246 41 m 0,56,57
 263 56 263 56 271 78 c 0,58,59
 288 124 288 124 300 186 c 0,60,61
 330 352 330 352 332 393 c 2,62,-1
 333 410 l 1,63,-1
 316 427 l 2,64,65
 288 455 288 455 260 467 c 0,66,67
 184 502 184 502 144 410 c 0,68,69
 113 339 113 339 107 316 c 0,70,71
 72 182 72 182 90 112 c 0,72,73
 101 70 101 70 145 39 c 0,74,75
 200 1 200 1 246 41 c 0,56,57
EndSplineSet
Validated: 33
EndChar

StartChar: A_cap
Encoding: 65544 -1 265
Width: 757
GlyphClass: 2
Flags: W
LayerCount: 2
Fore
SplineSet
617 255 m 1,0,-1
 619 314 l 2,1,2
 623 418 623 418 630 490 c 0,3,4
 661 793 661 793 661 794 c 0,5,6
 662 798 662 798 652 799 c 0,7,8
 624 802 624 802 614 758 c 0,9,10
 609 730 609 730 603 702 c 0,11,12
 560 510 560 510 523 432 c 1,13,14
 570 380 570 380 587 341 c 0,15,16
 613 282 613 282 617 255 c 1,0,-1
390 183 m 1,17,-1
 450 183 l 2,18,19
 533 183 533 183 609 197 c 1,20,-1
 605 218 l 2,21,22
 597 268 597 268 567 328 c 0,23,24
 542 377 542 377 512 407 c 1,25,-1
 506 395 l 1,26,27
 452 276 452 276 396 192 c 2,28,-1
 390 183 l 1,17,-1
359 187 m 1,29,-1
 366 198 l 2,30,31
 417 276 417 276 486 416 c 2,32,-1
 491 426 l 1,33,-1
 472 443 l 2,34,35
 428 481 428 481 375 481 c 0,36,37
 313 481 313 481 253 427 c 0,38,39
 194 373 194 373 194 311 c 0,40,41
 194 307 194 307 194 294 c 256,42,43
 194 281 194 281 205 257 c 128,-1,44
 216 233 216 233 237 221 c 0,45,46
 290 191 290 191 359 187 c 1,29,-1
35 82 m 0,47,48
 35 98 35 98 44 97 c 0,49,50
 49 97 49 97 50 95 c 0,51,52
 51 94 51 94 53 85 c 0,53,54
 61 54 61 54 85 34 c 0,55,56
 107 15 107 15 141 20 c 0,57,58
 189 27 189 27 259 82 c 0,59,60
 304 117 304 117 341 163 c 1,61,62
 327 165 327 165 313 167 c 0,63,64
 275 174 275 174 232 196 c 0,65,66
 162 232 162 232 162 304 c 0,67,68
 162 323 162 323 165 336 c 0,69,70
 180 392 180 392 218 430 c 0,71,72
 258 470 258 470 296 486 c 0,73,74
 324 498 324 498 356 502 c 0,75,76
 384 505 384 505 405 503 c 0,77,78
 448 499 448 499 481 469 c 0,79,80
 496 455 496 455 503 452 c 1,81,82
 545 533 545 533 576 708 c 0,83,84
 580 736 580 736 586 765 c 0,85,86
 604 849 604 849 657 838 c 0,87,88
 671 835 671 835 688 818 c 0,89,90
 691 815 691 815 692 800 c 0,91,92
 692 783 692 783 689 758 c 0,93,94
 677 656 677 656 673 606 c 0,95,96
 651 309 651 309 651 226 c 0,97,98
 651 222 651 222 651 214 c 0,99,100
 651 207 651 207 651 205 c 1,101,102
 653 205 653 205 661 207 c 0,103,104
 668 209 668 209 676 211 c 0,105,106
 685 213 685 213 702 221 c 0,107,108
 718 229 718 229 721 228 c 128,-1,109
 724 227 724 227 721 219 c 0,110,111
 718 212 718 212 704 203 c 0,112,113
 690 193 690 193 673 188 c 2,114,-1
 652 182 l 1,115,-1
 652 149 l 2,116,117
 652 115 652 115 661 69 c 0,118,119
 671 18 671 18 671 9 c 0,120,121
 671 -5 671 -5 655 -4 c 128,-1,122
 639 -3 639 -3 628 8 c 1,123,124
 619 48 619 48 619 94 c 0,125,126
 619 144 619 144 612 176 c 1,127,128
 520 162 520 162 458 161 c 2,129,-1
 373 159 l 1,130,131
 331 101 331 101 279 59 c 0,132,133
 201 -5 201 -5 143 -10 c 0,134,135
 97 -14 97 -14 63 18 c 0,136,137
 35 44 35 44 35 82 c 0,47,48
EndSplineSet
Validated: 33
EndChar

StartChar: B_cap
Encoding: 65545 -1 266
Width: 703
GlyphClass: 2
Flags: W
LayerCount: 2
Fore
SplineSet
134 333 m 2,0,-1
 148 368 l 2,1,2
 148 370 148 370 156.5 388 c 128,-1,3
 165 406 165 406 186 466.5 c 128,-1,4
 207 527 207 527 214.5 536 c 128,-1,5
 222 545 222 545 222 596.5 c 128,-1,6
 222 648 222 648 224.5 665 c 128,-1,7
 227 682 227 682 224.5 733 c 128,-1,8
 222 784 222 784 220 786.5 c 128,-1,9
 218 789 218 789 204 782 c 128,-1,10
 190 775 190 775 169 776 c 128,-1,11
 148 777 148 777 143 782 c 0,12,13
 127 796 127 796 112 769 c 0,14,15
 107 760 107 760 102 760 c 128,-1,16
 97 760 97 760 97 772.5 c 128,-1,17
 97 785 97 785 103.5 793 c 128,-1,18
 110 801 110 801 125 809 c 128,-1,19
 140 817 140 817 150.5 814 c 128,-1,20
 161 811 161 811 164 807 c 128,-1,21
 167 803 167 803 179 801 c 128,-1,22
 191 799 191 799 212 814.5 c 128,-1,23
 233 830 233 830 240.5 830.5 c 128,-1,24
 248 831 248 831 250 829.5 c 128,-1,25
 252 828 252 828 256 821 c 0,26,27
 261 811 261 811 256.5 722.5 c 128,-1,28
 252 634 252 634 259 642 c 0,29,30
 261 648 261 648 273 666.5 c 128,-1,31
 285 685 285 685 285 687.5 c 128,-1,32
 285 690 285 690 290 694 c 128,-1,33
 295 698 295 698 316 730 c 0,34,35
 358 796 358 796 430 801 c 0,36,37
 527 809 527 809 559 718 c 0,38,39
 574 673 574 673 563 616 c 0,40,41
 557 588 557 588 547.5 568 c 128,-1,42
 538 548 538 548 514 520 c 128,-1,43
 490 492 490 492 474.5 484 c 128,-1,44
 459 476 459 476 466 474 c 0,45,46
 470 473 470 473 483 471.5 c 128,-1,47
 496 470 496 470 526 459.5 c 128,-1,48
 556 449 556 449 567 441 c 0,49,50
 633 391 633 391 657 295 c 0,51,52
 690 157 690 157 599 45 c 0,53,54
 536 -28 536 -28 416 -14 c 0,55,56
 350 -7 350 -7 297 21 c 0,57,58
 272 33 272 33 258 51.5 c 128,-1,59
 244 70 244 70 248 85 c 128,-1,60
 252 100 252 100 278 71 c 128,-1,61
 304 42 304 42 337 33 c 0,62,63
 352 28 352 28 355.5 25 c 128,-1,64
 359 22 359 22 386 18 c 0,65,66
 513 -1 513 -1 578 89 c 0,67,68
 630 160 630 160 613 287 c 0,69,70
 603 365 603 365 528 423 c 0,71,72
 514 433 514 433 486 439.5 c 128,-1,73
 458 446 458 446 401.5 447 c 128,-1,74
 345 448 345 448 330.5 445 c 128,-1,75
 316 442 316 442 308 447 c 0,76,77
 286 462 286 462 341 476 c 0,78,79
 363 481 363 481 387 484 c 128,-1,80
 411 487 411 487 432.5 499.5 c 128,-1,81
 454 512 454 512 499 560 c 0,82,83
 516 578 516 578 522 609 c 128,-1,84
 528 640 528 640 524.5 666.5 c 128,-1,85
 521 693 521 693 510.5 727 c 128,-1,86
 500 761 500 761 485 771 c 128,-1,87
 470 781 470 781 446 782.5 c 128,-1,88
 422 784 422 784 415.5 782.5 c 128,-1,89
 409 781 409 781 392 774 c 2,90,-1
 372 762 l 1,91,92
 375 762 375 762 352 738.5 c 128,-1,93
 329 715 329 715 315 691 c 128,-1,94
 301 667 301 667 295.5 661 c 128,-1,95
 290 655 290 655 277.5 632 c 128,-1,96
 265 609 265 609 260 594 c 0,97,98
 250 563 250 563 249.5 459 c 128,-1,99
 249 355 249 355 245 324 c 128,-1,100
 241 293 241 293 236.5 255 c 128,-1,101
 232 217 232 217 230 212.5 c 128,-1,102
 228 208 228 208 224 187.5 c 128,-1,103
 220 167 220 167 211.5 146.5 c 128,-1,104
 203 126 203 126 188.5 81 c 128,-1,105
 174 36 174 36 153.5 11.5 c 128,-1,106
 133 -13 133 -13 101.5 -9.5 c 128,-1,107
 70 -6 70 -6 44 21 c 0,108,109
 38 28 38 28 36.5 32.5 c 128,-1,110
 35 37 35 37 35 56.5 c 128,-1,111
 35 76 35 76 40.5 104.5 c 128,-1,112
 46 133 46 133 51 141.5 c 128,-1,113
 56 150 56 150 61 164 c 128,-1,114
 66 178 66 178 72 191.5 c 128,-1,115
 78 205 78 205 83 219 c 128,-1,116
 88 233 88 233 94.5 242.5 c 128,-1,117
 101 252 101 252 101 254.5 c 128,-1,118
 101 257 101 257 117.5 291.5 c 128,-1,119
 134 326 134 326 134 333 c 2,0,-1
107.5 17.5 m 128,-1,121
 117 17 117 17 128.5 26.5 c 128,-1,122
 140 36 140 36 149.5 61.5 c 128,-1,123
 159 87 159 87 164 98 c 0,124,125
 183 141 183 141 192.5 222.5 c 128,-1,126
 202 304 202 304 211 374.5 c 128,-1,127
 220 445 220 445 215 483 c 0,128,129
 215 488 215 488 212.5 484.5 c 128,-1,130
 210 481 210 481 196.5 440.5 c 128,-1,131
 183 400 183 400 171 372.5 c 128,-1,132
 159 345 159 345 159 343 c 128,-1,133
 159 341 159 341 149 320 c 128,-1,134
 139 299 139 299 133.5 282.5 c 128,-1,135
 128 266 128 266 124 257 c 128,-1,136
 120 248 120 248 120 244.5 c 128,-1,137
 120 241 120 241 115 232.5 c 128,-1,138
 110 224 110 224 105.5 209.5 c 128,-1,139
 101 195 101 195 98 191 c 128,-1,140
 95 187 95 187 87 164 c 128,-1,141
 79 141 79 141 77 130.5 c 128,-1,142
 75 120 75 120 71.5 113 c 128,-1,143
 68 106 68 106 65 78.5 c 128,-1,144
 62 51 62 51 63.5 44 c 128,-1,145
 65 37 65 37 81.5 27.5 c 128,-1,120
 98 18 98 18 107.5 17.5 c 128,-1,121
EndSplineSet
Validated: 33
EndChar

StartChar: C_cap
Encoding: 65546 -1 267
Width: 582
GlyphClass: 2
Flags: W
LayerCount: 2
Fore
SplineSet
287 -11 m 0,0,1
 219 -9 219 -9 172 20 c 0,2,3
 100 64 100 64 64 141 c 0,4,5
 -47 380 -47 380 106 666 c 0,6,7
 131 712 131 712 167 751 c 0,8,9
 260 846 260 846 416 824 c 0,10,11
 453 819 453 819 501 800 c 0,12,13
 524 791 524 791 538 770.5 c 128,-1,14
 552 750 552 750 544 738 c 0,15,16
 537 726 537 726 520 730 c 128,-1,17
 503 734 503 734 497 748 c 0,18,19
 492 759 492 759 476 770 c 0,20,21
 441 792 441 792 411 796 c 0,22,23
 271 812 271 812 192 728 c 0,24,25
 158 692 158 692 138 649 c 0,26,27
 10 378 10 378 102 154 c 0,28,29
 130 86 130 86 194 46 c 0,30,31
 227 25 227 25 298 18 c 0,32,33
 391 9 391 9 462 82 c 0,34,35
 491 112 491 112 499 124 c 0,36,37
 507 137 507 137 514 142 c 0,38,39
 522 146 522 146 525 141 c 0,40,41
 529 136 529 136 524 126 c 0,42,43
 509 93 509 93 477 57 c 0,44,45
 414 -15 414 -15 287 -11 c 0,0,1
EndSplineSet
Validated: 33
EndChar

StartChar: D_cap
Encoding: 65547 -1 268
Width: 732
GlyphClass: 2
Flags: W
LayerCount: 2
Fore
SplineSet
465 -8 m 0,0,1
 397 6 397 6 341 59 c 0,2,3
 290 108 290 108 252 218 c 1,4,5
 250 210 250 210 239 170 c 0,6,7
 228 131 228 131 218 104 c 0,8,9
 183 8 183 8 133 -6 c 0,10,11
 97 -16 97 -16 74 -5 c 0,12,13
 39 12 39 12 36 45 c 0,14,15
 27 124 27 124 53 193 c 0,16,17
 80 264 80 264 142 291 c 0,18,19
 174 306 174 306 201 302 c 0,20,21
 227 298 227 298 242 282 c 1,22,23
 259 342 259 342 273 410 c 0,24,25
 287 477 287 477 300 556 c 0,26,27
 316 654 316 654 322 674 c 0,28,29
 324 683 324 683 326 705 c 0,30,31
 328 728 328 728 334 743 c 0,32,33
 339 758 339 758 352 767 c 1,34,35
 363 767 363 767 369 760 c 0,36,37
 374 754 374 754 373 743 c 256,38,39
 372 732 372 732 370 721 c 256,40,41
 368 710 368 710 364 698 c 0,42,43
 361 685 361 685 360 679 c 0,44,45
 345 597 345 597 329 533 c 0,46,47
 321 500 321 500 310 443 c 0,48,49
 296 367 296 367 289 338 c 0,50,51
 278 294 278 294 263 255 c 1,52,53
 268 244 268 244 286 207 c 0,54,55
 303 171 303 171 312 152 c 0,56,57
 321 134 321 134 336 110 c 256,58,59
 351 86 351 86 364 74 c 0,60,61
 389 51 389 51 407 41 c 0,62,63
 426 32 426 32 457 22 c 1,64,65
 497 16 497 16 527 34 c 0,66,67
 567 59 567 59 593 110 c 0,68,69
 648 219 648 219 654 298 c 0,70,71
 663 408 663 408 644 497 c 0,72,73
 592 745 592 745 459 783 c 0,74,75
 297 830 297 830 182 724 c 0,76,77
 140 685 140 685 124 656 c 0,78,79
 102 615 102 615 112 572 c 0,80,81
 121 535 121 535 144 515 c 1,82,83
 144 493 144 493 119 516 c 0,84,85
 95 540 95 540 88 570 c 0,86,87
 74 623 74 623 103 681 c 0,88,89
 119 713 119 713 155 752 c 0,90,91
 272 877 272 877 482 808 c 0,92,93
 643 755 643 755 690 492 c 0,94,95
 709 384 709 384 699 292 c 0,96,97
 687 185 687 185 635 100 c 0,98,99
 603 49 603 49 550 12 c 0,100,101
 510 -17 510 -17 465 -8 c 0,0,1
125 21 m 0,102,103
 170 32 170 32 197 122 c 0,104,105
 203 141 203 141 215 187 c 0,106,107
 226 233 226 233 234 254 c 1,108,109
 222 273 222 273 202 279 c 0,110,111
 180 285 180 285 155 273 c 0,112,113
 101 249 101 249 77 187 c 0,114,115
 54 126 54 126 61 58 c 0,116,117
 64 30 64 30 79 23 c 0,118,119
 97 14 97 14 125 21 c 0,102,103
EndSplineSet
Validated: 33
EndChar

